<svg width="23" height="24" viewBox="0 0 23 24" fill="none" xmlns="http://www.w3.org/2000/svg">
<path d="M2.87496 3.375H20.125C20.3791 3.375 20.6229 3.47597 20.8026 3.65569C20.9823 3.83541 21.0833 4.07917 21.0833 4.33333V19.6667C21.0833 19.9208 20.9823 20.1646 20.8026 20.3443C20.6229 20.524 20.3791 20.625 20.125 20.625H2.87496C2.62079 20.625 2.37704 20.524 2.19732 20.3443C2.01759 20.1646 1.91663 19.9208 1.91663 19.6667V4.33333C1.91663 4.07917 2.01759 3.83541 2.19732 3.65569C2.37704 3.47597 2.62079 3.375 2.87496 3.375ZM19.1666 7.43642L11.569 14.2406L3.83329 7.41533V18.7083H19.1666V7.43642ZM4.323 5.29167L11.5584 11.6761L18.6894 5.29167H4.323Z" fill="white"/>
</svg>
