<svg width="23" height="24" viewBox="0 0 23 24" fill="none" xmlns="http://www.w3.org/2000/svg">
<g clip-path="url(#clip0)">
<path d="M11.5 23.2391L5.40117 17.1403C4.19495 15.934 3.37351 14.3972 3.04072 12.7241C2.70793 11.051 2.87874 9.31684 3.53155 7.74083C4.18436 6.16483 5.28985 4.81779 6.70822 3.87007C8.12659 2.92235 9.79414 2.4165 11.5 2.4165C13.2059 2.4165 14.8734 2.92235 16.2918 3.87007C17.7102 4.81779 18.8156 6.16483 19.4685 7.74083C20.1213 9.31684 20.2921 11.051 19.9593 12.7241C19.6265 14.3972 18.8051 15.934 17.5988 17.1403L11.5 23.2391ZM16.2438 15.7852C17.1819 14.847 17.8207 13.6517 18.0795 12.3504C18.3383 11.0491 18.2054 9.70034 17.6976 8.47459C17.1899 7.24884 16.33 6.20118 15.2269 5.46409C14.1237 4.727 12.8268 4.33358 11.5 4.33358C10.1733 4.33358 8.87629 4.727 7.77313 5.46409C6.66996 6.20118 5.81014 7.24884 5.30238 8.47459C4.79462 9.70034 4.66173 11.0491 4.92052 12.3504C5.17931 13.6517 5.81815 14.847 6.75625 15.7852L11.5 20.5289L16.2438 15.7852ZM11.5 12.9581C10.9917 12.9581 10.5042 12.7562 10.1447 12.3967C9.78527 12.0373 9.58334 11.5498 9.58334 11.0414C9.58334 10.5331 9.78527 10.0456 10.1447 9.68614C10.5042 9.3267 10.9917 9.12476 11.5 9.12476C12.0083 9.12476 12.4958 9.3267 12.8553 9.68614C13.2147 10.0456 13.4167 10.5331 13.4167 11.0414C13.4167 11.5498 13.2147 12.0373 12.8553 12.3967C12.4958 12.7562 12.0083 12.9581 11.5 12.9581Z" fill="white"/>
</g>
<defs>
<clipPath id="clip0">
<rect width="23" height="23" fill="white" transform="translate(0 0.5)"/>
</clipPath>
</defs>
</svg>
