<svg width="23" height="24" viewBox="0 0 23 24" fill="none" xmlns="http://www.w3.org/2000/svg">
<path d="M11.5 21.5832C6.20708 21.5832 1.91663 17.2927 1.91663 11.9998C1.91663 6.70696 6.20708 2.4165 11.5 2.4165C16.7928 2.4165 21.0833 6.70696 21.0833 11.9998C21.0833 17.2927 16.7928 21.5832 11.5 21.5832ZM11.5 19.6665C13.5333 19.6665 15.4833 18.8588 16.9211 17.421C18.3589 15.9832 19.1666 14.0332 19.1666 11.9998C19.1666 9.96651 18.3589 8.01646 16.9211 6.57869C15.4833 5.14091 13.5333 4.33317 11.5 4.33317C9.46663 4.33317 7.51659 5.14091 6.07881 6.57869C4.64103 8.01646 3.83329 9.96651 3.83329 11.9998C3.83329 14.0332 4.64103 15.9832 6.07881 17.421C7.51659 18.8588 9.46663 19.6665 11.5 19.6665ZM12.4583 11.9998H16.2916V13.9165H10.5416V7.20817H12.4583V11.9998Z" fill="white"/>
</svg>
