<svg width="23" height="24" viewBox="0 0 23 24" fill="none" xmlns="http://www.w3.org/2000/svg">
<path d="M8.97575 10.7369C9.87499 12.3167 11.1833 13.625 12.7631 14.5243L13.6102 13.3378C13.7465 13.1471 13.9479 13.0128 14.1764 12.9606C14.405 12.9083 14.6447 12.9416 14.8503 13.0542C16.2057 13.7949 17.7025 14.2404 19.2424 14.3613C19.4827 14.3804 19.707 14.4893 19.8706 14.6664C20.0342 14.8435 20.125 15.0757 20.125 15.3168V19.5929C20.1251 19.8302 20.0371 20.059 19.8781 20.2352C19.7191 20.4113 19.5005 20.5222 19.2644 20.5464C18.7565 20.5991 18.2448 20.625 17.7292 20.625C9.52583 20.625 2.875 13.9742 2.875 5.77083C2.875 5.25525 2.90088 4.7435 2.95358 4.23558C2.97779 3.99954 3.08869 3.78087 3.26484 3.6219C3.44099 3.46292 3.66985 3.37495 3.90713 3.375H8.18321C8.42429 3.37497 8.65653 3.4658 8.83361 3.62939C9.0107 3.79298 9.11962 4.0173 9.13867 4.25762C9.25963 5.79747 9.70511 7.29428 10.4458 8.64967C10.5584 8.85529 10.5917 9.09504 10.5394 9.32356C10.4872 9.55208 10.3529 9.75352 10.1622 9.88975L8.97575 10.7369ZM6.55883 10.1073L8.37967 8.80683C7.86292 7.69142 7.50888 6.50764 7.32837 5.29167H4.80125C4.7955 5.45075 4.79262 5.61079 4.79262 5.77083C4.79167 12.9162 10.5838 18.7083 17.7292 18.7083C17.8892 18.7083 18.0492 18.7055 18.2083 18.6987V16.1716C16.9924 15.9911 15.8086 15.6371 14.6932 15.1203L13.3927 16.9412C12.8691 16.7377 12.3606 16.4975 11.8709 16.2224L11.8153 16.1908C9.9356 15.121 8.37898 13.5644 7.30921 11.6847L7.27758 11.6291C7.00245 11.1394 6.76227 10.6309 6.55883 10.1073Z" fill="white"/>
</svg>
