<svg width="111" height="100" viewBox="0 0 111 100" fill="none" xmlns="http://www.w3.org/2000/svg">
<path d="M27.7014 57.8C32.2348 59.1333 35.7014 61.6666 38.1014 65.4C40.7681 68.8666 42.1014 73.1333 42.1014 78.2C42.1014 84.6 40.1014 89.8 36.1014 93.8C32.1014 97.8 27.1681 99.8 21.3014 99.8C14.9014 99.8 9.70142 97.8 5.70142 93.8C1.96809 89.5333 0.101422 84.3333 0.101422 78.2C0.101422 75 0.368089 71.9333 0.901422 69C1.70142 65.8 3.16809 61.2667 5.30142 55.4L22.1014 0.199983H41.3014L27.7014 57.8ZM95.7014 57.8C100.235 59.1333 103.701 61.6666 106.101 65.4C108.768 68.8666 110.101 73.1333 110.101 78.2C110.101 84.6 108.101 89.8 104.101 93.8C100.101 97.8 95.1681 99.8 89.3014 99.8C82.9014 99.8 77.7014 97.8 73.7014 93.8C69.9681 89.5333 68.1014 84.3333 68.1014 78.2C68.1014 75 68.3681 71.9333 68.9014 69C69.7014 65.8 71.1681 61.2667 73.3014 55.4L90.1014 0.199983H109.301L95.7014 57.8Z" fill="white" fill-opacity="0.05"/>
</svg>
