<svg width="40" height="40" viewBox="0 0 40 40" fill="none" xmlns="http://www.w3.org/2000/svg">
<path d="M37.9948 28.2245L32.4742 24.4231L30.3539 18.7581C30.2274 18.4182 29.8493 18.2453 29.5094 18.3717C29.4973 18.3763 29.4852 18.3812 29.4733 18.3864L25.205 20.2743C24.8851 20.4156 24.7321 20.7829 24.857 21.1096C24.9279 21.2935 24.9942 21.4327 25.0645 21.5771C25.1348 21.7216 25.1998 21.8569 25.2792 22.0703C25.789 23.4323 25.1027 24.9503 23.7433 25.4672C22.3846 25.9754 20.8712 25.2859 20.3629 23.9272C20.2354 23.5863 20.1802 23.2228 20.2006 22.8596C20.2197 22.4974 19.9415 22.1884 19.5794 22.1694C19.4886 22.1646 19.3979 22.1787 19.3128 22.2108L14.7504 23.9293C14.4116 24.0569 14.2401 24.4347 14.3669 24.7738L16.0046 29.1491C15.7875 29.1886 15.5743 29.2475 15.3676 29.3251C13.3242 30.0865 12.285 32.3604 13.0465 34.4038C13.808 36.4472 16.0818 37.4864 18.1253 36.7249C18.3356 36.6465 18.539 36.5503 18.733 36.4373L19.9071 39.5735C20.0343 39.9132 20.4127 40.0853 20.7524 39.9581C20.7528 39.9579 20.7531 39.9577 20.7535 39.9577L27.2597 37.5064C27.6684 38.3848 28.4204 39.0563 29.3393 39.3634L29.7544 38.1157C29.2131 37.9333 28.7633 37.549 28.4988 37.0428L30.4787 36.2974C31.129 38.1267 32.8614 39.3475 34.8027 39.345V38.0317C32.9941 38.0206 31.5305 36.5571 31.5195 34.7484C31.5195 34.5742 31.4502 34.4073 31.3271 34.2841L29.0406 31.9976C28.7016 31.6557 28.6633 31.1174 28.9506 30.731C29.1179 30.5051 29.3761 30.3645 29.6565 30.3462C29.9373 30.3225 30.2139 30.4259 30.4104 30.6279L34.9951 35.2126L35.9237 34.2841L34.567 32.9275C34.9012 31.928 34.8806 30.8437 34.5086 29.8576L33.278 26.571L37.2462 29.3034C37.7722 29.6726 38.0855 30.2748 38.086 30.9174V39.3995H39.3994V30.9174C39.3985 29.8444 38.8742 28.8393 37.9948 28.2245ZM33.2786 30.3179C33.46 30.8001 33.5257 31.318 33.4704 31.8302L31.3389 29.6993C30.459 28.797 29.0144 28.7789 28.1121 29.6586C27.2097 30.5385 27.1916 31.9831 28.0713 32.8855C28.0847 32.8992 28.0983 32.9128 28.1121 32.9262L30.1891 35.0032L20.9092 38.4986L19.6576 35.1542C19.5797 34.9464 19.4021 34.7921 19.1854 34.7438C19.1387 34.7335 19.0909 34.7281 19.0429 34.728C18.8711 34.7279 18.7062 34.7951 18.5833 34.9152C17.5289 35.9114 15.8664 35.8642 14.8701 34.8097C13.8739 33.7553 13.9211 32.0928 14.9756 31.0965C15.2237 30.8622 15.5149 30.6785 15.8332 30.5555C16.0423 30.4781 16.2606 30.4286 16.4826 30.4085C16.6192 30.3917 16.757 30.3871 16.8944 30.3947C17.2565 30.4136 17.5655 30.1354 17.5845 29.7733C17.5893 29.6833 17.5754 29.5932 17.5438 29.5088L15.8286 24.9293L18.9556 23.7519C19.366 25.8888 21.431 27.2884 23.568 26.8781C23.7863 26.8361 24.0007 26.7758 24.2089 26.6977C26.2451 25.9251 27.2743 23.6525 26.5118 21.6125C26.4514 21.451 26.3969 21.3229 26.3443 21.2087L29.365 19.8711L33.2786 30.3179Z" fill="white"/>
<path d="M28.2363 0H4.59661C2.05936 0.00328329 0.00328329 2.05936 0 4.59661V28.1818C0.00328329 30.7191 2.05936 32.7751 4.59661 32.7784H11.8199V31.4651H4.59661C2.78423 31.463 1.31545 29.9942 1.31332 28.1818V17.0731H5.53038C5.91953 17.0446 6.21199 16.7061 6.18351 16.3169C6.17801 16.2419 6.16061 16.1682 6.13188 16.0986C5.54827 14.7705 6.15174 13.2208 7.47983 12.6372C8.80792 12.0536 10.3576 12.6571 10.9412 13.9852C11.2371 14.6586 11.2371 15.4252 10.9412 16.0986C10.779 16.438 10.9227 16.8445 11.262 17.0067C11.3498 17.0487 11.4456 17.0713 11.5427 17.0732H15.7598V21.0132C15.5429 20.9762 15.3232 20.958 15.1031 20.9587C12.9271 20.9579 11.1626 22.7213 11.1618 24.8972C11.1612 26.4649 12.0901 27.8837 13.5272 28.5102L14.0525 27.3072C12.7223 26.7285 12.113 25.1811 12.6916 23.8509C13.109 22.8911 14.0565 22.2708 15.1031 22.272C15.465 22.2719 15.8229 22.3475 16.1538 22.4939C16.4861 22.639 16.8732 22.4871 17.0183 22.1548C17.0544 22.072 17.073 21.9827 17.0731 21.8924V17.0731H20.4122C20.3749 17.29 20.3562 17.5097 20.3564 17.7298C20.3604 19.6008 21.6761 21.2125 23.5084 21.5909L23.771 20.3045C22.5495 20.0518 21.6724 18.9772 21.6697 17.7298C21.6696 17.3679 21.7452 17.01 21.8917 16.6791C22.0367 16.3468 21.8849 15.9597 21.5525 15.8146C21.4698 15.7785 21.3805 15.7599 21.2902 15.7598H17.0731V12.4207C17.29 12.458 17.5097 12.4768 17.7298 12.4765C19.9058 12.4765 21.6697 10.7126 21.6697 8.53656C21.6697 6.36056 19.9058 4.59661 17.7298 4.59661C17.5097 4.59636 17.29 4.61508 17.0731 4.65243V1.31332H28.2363C30.0487 1.31545 31.5175 2.78423 31.5196 4.59661V15.7598H27.3025C26.9399 15.76 26.6461 16.0542 26.6462 16.4168C26.6463 16.5071 26.6649 16.5964 26.701 16.6791C26.8475 17.01 26.9231 17.3679 26.923 17.7298H28.2363C28.2366 17.5097 28.2178 17.29 28.1805 17.0731H32.1763C32.5389 17.0731 32.8329 16.7791 32.8329 16.4165V4.59661C32.8296 2.05936 30.7736 0.00328329 28.2363 0ZM17.7298 5.90993C19.1804 5.90993 20.3564 7.08592 20.3564 8.53656C20.3564 9.9872 19.1804 11.1632 17.7298 11.1632C17.3679 11.1633 17.01 11.0877 16.6791 10.9412C16.3468 10.7962 15.9597 10.9481 15.8146 11.2804C15.7785 11.3631 15.7599 11.4525 15.7598 11.5427V15.7053H12.4253C12.4582 15.5063 12.4753 15.3049 12.4765 15.1031C12.4765 15.0913 12.4765 15.0808 12.4765 15.069C12.4765 15.0572 12.4765 15.0552 12.4765 15.0486C12.4765 12.8726 10.7126 11.1087 8.53656 11.1087C6.36056 11.1087 4.59661 12.8726 4.59661 15.0486C4.59661 15.0552 4.59661 15.0624 4.59661 15.069C4.59661 15.0756 4.59661 15.0913 4.59661 15.1031C4.59784 15.3049 4.61491 15.5063 4.64783 15.7053H1.31332V4.59661C1.31545 2.78423 2.78423 1.31545 4.59661 1.31332H15.7598V5.53038C15.76 5.89302 16.0541 6.18687 16.4168 6.18671C16.5071 6.18663 16.5964 6.16799 16.6791 6.13188C17.01 5.98544 17.3679 5.90984 17.7298 5.90993Z" fill="white"/>
</svg>
