<svg width="42" height="42" viewBox="0 0 42 42" fill="none" xmlns="http://www.w3.org/2000/svg">
<path d="M19.651 16.0368C18.7083 16.9798 18.7083 18.5138 19.651 19.4565L19.6535 19.459C20.1249 19.9304 20.744 20.1659 21.3634 20.1659C21.9825 20.1659 22.6019 19.9304 23.0729 19.459L23.8932 18.639C24.8359 17.696 24.8359 16.1621 23.8906 15.2168C22.9479 14.2741 21.414 14.2741 20.471 15.2168L19.651 16.0368ZM20.8113 17.1971L21.6313 16.3771C21.7825 16.2259 21.9812 16.1499 22.1802 16.1499C22.3798 16.1499 22.5801 16.2265 22.7329 16.3793C23.036 16.6825 23.036 17.1756 22.7329 17.4788L21.9129 18.2987C21.6098 18.6019 21.1166 18.6019 20.8135 18.2987L20.8113 18.2965C20.5081 17.9934 20.5081 17.5002 20.8113 17.1971Z" fill="white"/>
<path d="M37.354 14.2984C38.4938 12.7639 39.11 10.9121 39.11 8.96608C39.11 6.57115 38.1772 4.31946 36.4837 2.62564C34.7902 0.932465 32.5388 0 30.1439 0C28.1976 0 26.3461 0.616196 24.8116 1.75598L24.1396 1.08403C23.8195 0.763596 23.3001 0.763596 22.9796 1.08403C22.6592 1.40414 22.6592 1.92357 22.9796 2.244L23.5872 2.85155C22.1648 4.37521 21.3236 6.32858 21.1954 8.40884L5.60343 28.3617C5.34836 28.6882 5.37688 29.1538 5.66976 29.447L7.0864 30.8636L4.04964 33.9004C2.4872 35.4628 2.47823 37.9987 4.0224 39.5724C4.02625 39.5766 4.03041 39.5807 4.03458 39.5849L4.04932 39.5996C4.05349 39.6038 4.05765 39.608 4.06182 39.6118C5.63515 41.1563 8.17171 41.147 9.73383 39.5849L14.4625 34.8562C15.394 33.9247 16.91 33.9247 17.8418 34.8562C18.7733 35.7877 18.7733 37.3037 17.8418 38.2352L15.4773 40.5997C15.1569 40.9201 15.1569 41.4392 15.4773 41.7597C15.6375 41.9199 15.8474 42 16.0573 42C16.2672 42 16.4774 41.9199 16.6373 41.7597L19.0018 39.3955C20.5732 37.8241 20.5732 35.2673 19.0018 33.6959C17.4303 32.1248 14.8736 32.1248 13.3025 33.6959L8.57385 38.4246C7.64459 39.3539 6.13407 39.3564 5.20192 38.432C4.27811 37.4995 4.28067 35.9896 5.20961 35.0603L8.24637 32.0236L9.73671 33.5136C10.0357 33.8126 10.5032 33.8222 10.8323 33.5716L30.7037 17.9142C32.783 17.7854 34.7354 16.9446 36.2584 15.5228L37.0358 16.3005C37.196 16.4607 37.4062 16.5408 37.6161 16.5408C37.826 16.5408 38.0359 16.4604 38.1961 16.3005C38.5165 15.9801 38.5165 15.4606 38.1961 15.1402L37.354 14.2984ZM7.34307 28.8L8.85103 26.87L12.2967 30.3157L10.3798 31.8365L7.34307 28.8ZM13.6021 29.3005L9.86905 25.5678L22.1096 9.90367L29.2089 17.0029L13.6021 29.3005ZM30.7896 16.2633L22.8466 8.3204C22.9876 6.71118 23.6522 5.20418 24.7478 4.01216L26.6874 5.95207C26.8476 6.11229 27.0575 6.19208 27.2674 6.19208C27.4776 6.19208 27.6875 6.11229 27.8477 5.95207C28.1678 5.63164 28.1678 5.11221 27.8477 4.79178L25.9888 2.93294C27.2017 2.09404 28.6379 1.64062 30.1439 1.64062C32.1005 1.64062 33.9401 2.4023 35.3234 3.78593C36.7074 5.16957 37.4694 7.00919 37.4694 8.96608C37.4694 10.4721 37.0163 11.908 36.177 13.1212L32.5798 9.52396C32.2594 9.20352 31.74 9.20352 31.4196 9.52396C31.0994 9.84439 31.0991 10.3638 31.4196 10.6839L35.0978 14.3622C33.9058 15.4578 32.3988 16.1223 30.7896 16.2633Z" fill="white"/>
<path d="M37.9398 31.8989V23.3555C37.9398 23.0901 37.8116 22.8412 37.5956 22.6874C37.3797 22.5332 37.1025 22.4932 36.8516 22.58L28.932 25.3165C28.6017 25.4309 28.3799 25.7421 28.3799 26.092V32.7182C28.3495 32.7099 28.3194 32.7013 28.2883 32.6939C27.6106 32.5314 26.8284 32.5933 26.0859 32.8682C24.4123 33.4873 23.4673 34.9606 23.9339 36.2225C24.2659 37.1194 25.2086 37.6327 26.3269 37.6327C26.7822 37.6327 27.2667 37.5475 27.7512 37.3684C28.4934 37.0938 29.1275 36.6317 29.5367 36.0674C29.8632 35.6166 30.0282 35.1209 30.0202 34.6428C30.0202 34.6402 30.0205 34.638 30.0205 34.6354V26.6764L36.2995 24.5068V30.0003C36.2693 29.9923 36.2392 29.9837 36.2088 29.9763C35.5307 29.8138 34.7486 29.8757 34.0061 30.1506C33.264 30.4252 32.6298 30.8873 32.2206 31.4516C31.747 32.1056 31.6134 32.8538 31.8541 33.5049C32.186 34.4015 33.1288 34.9151 34.2471 34.9151C34.7024 34.9151 35.1869 34.8299 35.6714 34.6508C36.4135 34.3762 37.0477 33.9141 37.4569 33.3498C37.7872 32.8935 37.9516 32.3914 37.9394 31.9085C37.9394 31.9053 37.9398 31.9021 37.9398 31.8989ZM28.2082 35.1042C27.9906 35.4044 27.6166 35.6688 27.1818 35.8297C26.3125 36.1511 25.5774 35.9364 25.4726 35.6531C25.3678 35.3698 25.786 34.7283 26.6553 34.4066C26.9424 34.3002 27.2392 34.2458 27.5115 34.2458C27.6512 34.2458 27.7845 34.2602 27.9066 34.2893C28.1463 34.3467 28.3178 34.4566 28.3645 34.5832C28.4113 34.7101 28.3527 34.9049 28.2082 35.1042ZM36.1284 32.3866C35.9108 32.6868 35.5368 32.9512 35.102 33.1121C34.2327 33.4338 33.4976 33.2188 33.3928 32.9355C33.346 32.8086 33.4043 32.6141 33.5492 32.4141C33.7667 32.1142 34.1407 31.8499 34.5755 31.689C34.8626 31.5826 35.1594 31.5278 35.4317 31.5278C35.5714 31.5278 35.7044 31.5422 35.8268 31.5714C36.0665 31.6291 36.2376 31.7387 36.2847 31.8656C36.3315 31.9921 36.2729 32.187 36.1284 32.3866Z" fill="white"/>
<path d="M30.4019 7.43438C30.2677 7.11234 29.9344 6.90502 29.5858 6.93001C29.2451 6.95469 28.95 7.19469 28.8558 7.52282C28.7619 7.85094 28.8872 8.21688 29.1663 8.41523C29.4429 8.61165 29.8165 8.6171 30.0991 8.43029C30.4211 8.21752 30.5503 7.79038 30.4019 7.43438Z" fill="white"/>
</svg>
