<svg width="40" height="39" viewBox="0 0 40 39" fill="none" xmlns="http://www.w3.org/2000/svg">
<path d="M38.7087 37.4173V9.03149H32.2598V37.4173H30.9685V12.9055H24.5197V37.4252H23.2283V21.937H16.7717V37.4173H15.4803V18.063H9.0315V37.4173H7.74016V28.3858H1.29134V37.4173H0V38.7086H40V37.4173H38.7087ZM6.45669 37.4173H2.58268V29.6772H6.45669V37.4173ZM14.1969 37.4173H10.3228V19.3543H14.1969V37.4173ZM21.937 37.4252H18.063V23.2283H21.937V37.4252ZM29.6772 37.4252H25.8032V14.1968H29.6772V37.4252ZM37.4252 37.4173H33.5512V10.3228H37.4252V37.4173Z" fill="white"/>
<path d="M29.6767 0V1.29134H31.9916L18.7082 14.5748L12.2593 8.11811L4.0625 16.315L4.96801 17.2283L12.2593 9.94488L18.7082 16.3937L32.905 2.20472V4.51181H34.1964V0H29.6767Z" fill="white"/>
</svg>
