<svg width="113" height="113" viewBox="0 0 113 113" fill="none" xmlns="http://www.w3.org/2000/svg">
<path d="M56.5 0C25.3464 0 0 25.3464 0 56.5C0 87.6536 25.3464 113 56.5 113C87.6536 113 113 87.6536 113 56.5C113 25.3464 87.6536 0 56.5 0ZM56.5 108.292C27.9419 108.292 4.70826 85.0581 4.70826 56.5C4.70826 27.9419 27.9419 4.70826 56.5 4.70826C85.0581 4.70826 108.292 27.9419 108.292 56.5C108.292 85.0581 85.0581 108.292 56.5 108.292Z" fill="#EB5757"/>
<path d="M37.6672 47.0833C40.2675 47.0833 42.3755 44.9753 42.3755 42.375C42.3755 39.7747 40.2675 37.6667 37.6672 37.6667C35.0669 37.6667 32.959 39.7747 32.959 42.375C32.959 44.9753 35.0669 47.0833 37.6672 47.0833Z" fill="#EB5757"/>
<path d="M75.3333 47.0833C77.9336 47.0833 80.0415 44.9753 80.0415 42.375C80.0415 39.7747 77.9336 37.6667 75.3333 37.6667C72.733 37.6667 70.625 39.7747 70.625 42.375C70.625 44.9753 72.733 47.0833 75.3333 47.0833Z" fill="#EB5757"/>
<path d="M56.5004 70.625H56.4935C36.7152 70.625 29.0389 80.5613 28.7218 80.9844C27.9447 82.019 28.1539 83.4787 29.184 84.2627C30.214 85.0444 31.6898 84.8442 32.4784 83.8213C32.745 83.4741 39.2328 75.3335 56.4938 75.3335H56.5004C73.7658 75.3357 80.2558 83.4765 80.5133 83.8098C80.9755 84.426 81.6813 84.75 82.3986 84.75C82.8905 84.75 83.3849 84.5959 83.8102 84.2788C84.8493 83.4995 85.0609 82.0234 84.2792 80.9819C83.9618 80.5613 76.2831 70.6272 56.5004 70.625Z" fill="#EB5757"/>
</svg>
