<svg width="45" height="41" viewBox="0 0 45 41" fill="none" xmlns="http://www.w3.org/2000/svg">
<path d="M42.75 6.75H33V3.75C32.9974 1.67981 31.3202 0.00256348 29.25 0H15.75C13.6798 0.00256348 12.0026 1.67981 12 3.75V6.75H2.25C1.00745 6.75 0 7.75745 0 9V25.6948C0.00476074 26.6462 0.604248 27.4926 1.5 27.8123V38.25C1.5 39.4926 2.50745 40.5 3.75 40.5H41.25C42.4926 40.5 43.5 39.4926 43.5 38.25V27.813C44.3958 27.4929 44.9956 26.6462 45 25.6948V9C45 7.75745 43.9926 6.75 42.75 6.75ZM13.5 3.75C13.5 2.50745 14.5074 1.5 15.75 1.5H29.25C30.4926 1.5 31.5 2.50745 31.5 3.75V6.75H30V3.75C30 3.33582 29.6642 3 29.25 3H15.75C15.3358 3 15 3.33582 15 3.75V6.75H13.5V3.75ZM28.5 6.75H16.5V4.5H28.5V6.75ZM42 38.25C42 38.6642 41.6642 39 41.25 39H3.75C3.33582 39 3 38.6642 3 38.25V28.0701L19.5 30.3457V32.25C19.5 33.4926 20.5074 34.5 21.75 34.5H23.25C24.4926 34.5 25.5 33.4926 25.5 32.25V30.3457L42 28.0701V38.25ZM24 32.25C24 32.6642 23.6642 33 23.25 33H21.75C21.3358 33 21 32.6642 21 32.25V27.75C21 27.3358 21.3358 27 21.75 27H23.25C23.6642 27 24 27.3358 24 27.75V32.25ZM43.5 25.6948C43.5004 26.0687 43.2253 26.3859 42.8551 26.4382L42.6471 26.4668L25.5 28.8314V27.75C25.5 26.5074 24.4926 25.5 23.25 25.5H21.75C20.5074 25.5 19.5 26.5074 19.5 27.75V28.8314L2.14563 26.4382C1.77539 26.3862 1.49963 26.0691 1.5 25.6948V9C1.5 8.58582 1.83582 8.25 2.25 8.25H42.75C43.1642 8.25 43.5 8.58582 43.5 9V25.6948Z" fill="white"/>
</svg>
