<svg width="42" height="42" viewBox="0 0 42 42" fill="none" xmlns="http://www.w3.org/2000/svg">
<g clip-path="url(#clip0)">
<path d="M27.0806 12.5652V11.2881C27.0806 9.80346 25.8728 8.5956 24.3881 8.5956H23.8893V7.94526C23.8893 6.85765 23.0045 5.97288 21.9169 5.97288H21.9036V0.615625C21.9036 0.275636 21.6281 0 21.288 0C20.948 0 20.6724 0.275636 20.6724 0.615625V5.97288H20.6591C19.5715 5.97288 18.6867 6.85765 18.6867 7.94526V8.5956H18.1878C16.7032 8.5956 15.4954 9.80346 15.4954 11.2881V12.5652C9.92964 14.8525 6.00006 20.3316 6.00006 26.7121C6.00006 35.1419 12.8582 42.0001 21.288 42.0001C29.7177 42.0001 36.5759 35.1419 36.5759 26.7121C36.5758 20.3316 32.6463 14.8525 27.0806 12.5652ZM32.9239 18.8343C32.0577 18.4548 31.1346 18.1203 30.1648 17.834C29.8787 16.8645 29.5449 15.9417 29.1662 15.0765C30.6435 16.0799 31.9205 17.3569 32.9239 18.8343ZM34.9225 23.2899C33.7964 22.98 32.5184 22.7139 31.1237 22.4959C30.9832 21.3741 30.7866 20.2844 30.5379 19.2385C31.8023 19.6556 32.9707 20.1613 34.0147 20.7482C34.3951 21.5566 34.7007 22.4068 34.9225 23.2899ZM34.0149 32.6757C32.9778 33.2582 31.8074 33.762 30.5393 34.1787C30.7873 33.135 30.9835 32.0478 31.1237 30.9287C32.5179 30.7109 33.7964 30.4454 34.9222 30.1356C34.7004 31.0182 34.3949 31.8678 34.0149 32.6757ZM24.7106 40.3466C25.0208 39.2193 25.2873 37.9401 25.5053 36.5435C26.6243 36.4018 27.7146 36.2042 28.7625 35.9547C28.3449 37.2234 27.8388 38.3948 27.2519 39.4389C26.4436 39.8192 25.5936 40.1248 24.7106 40.3466ZM25.6852 35.2789C25.8408 34.0758 25.9629 32.8009 26.049 31.4735C27.3779 31.3874 28.6539 31.265 29.8583 31.1091C29.6941 32.316 29.4629 33.4806 29.1688 34.5859C28.0596 34.8811 26.8914 35.1134 25.6852 35.2789ZM15.3242 39.4389C14.7353 38.3915 14.2283 37.2211 13.8109 35.9545C14.8594 36.2042 15.9511 36.4013 17.0708 36.5431C17.2888 37.9395 17.5549 39.2193 17.8651 40.3465C16.9822 40.1248 16.1324 39.8192 15.3242 39.4389ZM13.4045 34.5852C13.1105 33.4801 12.88 32.3159 12.7165 31.1087C13.921 31.2646 15.1974 31.3869 16.5266 31.4731C16.6127 32.8007 16.7349 34.0756 16.8906 35.2789C15.6835 35.1132 14.5144 34.8807 13.4045 34.5852ZM7.65363 30.1351C8.77941 30.4449 10.0573 30.7107 11.4515 30.9285C11.5912 32.0478 11.7862 33.1348 12.0338 34.1778C10.7668 33.7612 9.59745 33.2578 8.56115 32.6757C8.18085 31.8675 7.87534 31.0178 7.65363 30.1351ZM8.56123 20.7481C9.60205 20.1632 10.7715 19.6579 12.0387 19.2405C11.79 20.2859 11.5936 21.3753 11.4529 22.4954C10.0576 22.7134 8.77998 22.9798 7.65347 23.2899C7.87517 22.4067 8.18085 21.5566 8.56123 20.7481ZM17.8659 13.0775C17.5558 14.2041 17.2893 15.482 17.0713 16.8774C15.951 17.0179 14.8619 17.214 13.8167 17.4625C14.2343 16.1944 14.7398 15.025 15.3239 13.9854C16.1324 13.605 16.9826 13.2993 17.8659 13.0775ZM27.2519 13.9854C27.8375 15.0273 28.3427 16.1955 28.7597 17.4605C27.7146 17.2121 26.6257 17.0161 25.5046 16.8759C25.2866 15.481 25.0202 14.2038 24.7101 13.0776C25.5934 13.2994 26.4434 13.605 27.2519 13.9854ZM29.167 18.8304C29.462 19.9381 29.6938 21.1056 29.8583 22.3155C28.6541 22.1596 27.3779 22.0373 26.0491 21.9511C25.9629 20.6218 25.8406 19.3449 25.6846 18.1403C26.8937 18.3043 28.0601 18.5357 29.167 18.8304ZM23.3506 12.8071C23.6936 13.93 23.9892 15.2619 24.2306 16.742C23.6014 16.6881 22.9642 16.6509 22.3203 16.6318C21.9824 16.6211 21.6967 16.8891 21.6867 17.229C21.6767 17.5688 21.944 17.8525 22.2838 17.8625C23.0048 17.8838 23.7168 17.9281 24.417 17.9943C24.5828 19.2182 24.7138 20.5235 24.8064 21.8815C23.6623 21.8279 22.4857 21.8002 21.2878 21.8002C20.09 21.8002 18.9135 21.8281 17.7693 21.8818C17.8619 20.5241 17.9928 19.2193 18.1584 17.9957C18.6691 17.9471 19.1859 17.91 19.7075 17.8854C20.0472 17.8694 20.3094 17.581 20.2934 17.2414C20.2774 16.9018 19.9876 16.6381 19.6495 16.6555C19.2113 16.6762 18.7764 16.7055 18.3451 16.7427C18.5865 15.2623 18.8821 13.9302 19.2252 12.8071C19.8986 12.7077 20.5872 12.6554 21.2878 12.6554C21.9886 12.6554 22.6772 12.7077 23.3506 12.8071ZM24.9685 26.7121C24.9685 27.929 24.9382 29.132 24.8797 30.3039C23.7078 30.3624 22.5048 30.3928 21.2879 30.3928C20.071 30.3928 18.868 30.3624 17.6961 30.3039C17.6377 29.132 17.6073 27.929 17.6073 26.7121C17.6073 25.4953 17.6377 24.2922 17.6961 23.1203C18.868 23.0619 20.071 23.0315 21.2879 23.0315C22.5048 23.0315 23.7078 23.0619 24.8797 23.1203C24.9382 24.2922 24.9685 25.4953 24.9685 26.7121ZM12.433 27.4821C12.4252 27.1422 12.1415 26.8713 11.8035 26.8807C11.4636 26.8885 11.1944 27.1702 11.2021 27.5102C11.2186 28.2339 11.2575 28.9496 11.3178 29.6547C9.83771 29.4133 8.50582 29.1178 7.38292 28.7747C7.28343 28.1013 7.23123 27.4127 7.23123 26.7121C7.23123 26.0114 7.28352 25.3228 7.38292 24.6494C8.5059 24.3064 9.83795 24.0107 11.3183 23.7693C11.2879 24.1227 11.2625 24.4783 11.2431 24.8363C11.2248 25.1758 11.4851 25.4659 11.8245 25.4843C11.8359 25.4849 11.8471 25.4852 11.8584 25.4852C12.1832 25.4852 12.4548 25.2311 12.4725 24.9029C12.4966 24.459 12.53 24.0188 12.5715 23.5828C13.795 23.4171 15.0998 23.2862 16.4575 23.1936C16.4038 24.3378 16.3759 25.5142 16.3759 26.7121C16.3759 27.91 16.4039 29.0865 16.4575 30.2306C15.0996 30.1381 13.7945 30.0072 12.5708 29.8414C12.498 29.0682 12.4513 28.2807 12.433 27.4821ZM16.891 18.1419C16.7351 19.346 16.613 20.6224 16.5268 21.951C15.1983 22.0372 13.9223 22.1593 12.7183 22.3152C12.8832 21.1073 13.1149 19.9404 13.4096 18.8335C14.5165 18.5389 15.6826 18.3065 16.891 18.1419ZM17.7694 31.5426C18.9136 31.5962 20.0901 31.624 21.2879 31.624C22.4858 31.624 23.6622 31.596 24.8064 31.5424C24.7139 32.8995 24.5832 34.2038 24.4175 35.4269C23.3917 35.5256 22.3446 35.5766 21.2879 35.5766C20.2313 35.5766 19.1841 35.5256 18.1583 35.4269C17.9928 34.2039 17.8619 32.8996 17.7694 31.5426ZM35.3445 26.7121C35.3445 27.4128 35.2923 28.1014 35.1929 28.7748C34.0699 29.1178 32.7379 29.4134 31.2576 29.6549C31.3023 29.1347 31.3355 28.609 31.3564 28.0787C31.3697 27.739 31.1051 27.4528 30.7654 27.4394C30.4275 27.4258 30.1394 27.6907 30.1261 28.0304C30.1021 28.6413 30.061 29.2455 30.0044 29.8416C28.7808 30.0073 27.476 30.1381 26.1183 30.2307C26.172 29.0866 26.1998 27.9101 26.1998 26.7122C26.1998 25.5144 26.1719 24.3379 26.1182 23.1937C27.4759 23.2862 28.7807 23.4172 30.0042 23.5828C30.0626 24.1978 30.1044 24.8215 30.1281 25.4524C30.1405 25.7843 30.4136 26.045 30.7429 26.045C30.7507 26.045 30.7585 26.0449 30.7663 26.0446C31.1061 26.0318 31.3712 25.746 31.3585 25.4063C31.3378 24.8554 31.3039 24.3095 31.2576 23.7695C32.7379 24.0109 34.0699 24.3065 35.1929 24.6495C35.2923 25.3229 35.3445 26.0115 35.3445 26.7121ZM19.9179 7.94526C19.9179 7.53656 20.2503 7.20413 20.659 7.20413H21.9168C22.3255 7.20413 22.658 7.53665 22.658 7.94526V8.5956H19.9179V7.94526ZM16.7266 11.2881C16.7266 10.4824 17.3822 9.82685 18.1878 9.82685H24.3881C25.1938 9.82685 25.8494 10.4824 25.8494 11.2881V12.1193C24.4082 11.6678 22.8761 11.4242 21.288 11.4242C19.6999 11.4242 18.1678 11.6678 16.7266 12.1193V11.2881ZM13.4111 15.0754C13.0329 15.9408 12.6986 16.8646 12.4121 17.8359C11.4413 18.1222 10.5174 18.4559 9.65195 18.8344C10.6556 17.3565 11.9331 16.0791 13.4111 15.0754ZM9.64941 34.5863C10.5131 34.9629 11.437 35.2951 12.4068 35.5808C12.6936 36.5531 13.0286 37.4788 13.4094 38.3476C11.931 37.3434 10.6531 36.0651 9.64941 34.5863ZM19.2253 40.6171C18.8821 39.4934 18.5862 38.1605 18.3447 36.6793C19.3127 36.7638 20.2966 36.8079 21.2879 36.8079C22.2792 36.8079 23.2631 36.7639 24.231 36.6794C23.9895 38.1606 23.6937 39.4935 23.3505 40.6171C22.6771 40.7166 21.9885 40.7688 21.2878 40.7688C20.5873 40.7687 19.8988 40.7165 19.2253 40.6171ZM29.165 38.3487C29.5448 37.481 29.8796 36.5552 30.1664 35.5825C31.1377 35.2964 32.062 34.9629 32.9268 34.5858C31.9227 36.0653 30.6442 37.3441 29.165 38.3487Z" fill="white"/>
</g>
<defs>
<clipPath id="clip0">
<rect width="42" height="42" fill="white"/>
</clipPath>
</defs>
</svg>
