<svg width="45" height="45" viewBox="0 0 45 45" fill="none" xmlns="http://www.w3.org/2000/svg">
<path d="M22.5 45C10.0939 45 0 34.907 0 22.5C0 10.0939 10.0939 0 22.5 0C34.907 0 45 10.0939 45 22.5C45 34.907 34.907 45 22.5 45ZM22.5 1.73075C11.0484 1.73075 1.73075 11.0483 1.73075 22.5C1.73075 33.9517 11.0483 43.2692 22.5 43.2692C33.9517 43.2692 43.2692 33.9517 43.2692 22.5C43.2692 11.0483 33.9516 1.73075 22.5 1.73075Z" fill="white"/>
<path d="M20.9103 28.5085L13.1357 20.7338L14.3593 19.5102L20.9103 26.0611L32.7073 14.2642L33.9309 15.4878L20.9103 28.5085Z" fill="white"/>
</svg>
