<svg width="15" height="18" viewBox="0 0 15 18" fill="none" xmlns="http://www.w3.org/2000/svg">
<path fill-rule="evenodd" clip-rule="evenodd" d="M6.80204 5.94841C7.17438 5.36657 7.30789 4.75336 6.88679 4.21209C5.9418 2.67877 5.30628 1.73057 4.90764 1.27394C4.14979 0.405833 2.9031 0.523258 2.24675 1.2732C1.89421 1.676 1.77486 1.81433 1.41288 2.24067C-0.603385 4.57997 0.62624 9.52516 3.89503 13.3193C7.16308 17.1127 11.4273 18.5393 13.4478 16.195C13.7818 15.8216 14.0646 15.4935 14.2877 15.2201C14.9309 14.4318 15.0285 13.0499 14.2834 12.1522C13.9014 11.6919 13.1217 10.9905 11.7438 9.84761C11.3217 9.41002 10.8213 9.50486 10.3626 9.85386C10.1419 10.0217 9.98133 10.1916 9.67809 10.5435L9.12743 11.1824C9.0549 11.2666 8.07007 10.6947 7.11408 9.58502C6.15756 8.47477 5.6647 7.33271 5.73689 7.24901L6.28793 6.60968C6.38414 6.49801 6.43013 6.44394 6.48912 6.37205C6.61201 6.22228 6.71377 6.08636 6.80204 5.94841ZM10.1432 12.361L10.694 11.722C10.8608 11.5282 10.969 11.4091 11.057 11.327C12.2641 12.3322 12.9631 12.9642 13.2487 13.3083C13.4201 13.5148 13.3935 13.8917 13.2445 14.0744C13.0382 14.3272 12.7703 14.6381 12.4414 15.0059C11.1349 16.5215 7.69272 15.3699 4.91101 12.1411C2.12843 8.91129 1.13579 4.91919 2.43245 3.41476C2.79297 2.99018 2.90719 2.85779 3.25469 2.46074C3.38499 2.31187 3.7399 2.27844 3.8984 2.46C4.20531 2.81156 4.77462 3.65685 5.61211 5.00964C5.56875 5.07205 5.5146 5.14259 5.4487 5.2229C5.40034 5.28184 5.36004 5.32921 5.27195 5.43146L4.72145 6.07016C3.78495 7.15602 4.58251 9.00412 6.0981 10.7633C7.61265 12.5213 9.207 13.4472 10.1432 12.361Z" fill="#419A28"/>
</svg>
