<svg width="38" height="45" viewBox="0 0 38 45" fill="none" xmlns="http://www.w3.org/2000/svg">
<path d="M18.7914 9.69934C12.4223 9.69934 7.21875 14.9029 7.21875 21.272C7.21875 24.6022 8.67573 27.8076 11.1318 29.9722C12.9634 31.8039 12.7969 35.7169 12.7553 35.7585C12.7553 35.9667 12.7969 36.1332 12.9634 36.2997C13.0883 36.4246 13.2965 36.5078 13.463 36.5078H24.0781C24.2863 36.5078 24.4528 36.4246 24.5777 36.2997C24.7026 36.1748 24.7858 35.9667 24.7858 35.7585C24.7858 35.7169 24.5777 31.8039 26.4093 29.9722C26.4509 29.9306 26.4926 29.889 26.5342 29.8474C28.9486 27.6411 30.364 24.519 30.364 21.272C30.364 14.9029 25.1605 9.69934 18.7914 9.69934ZM25.4519 28.8899C25.4102 28.9315 25.327 29.0148 25.327 29.0564C23.7035 30.8048 23.4121 33.6771 23.3705 35.0509H14.1706C14.129 33.6771 13.8376 30.6799 12.0892 28.8899C9.88295 26.975 8.59248 24.1859 8.59248 21.2303C8.59248 15.6105 13.1299 11.0731 18.7497 11.0731C24.3695 11.0731 28.907 15.6105 28.907 21.2303C28.907 24.1859 27.6582 26.975 25.4519 28.8899Z" fill="white"/>
<path d="M18.7497 12.6549C18.375 12.6549 18.042 12.9879 18.042 13.3626C18.042 13.7372 18.375 14.0703 18.7497 14.0703C22.9541 14.0703 26.326 17.4838 26.326 21.6466C26.326 22.0212 26.659 22.3543 27.0337 22.3543C27.4083 22.3543 27.7413 22.0212 27.7413 21.6466C27.783 16.6928 23.745 12.6549 18.7497 12.6549Z" fill="white"/>
<path d="M23.3707 37.2988H14.1292C13.1718 37.2988 12.3809 38.0898 12.3809 39.0472C12.3809 40.0047 13.1718 40.7956 14.1292 40.7956H23.3291C24.3281 40.754 25.1191 40.0047 25.1191 39.0472C25.1191 38.0898 24.3281 37.2988 23.3707 37.2988ZM23.3707 39.3386H14.1292C13.9627 39.3386 13.7962 39.2137 13.7962 39.0056C13.7962 38.7974 13.9211 38.6726 14.1292 38.6726H23.3291C23.4956 38.6726 23.6621 38.7974 23.6621 39.0056C23.6621 39.2137 23.5372 39.3386 23.3707 39.3386Z" fill="white"/>
<path d="M21.9963 41.5033H15.5023C14.5448 41.5033 13.7539 42.2942 13.7539 43.2517C13.7539 44.2091 14.5448 45.0001 15.5023 45.0001H21.9963C22.9537 45.0001 23.7447 44.2091 23.7447 43.2517C23.7447 42.2526 22.9537 41.5033 21.9963 41.5033ZM21.9963 43.5431H15.5023C15.3358 43.5431 15.1693 43.4182 15.1693 43.21C15.1693 43.0019 15.2941 42.877 15.5023 42.877H21.9963C22.1628 42.877 22.3293 43.0019 22.3293 43.21C22.3293 43.4182 22.1628 43.5431 21.9963 43.5431Z" fill="white"/>
<path d="M18.7497 6.24422C19.166 6.24422 19.4574 5.91119 19.4574 5.53654V0.707678C19.4574 0.333025 19.1243 0 18.7497 0C18.375 0 18.042 0.333025 18.042 0.707678V5.53654C18.042 5.91119 18.375 6.24422 18.7497 6.24422Z" fill="white"/>
<path d="M30.5306 3.57996C30.1975 3.3302 29.7812 3.45508 29.5731 3.74648L26.9089 7.74277C26.6591 8.0758 26.7424 8.53371 27.0754 8.74185C27.2003 8.8251 27.3252 8.86673 27.4501 8.86673C27.6998 8.86673 27.908 8.74185 28.0329 8.53371L30.6971 4.53741C30.9468 4.24601 30.8636 3.7881 30.5306 3.57996Z" fill="white"/>
<path d="M10.2993 8.7003C10.4242 8.7003 10.5491 8.65867 10.674 8.57542C11.007 8.36728 11.0902 7.90937 10.8821 7.57634L8.30116 3.53841C8.09302 3.20539 7.63511 3.12213 7.30209 3.33027C6.96906 3.53841 6.8858 3.99632 7.09395 4.32935L9.67489 8.36728C9.8414 8.61705 10.0495 8.7003 10.2993 8.7003Z" fill="white"/>
<path d="M5.26216 13.1129L1.05772 10.8233C0.724691 10.6568 0.266781 10.7817 0.100268 11.1147C-0.107872 11.4477 0.0170121 11.9056 0.391665 12.0722L4.59611 14.3617C4.72099 14.4033 4.80425 14.445 4.92913 14.445C5.1789 14.445 5.42867 14.3201 5.55356 14.0703C5.72007 13.7373 5.59518 13.2794 5.26216 13.1129Z" fill="white"/>
<path d="M37.4404 11.1147C37.2739 10.7817 36.816 10.6568 36.483 10.8233L32.2369 13.1129C31.9039 13.2794 31.779 13.7373 31.9455 14.0703C32.0704 14.3201 32.3202 14.445 32.5699 14.445C32.6948 14.445 32.8197 14.4033 32.903 14.3617L37.149 12.0722C37.482 11.9056 37.6069 11.4477 37.4404 11.1147Z" fill="white"/>
</svg>
