<svg width="22" height="20" viewBox="0 0 22 20" fill="none" xmlns="http://www.w3.org/2000/svg">
<path d="M1.15054 10.1288C1.15054 10.2913 1.29245 10.4231 1.46747 10.4231H2.34182V17.2983C2.34182 18.4885 3.38469 19.4569 4.66649 19.4569H17.6182C18.9 19.4569 19.9429 18.4885 19.9429 17.2983V10.4231H20.8172C20.9923 10.4231 21.1342 10.2913 21.1342 10.1288V7.39854C21.1342 7.23602 20.9923 7.10425 20.8172 7.10425H4.65055L20.4991 4.14523C20.6707 4.11319 20.7818 3.95799 20.7473 3.79863L20.1677 1.12198C20.1512 1.04553 20.1026 0.978281 20.0325 0.935029C19.9627 0.891921 19.8771 0.876111 19.7945 0.891488L0.824327 4.4332C0.65271 4.46524 0.541597 4.62044 0.576108 4.7798L1.15054 7.43303V10.1288ZM8.99193 7.69283L7.16386 9.8345H4.88778L6.71601 7.69283H8.99193ZM11.7935 7.69283L9.96547 9.8345H7.68955L9.51763 7.69283H11.7935ZM14.5953 7.69283L12.7671 9.8345H10.4912L12.3192 7.69283H14.5953ZM17.3969 7.69283L15.5689 9.8345H13.2928L15.121 7.69283H17.3969ZM4.36209 9.8345C4.25445 9.8345 1.62823 9.8345 1.7844 9.8345V7.69283H6.19032L4.36209 9.8345ZM19.309 17.2983C19.309 18.1641 18.5506 18.8683 17.6182 18.8683H4.66649C3.73411 18.8683 2.97568 18.1641 2.97568 17.2983V10.4231H19.309V17.2983ZM20.5003 9.8345H19.626H16.0945L17.9226 7.69283H20.5003V9.8345ZM8.32612 3.63302L6.98837 6.06733L4.75725 6.48387L6.09492 4.0496L8.32612 3.63302ZM11.0728 3.12023L9.73505 5.55451L7.50393 5.97105L8.84167 3.53678L11.0728 3.12023ZM13.8194 2.60745L12.4818 5.04168L10.2506 5.45826L11.5883 3.02403L13.8194 2.60745ZM16.5661 2.09467L15.2286 4.52886L12.9973 4.94544L14.3349 2.51125L16.5661 2.09467ZM20.0634 3.62619L15.7441 4.43262L17.0816 1.99842L19.6088 1.52663L20.0634 3.62619ZM5.57944 4.14581L4.24177 6.58011L1.71461 7.05194L1.25995 4.95223L5.57944 4.14581Z" fill="#419A28"/>
<path d="M11.1427 17.8783C13.1496 17.8783 14.7824 16.3622 14.7824 14.4984C14.7824 12.6348 13.1496 11.1187 11.1427 11.1187C9.13571 11.1187 7.50293 12.6348 7.50293 14.4984C7.50293 16.3622 9.13571 17.8783 11.1427 17.8783ZM11.1427 11.4129C12.9749 11.4129 14.4655 12.797 14.4655 14.4984C14.4655 16.1998 12.9749 17.584 11.1427 17.584C9.31042 17.584 7.81986 16.1998 7.81986 14.4984C7.81986 12.797 9.31042 11.4129 11.1427 11.4129Z" fill="#419A28"/>
<path d="M9.56302 16.4392C9.92173 16.4392 10.2134 16.1684 10.2134 15.8353C10.2134 15.8304 10.212 15.8259 10.2119 15.8211C10.212 15.8186 10.2134 15.8165 10.2134 15.814V14.2383L12.5729 13.6953V14.6122C12.499 14.585 12.4188 14.5689 12.3345 14.5689C11.9757 14.5689 11.684 14.8397 11.684 15.1728C11.684 15.5059 11.9757 15.7768 12.3345 15.7768C12.6906 15.7768 12.9801 15.5096 12.9841 15.1797C12.9841 15.1785 12.9849 15.1775 12.9849 15.1763V12.7486C12.9849 12.6899 12.9558 12.6343 12.9058 12.5981C12.8558 12.5616 12.7905 12.5489 12.7294 12.563L9.95794 13.2009C9.86602 13.222 9.80149 13.2986 9.80149 13.3865V15.2748C9.72752 15.2475 9.64736 15.2315 9.56302 15.2315C9.2043 15.2315 8.9126 15.5023 8.9126 15.8353C8.9126 16.1684 9.2043 16.4392 9.56302 16.4392ZM12.3345 15.3943C12.2029 15.3943 12.096 15.295 12.096 15.1728C12.096 15.0507 12.2029 14.9514 12.3345 14.9514C12.466 14.9514 12.5729 15.0507 12.5729 15.1728C12.5729 15.295 12.466 15.3943 12.3345 15.3943ZM12.5729 12.9931V13.3012L10.2134 13.8442V13.5363L12.5729 12.9931ZM9.56302 15.614C9.69456 15.614 9.80149 15.7133 9.80149 15.8353C9.80149 15.9574 9.69456 16.0567 9.56302 16.0567C9.43148 16.0567 9.32455 15.9574 9.32455 15.8353C9.32454 15.7133 9.43148 15.614 9.56302 15.614Z" fill="#419A28"/>
</svg>
