<svg width="19" height="20" viewBox="0 0 19 20" fill="none" xmlns="http://www.w3.org/2000/svg">
<path d="M0.711914 16.1496V11.9541V8.9187C0.711914 6.70995 1.68862 4.70457 3.25656 3.24863C4.82474 1.79269 6.98391 0.885742 9.36256 0.885742C11.748 0.885742 13.9074 1.79269 15.4753 3.24885C17.0432 4.70479 18.0199 6.70995 18.0199 8.91891V11.9543V16.1498C18.0199 16.4707 17.8737 16.7669 17.6477 16.9767V16.9827C17.4152 17.1926 17.1028 17.3219 16.7508 17.3219H16.2858V17.8897C16.2858 18.2845 16.1065 18.6423 15.8273 18.9015C15.5483 19.1669 15.1628 19.3273 14.7376 19.3273H12.04C11.9802 19.4508 11.894 19.568 11.7875 19.6604C11.575 19.8579 11.2825 19.9812 10.9572 19.9812H9.61505C9.28956 19.9812 8.99731 19.8579 8.78458 19.6604C8.57185 19.4631 8.43909 19.1915 8.43909 18.8892C8.43909 18.5872 8.57208 18.3156 8.78458 18.1181C8.99731 17.9208 9.28956 17.7975 9.61505 17.7975H10.9572C11.2825 17.7975 11.575 17.9208 11.7875 18.1181C11.894 18.217 11.9802 18.3279 12.04 18.4575H14.7378C14.9038 18.4575 15.0566 18.3897 15.1696 18.291C15.2758 18.1861 15.3488 18.044 15.3488 17.8901V17.3223H14.8771C14.5316 17.3223 14.2129 17.1928 13.9869 16.9769H13.9801C13.7541 16.7671 13.6081 16.4709 13.6081 16.1501V11.9541C13.6081 11.6335 13.7541 11.3373 13.9801 11.1274H13.9869C14.2129 10.9116 14.5316 10.7818 14.8771 10.7818H16.7508C16.8638 10.7818 16.9767 10.7943 17.0832 10.8189V8.9187C17.0832 6.95045 16.2128 5.16139 14.8176 3.85938C13.4156 2.56384 11.489 1.75555 9.36256 1.75555C7.24314 1.75555 5.31646 2.56384 3.91429 3.85938C2.51909 5.16118 1.64863 6.95045 1.64863 8.9187V10.8189C1.75488 10.7943 1.86788 10.7818 1.98087 10.7818H3.85454C4.20002 10.7818 4.51877 10.9116 4.74476 11.1274H4.7515C4.97749 11.3373 5.11698 11.6335 5.11698 11.9541V16.1496C5.11698 16.4704 4.97749 16.7666 4.7515 16.9765L4.74476 16.9825C4.51877 17.1924 4.20002 17.3217 3.85454 17.3217H1.98087C1.62864 17.3217 1.3164 17.1922 1.0839 16.9825V16.9765C0.85792 16.7666 0.711914 16.4704 0.711914 16.1496ZM10.9572 18.6669H9.61505C9.54879 18.6669 9.4888 18.6915 9.44905 18.7347C9.40255 18.7716 9.37604 18.8273 9.37604 18.8888C9.37604 18.9506 9.40255 19.006 9.44905 19.0492V19.0432C9.4888 19.0863 9.54879 19.111 9.61505 19.111H10.9572C11.0235 19.111 11.0835 19.0863 11.1297 19.0492V19.0432C11.1697 19.006 11.1962 18.9506 11.1962 18.8888C11.1962 18.8273 11.1697 18.7716 11.1297 18.7347C11.0835 18.6915 11.0235 18.6669 10.9572 18.6669ZM17.0832 16.1496V11.9541C17.0765 11.8679 17.0432 11.7937 16.9835 11.7382C16.9235 11.6827 16.8438 11.6518 16.7508 11.6518H14.8771C14.7841 11.6518 14.7043 11.6829 14.6446 11.7382C14.5846 11.7937 14.5516 11.874 14.5516 11.9541V16.1496C14.5516 16.236 14.5848 16.31 14.6446 16.3655C14.7043 16.4212 14.7841 16.4519 14.8771 16.4519H16.7508C16.8438 16.4519 16.9235 16.421 16.9835 16.3655C17.0432 16.31 17.0832 16.2299 17.0832 16.1496ZM1.64863 11.9541V16.1496C1.64863 16.2299 1.68839 16.31 1.74163 16.3655H1.74837C1.80812 16.4212 1.88787 16.4519 1.98087 16.4519H3.85454C3.94754 16.4519 4.02728 16.421 4.08703 16.3655C4.14678 16.31 4.18003 16.2299 4.18003 16.1496V11.9541C4.18003 11.874 4.14678 11.7937 4.08703 11.7382C4.02728 11.6827 3.94754 11.6518 3.85454 11.6518H1.98087C1.88787 11.6518 1.80812 11.6829 1.74837 11.7382C1.68862 11.7937 1.64863 11.8679 1.64863 11.9541Z" fill="#419A28"/>
</svg>
