<svg width="42" height="42" viewBox="0 0 42 42" fill="none" xmlns="http://www.w3.org/2000/svg">
<g clip-path="url(#clip0)">
<path d="M38.1024 14.3958C38.1024 9.78521 36.4799 5.29014 33.5337 1.73851C32.8262 0.885941 31.5571 0.767685 30.7045 1.47493C29.8519 2.18225 29.7335 3.45142 30.4409 4.30415C30.5766 4.46768 30.7083 4.63407 30.8369 4.80252L29.8127 5.82665C27.1869 2.29354 22.9826 0 18.2524 0C14.61 0 11.1319 1.36848 8.45863 3.85318C5.79974 6.32452 4.18056 9.6672 3.89935 13.2653C3.87295 13.604 4.12603 13.9 4.46472 13.9265C4.80268 13.9532 5.09939 13.6999 5.12588 13.3612C5.15196 13.0273 5.19116 12.697 5.242 12.3706H8.4465C9.90945 12.3706 11.0997 13.5608 11.0997 15.0239V16.4009C11.0997 18.5422 12.8423 20.2842 14.9841 20.2842C16.4222 20.2842 17.6372 21.4992 17.6372 22.9375V27.5473C15.2192 27.4358 12.9592 26.6694 11.0414 25.414C10.997 25.3747 10.9483 25.3429 10.8968 25.3187C7.80478 23.236 5.63195 19.8681 5.17459 15.9234C5.13539 15.5859 4.8286 15.3447 4.49285 15.3833C4.15538 15.4224 3.91362 15.7277 3.95266 16.0651C4.35598 19.5443 6.02355 22.757 8.64816 25.1116C8.98128 25.4104 9.32662 25.6923 9.68278 25.9569L8.65898 26.9807C8.48914 26.851 8.32143 26.7181 8.1566 26.5812C7.74368 26.2383 7.22227 26.0766 6.68757 26.1265C6.15312 26.1761 5.67009 26.4308 5.32729 26.8438C4.98441 27.2567 4.82302 27.7784 4.87255 28.3128C4.92209 28.8473 5.17689 29.3303 5.5898 29.6731C8.85958 32.3875 12.9297 33.9783 17.154 34.2144V37.4897H13.8528C12.8127 37.4897 11.8347 37.895 11.099 38.6307C10.3628 39.3658 9.95743 40.344 9.95743 41.3851C9.95743 41.7248 10.2327 42.0002 10.5725 42.0002H19.3703C19.7101 42.0002 19.9854 41.7248 19.9854 41.3851C19.9854 41.0454 19.7101 40.77 19.3703 40.77H11.2584C11.3705 40.2931 11.6132 39.8556 11.9685 39.5008C12.4721 38.9972 13.1413 38.7198 13.8528 38.7198H24.514C25.772 38.7198 26.8293 39.5959 27.1077 40.77H22.0513C21.7115 40.77 21.4362 41.0454 21.4362 41.3851C21.4362 41.7248 21.7115 42.0002 22.0513 42.0002H27.7943C28.1341 42.0002 28.4094 41.7248 28.4094 41.3851C28.4094 39.2372 26.6619 37.4897 24.514 37.4897H21.2135V34.0252C30.7593 32.591 38.1024 24.3351 38.1024 14.3958ZM14.984 19.0541C13.5204 19.0541 12.3298 17.8639 12.3298 16.4009V15.0239C12.3298 12.8826 10.5877 11.1405 8.44642 11.1405H5.49508C6.96041 5.43407 12.1868 1.23013 18.2524 1.23013C20.0504 1.23013 21.7651 1.59286 23.328 2.24827V4.2538C23.328 5.34681 22.4388 6.23595 21.3458 6.23595C21.3267 6.23595 21.3074 6.23685 21.2884 6.23866C19.404 6.4153 18.314 7.50487 18.1362 9.3896C18.1344 9.40879 18.1335 9.42806 18.1335 9.44742V10.1158C18.1335 10.4555 18.4088 10.7309 18.7485 10.7309C19.0883 10.7309 19.3636 10.4555 19.3636 10.1158V9.47727C19.491 8.21368 20.1132 7.59205 21.3771 7.46592C23.134 7.44919 24.5581 6.01469 24.5581 4.2538V2.84128C26.4351 3.86967 28.0351 5.34222 29.217 7.1164C29.2171 7.11664 29.2173 7.11689 29.2174 7.11714C30.607 9.20352 31.4182 11.7066 31.4182 14.3959C31.4182 16.0353 31.1161 17.6052 30.5662 19.054H27.4365C26.6643 18.9737 26.2983 18.6073 26.2185 17.835C26.2012 16.5167 25.1237 15.4497 23.8019 15.4497H21.3458C20.2528 15.4497 19.3636 14.5605 19.3636 13.4676V12.7959C19.3636 12.4562 19.0883 12.1809 18.7485 12.1809C18.4088 12.1809 18.1335 12.4562 18.1335 12.7959V13.4676C18.1335 15.2388 19.5745 16.6799 21.3458 16.6799H23.8019C24.4563 16.6799 24.9887 17.2126 24.9887 17.8673C24.9887 17.8865 24.9896 17.9058 24.9914 17.925C25.122 19.3139 25.9592 20.1508 27.3486 20.2814C27.3677 20.2832 27.387 20.2841 27.4062 20.2841H30.0256C27.9472 24.4228 23.7506 27.3212 18.8672 27.5468V22.9375C18.8672 21.9109 18.4603 20.9386 17.7216 20.1998C16.9829 19.4609 16.0106 19.0541 14.984 19.0541ZM10.72 26.659C12.9665 28.0423 15.5597 28.7876 18.2315 28.7914C18.2384 28.7917 18.2452 28.7925 18.2522 28.7925C18.2593 28.7925 18.2662 28.7917 18.2734 28.7914C24.2415 28.7829 29.3694 25.1238 31.5406 19.9321C31.5504 19.9116 31.559 19.8906 31.5664 19.8689C32.263 18.1807 32.6483 16.3325 32.6483 14.3958C32.6483 11.6364 31.8672 9.05623 30.5155 6.86365L31.5545 5.82468C33.1951 8.36859 34.084 11.3505 34.084 14.3958C34.084 23.1255 26.9818 30.2276 18.2521 30.2276C15.2066 30.2276 12.2249 29.3387 9.68098 27.6981L10.72 26.659ZM6.09719 28.199C6.078 27.9917 6.14057 27.7895 6.27351 27.6293C6.40645 27.4693 6.59375 27.3704 6.80099 27.3513C6.82559 27.349 6.85003 27.3478 6.87447 27.3478C7.05563 27.3478 7.22957 27.4104 7.3707 27.5275C7.69817 27.7994 8.03547 28.0572 8.38073 28.3026C8.38105 28.3027 8.3813 28.303 8.38163 28.3032C11.2551 30.3447 14.7138 31.4578 18.2522 31.4578C27.6603 31.4578 35.3142 23.8038 35.3142 14.3958C35.3142 10.8598 34.2026 7.40318 32.1636 4.53074C32.1566 4.51983 32.1488 4.50934 32.141 4.49876C31.9022 4.164 31.6515 3.8367 31.3877 3.51875C31.1134 3.18809 31.1593 2.69596 31.4899 2.42172C31.8207 2.1474 32.3126 2.19333 32.5869 2.5239C35.3504 5.85527 36.8724 10.0714 36.8724 14.3958C36.8724 24.663 28.5195 33.0159 18.2522 33.0159C13.9254 33.0159 9.70755 31.4925 6.37545 28.7264C6.21528 28.5935 6.11654 28.4061 6.09719 28.199ZM19.9832 37.4893H18.384V34.2443C18.9224 34.2408 19.4556 34.2155 19.9832 34.1697V37.4893Z" fill="white"/>
</g>
<defs>
<clipPath id="clip0">
<rect width="42" height="42" fill="white"/>
</clipPath>
</defs>
</svg>
