<svg width="43" height="43" viewBox="0 0 43 43" fill="none" xmlns="http://www.w3.org/2000/svg">
<path d="M21.1225 0C16.9448 0 12.861 1.23881 9.38745 3.55977C5.91388 5.88074 3.20657 9.17961 1.60786 13.0392C0.00915223 16.8989 -0.409143 21.1459 0.405871 25.2432C1.22089 29.3406 3.2326 33.1042 6.18663 36.0583C9.14066 39.0123 12.9043 41.024 17.0017 41.839C21.099 42.654 25.346 42.2357 29.2057 40.637C33.0653 39.0383 36.3642 36.331 38.6851 32.8574C41.0061 29.3839 42.2449 25.3001 42.2449 21.1224C42.2386 15.5224 40.0111 10.1535 36.0513 6.19362C32.0914 2.23376 26.7225 0.00633599 21.1225 0ZM21.1225 40.8367C17.2233 40.8367 13.4118 39.6805 10.1698 37.5143C6.92779 35.348 4.40096 32.2691 2.90883 28.6668C1.41671 25.0645 1.0263 21.1006 1.78698 17.2764C2.54766 13.4522 4.42526 9.93943 7.18235 7.18234C9.93944 4.42525 13.4522 2.54765 17.2764 1.78697C21.1006 1.02629 25.0645 1.4167 28.6668 2.90882C32.2691 4.40095 35.348 6.92778 37.5143 10.1698C39.6805 13.4118 40.8367 17.2233 40.8367 21.1224C40.8308 26.3492 38.7518 31.3601 35.056 35.056C31.3601 38.7518 26.3492 40.8308 21.1225 40.8367Z" fill="white"/>
<path d="M2.94383 18.9575C2.89785 19.3439 3.18866 19.6836 3.57652 19.7144C3.96401 19.7451 4.30156 19.4557 4.34864 19.0698C4.65801 16.5344 5.54028 14.1023 6.92849 11.9582C7.13944 11.6323 7.06629 11.1945 6.74993 10.9696C6.43284 10.7442 5.99177 10.8182 5.77928 11.1441C4.24591 13.4958 3.27555 16.1698 2.94383 18.9575Z" fill="white"/>
<path d="M30.9795 7.27234C30.9802 6.52102 30.7033 5.79593 30.2021 5.23624C29.7009 4.67655 29.0106 4.32172 28.2637 4.23984C27.5169 4.15796 26.7661 4.35481 26.1555 4.79261C25.5449 5.23041 25.1176 5.87829 24.9554 6.61191C24.8371 7.14702 24.7442 7.68705 24.6428 8.22637C23.496 7.91131 22.3117 7.7538 21.1224 7.75816V4.22437H19.7142V12.6734C19.7144 13.2238 19.5854 13.7666 19.3375 14.2581C19.0897 14.7496 18.7298 15.176 18.2871 15.5031C17.848 15.8388 17.4973 16.2765 17.2654 16.7783C17.0336 17.28 16.9275 17.8308 16.9564 18.3827L17.602 34.5252C17.6087 34.7047 17.5789 34.8837 17.5144 35.0513C17.4499 35.2189 17.352 35.3717 17.2267 35.5004C16.9703 35.7529 16.6248 35.8944 16.2649 35.8944C15.9051 35.8944 15.5596 35.7529 15.3032 35.5004C15.1778 35.3713 15.08 35.2181 15.0155 35.0502C14.951 34.8822 14.9212 34.7029 14.9279 34.5231L15.4313 18.3764C15.4598 17.8249 15.3534 17.2748 15.1214 16.7736C14.8894 16.2725 14.5388 15.8354 14.0999 15.5002C13.6579 15.1732 13.2986 14.7471 13.0509 14.2562C12.8032 13.7653 12.6739 13.2232 12.6734 12.6734V4.22437H11.2653V12.1002C9.96761 13.5109 8.98935 15.1847 8.39717 17.0077C7.80499 18.8306 7.61281 20.7598 7.83373 22.6638C8.05465 24.5677 8.68348 26.4017 9.67735 28.0406C10.6712 29.6795 12.0068 31.0849 13.593 32.1609L13.5225 34.4773C13.5083 34.8467 13.5689 35.2152 13.7005 35.5606C13.8321 35.9061 14.0321 36.2214 14.2885 36.4876C14.545 36.7539 14.8525 36.9657 15.1927 37.1102C15.533 37.2547 15.8989 37.3291 16.2685 37.3288C16.6382 37.3285 17.004 37.2536 17.344 37.1085C17.684 36.9635 17.9912 36.7512 18.2473 36.4846C18.5033 36.2179 18.7028 35.9023 18.8339 35.5567C18.965 35.211 19.0249 34.8425 19.0102 34.4731L19.0045 34.326C21.2005 34.687 23.4522 34.4839 25.5483 33.7359L25.5011 34.3837C25.4655 34.7567 25.5067 35.133 25.6221 35.4895C25.7374 35.846 25.9245 36.1751 26.1718 36.4566C26.4191 36.7381 26.7214 36.966 27.0601 37.1262C27.3988 37.2865 27.7667 37.3758 28.1412 37.3885C28.5156 37.4013 28.8887 37.3372 29.2375 37.2004C29.5864 37.0635 29.9035 36.8568 30.1693 36.5928C30.4352 36.3288 30.6443 36.0131 30.7836 35.6653C30.9229 35.3175 30.9896 34.9448 30.9795 34.5703V30.1416C33.2433 27.6824 34.4999 24.462 34.4999 21.1195C34.4999 17.777 33.2433 14.5566 30.9795 12.0974V7.27234ZM13.6458 30.4549C11.2336 28.5332 9.66001 25.7514 9.25551 22.6939C8.851 19.6365 9.64706 16.5412 11.4765 14.0583C11.7681 15.0929 12.3973 16.0003 13.2641 16.6359C13.5187 16.8361 13.7209 17.0951 13.8532 17.3907C13.9855 17.6863 14.0441 18.0095 14.0239 18.3328L13.6458 30.4549ZM25.6602 32.1813C23.5417 33.0811 21.201 33.3211 18.944 32.8699L18.3631 18.3306C18.3431 18.0078 18.4018 17.685 18.534 17.3898C18.6661 17.0947 18.868 16.836 19.1221 16.6359C19.5076 16.3521 19.8494 16.0134 20.1367 15.6305C20.7748 14.7765 21.1205 13.7394 21.1224 12.6734V9.16491C22.2357 9.15992 23.344 9.31476 24.4133 9.62468C24.1023 11.6941 23.9437 13.7836 23.9387 15.8762V23.2346C23.9387 23.4213 24.0129 23.6004 24.1449 23.7324C24.277 23.8645 24.4561 23.9387 24.6428 23.9387H26.2622L25.6602 32.1813ZM29.5714 34.5703C29.5714 34.9251 29.4304 35.2653 29.1796 35.5162C28.9287 35.7671 28.5884 35.908 28.2336 35.908C28.0509 35.9077 27.8702 35.87 27.7026 35.7972C27.535 35.7243 27.3841 35.618 27.2592 35.4846C27.1343 35.3512 27.0381 35.1936 26.9765 35.0216C26.9148 34.8496 26.8891 34.6667 26.9008 34.4844L27.7211 23.2895C27.7281 23.1928 27.7152 23.0957 27.683 23.0042C27.6508 22.9128 27.6 22.829 27.5339 22.7581C27.4678 22.6871 27.3878 22.6306 27.2988 22.5921C27.2099 22.5535 27.1139 22.5338 27.017 22.534H25.3469V15.8762C25.3481 12.8627 25.6787 9.85844 26.3326 6.91678C26.4219 6.52427 26.6524 6.17829 26.9802 5.94475C27.3081 5.71122 27.7104 5.60643 28.1105 5.65036C28.5107 5.69429 28.8807 5.88386 29.1501 6.18296C29.4194 6.48207 29.5694 6.86981 29.5714 7.27234V34.5703ZM33.0918 21.1223C33.0932 23.5409 32.3562 25.9022 30.9795 27.8907V14.354C32.3562 16.3425 33.0932 18.7038 33.0918 21.1223Z" fill="white"/>
<path d="M15.4898 4.22461H14.0816V11.9695H15.4898V4.22461Z" fill="white"/>
<path d="M18.3061 4.22461H16.8979V11.9695H18.3061V4.22461Z" fill="white"/>
</svg>
