<svg width="21" height="25" viewBox="0 0 21 25" fill="none" xmlns="http://www.w3.org/2000/svg">
<path d="M14.0889 4.37231H2.46697C1.37645 4.37231 0.490723 5.25804 0.490723 6.34856V23.0238C0.490723 24.1143 1.37645 25 2.46697 25H14.0889C15.1794 25 16.0652 24.1143 16.0652 23.0238V6.34856C16.06 5.25804 15.1743 4.37231 14.0889 4.37231ZM14.6777 23.0186C14.6777 23.3463 14.4115 23.6125 14.0838 23.6125H2.46185C2.13418 23.6125 1.86795 23.3463 1.86795 23.0186V6.34856C1.86795 6.02089 2.13418 5.75466 2.46185 5.75466H14.0838C14.4115 5.75466 14.6777 6.02089 14.6777 6.34856V23.0186Z" fill="#419A28"/>
<path d="M18.5328 0H6.91081C5.8203 0 4.93457 0.885726 4.93457 1.97624C4.93457 2.36023 5.24176 2.66742 5.62574 2.66742C6.00973 2.66742 6.31692 2.36023 6.31692 1.97624C6.31692 1.64858 6.58315 1.38235 6.91081 1.38235H18.5328C18.8604 1.38235 19.1267 1.64858 19.1267 1.97624V18.6514C19.1267 18.9791 18.8604 19.2453 18.5328 19.2453C18.1488 19.2453 17.8416 19.5525 17.8416 19.9365C17.8416 20.3205 18.1488 20.6277 18.5328 20.6277C19.6233 20.6277 20.509 19.742 20.509 18.6514V1.97624C20.509 0.885726 19.6233 0 18.5328 0Z" fill="#419A28"/>
</svg>
