<svg width="22" height="20" viewBox="0 0 22 20" fill="none" xmlns="http://www.w3.org/2000/svg">
<path d="M20.8402 13.5543C20.7622 13.5543 20.6875 13.5255 20.6324 13.4744C20.5773 13.4232 20.5464 13.3538 20.5464 13.2815V12.4713C20.5464 12.3989 20.5773 12.3295 20.6324 12.2784C20.6875 12.2272 20.7622 12.1985 20.8402 12.1985C20.9181 12.1985 20.9928 12.2272 21.0479 12.2784C21.103 12.3295 21.1339 12.3989 21.1339 12.4713V13.2815C21.1339 13.3538 21.103 13.4232 21.0479 13.4744C20.9928 13.5255 20.9181 13.5543 20.8402 13.5543Z" fill="#419A28"/>
<path d="M19.6653 19.9812H2.03871C1.64928 19.9808 1.27593 19.8369 1.00056 19.5812C0.725197 19.3255 0.570291 18.9789 0.569824 18.6172V2.2497C0.570291 1.88809 0.725197 1.54141 1.00056 1.28572C1.27593 1.03002 1.64928 0.886175 2.03871 0.885742H19.6653C20.0547 0.886175 20.4281 1.03002 20.7034 1.28572C20.9788 1.54141 21.1337 1.88809 21.1342 2.2497V7.85831C21.1342 7.93066 21.1032 8.00005 21.0481 8.05121C20.993 8.10236 20.9183 8.1311 20.8404 8.1311C20.7625 8.1311 20.6878 8.10236 20.6327 8.05121C20.5776 8.00005 20.5466 7.93066 20.5466 7.85831V2.2497C20.5466 2.03266 20.4538 1.8245 20.2885 1.67102C20.1232 1.51755 19.899 1.43133 19.6653 1.43133H2.03871C1.80496 1.43133 1.58079 1.51755 1.41551 1.67102C1.25023 1.8245 1.15738 2.03266 1.15738 2.2497V18.6172C1.15738 18.8343 1.25023 19.0424 1.41551 19.1959C1.58079 19.3494 1.80496 19.4356 2.03871 19.4356H19.6653C19.899 19.4356 20.1232 19.3494 20.2885 19.1959C20.4538 19.0424 20.5466 18.8343 20.5466 18.6172V15.191C20.5466 15.1186 20.5776 15.0492 20.6327 14.9981C20.6878 14.9469 20.7625 14.9182 20.8404 14.9182C20.9183 14.9182 20.993 14.9469 21.0481 14.9981C21.1032 15.0492 21.1342 15.1186 21.1342 15.191V18.6172C21.1337 18.9789 20.9788 19.3255 20.7034 19.5812C20.4281 19.8369 20.0547 19.9808 19.6653 19.9812Z" fill="#419A28"/>
<path d="M20.8402 10.8348C20.7622 10.8348 20.6875 10.806 20.6324 10.7549C20.5773 10.7037 20.5464 10.6343 20.5464 10.562V9.76815C20.5464 9.6958 20.5773 9.62642 20.6324 9.57526C20.6875 9.5241 20.7622 9.49536 20.8402 9.49536C20.9181 9.49536 20.9928 9.5241 21.0479 9.57526C21.103 9.62642 21.1339 9.6958 21.1339 9.76815V10.562C21.1339 10.6343 21.103 10.7037 21.0479 10.7549C20.9928 10.806 20.9181 10.8348 20.8402 10.8348Z" fill="#419A28"/>
<path d="M18.3435 6.45635C18.2656 6.45635 18.1909 6.42761 18.1358 6.37645C18.0807 6.32529 18.0498 6.25591 18.0498 6.18356V4.43223C18.0498 4.28754 17.9879 4.14876 17.8777 4.04645C17.7675 3.94413 17.618 3.88665 17.4622 3.88665C17.3064 3.88665 17.1569 3.94413 17.0468 4.04645C16.9366 4.14876 16.8747 4.28754 16.8747 4.43223V6.18356C16.8747 6.25591 16.8437 6.32529 16.7886 6.37645C16.7335 6.42761 16.6588 6.45635 16.5809 6.45635C16.503 6.45635 16.4282 6.42761 16.3732 6.37645C16.3181 6.32529 16.2871 6.25591 16.2871 6.18356V4.43223C16.2871 4.14284 16.4109 3.86529 16.6313 3.66066C16.8517 3.45603 17.1506 3.34106 17.4622 3.34106C17.7739 3.34106 18.0728 3.45603 18.2931 3.66066C18.5135 3.86529 18.6373 4.14284 18.6373 4.43223V6.18356C18.6373 6.25591 18.6064 6.32529 18.5513 6.37645C18.4962 6.42761 18.4215 6.45635 18.3435 6.45635Z" fill="#419A28"/>
<path d="M17.4622 17.5262C17.1506 17.5262 16.8517 17.4112 16.6313 17.2066C16.4109 17.0019 16.2871 16.7244 16.2871 16.435V7.91024C16.2871 7.83789 16.3181 7.76851 16.3732 7.71735C16.4282 7.66619 16.503 7.63745 16.5809 7.63745C16.6588 7.63745 16.7335 7.66619 16.7886 7.71735C16.8437 7.76851 16.8747 7.83789 16.8747 7.91024V16.435C16.8747 16.5797 16.9366 16.7185 17.0468 16.8208C17.1569 16.9231 17.3064 16.9806 17.4622 16.9806C17.618 16.9806 17.7675 16.9231 17.8777 16.8208C17.9879 16.7185 18.0498 16.5797 18.0498 16.435V7.91024C18.0498 7.83789 18.0807 7.76851 18.1358 7.71735C18.1909 7.66619 18.2656 7.63745 18.3435 7.63745C18.4215 7.63745 18.4962 7.66619 18.5513 7.71735C18.6064 7.76851 18.6373 7.83789 18.6373 7.91024V16.435C18.6373 16.7244 18.5135 17.0019 18.2931 17.2066C18.0728 17.4112 17.7739 17.5262 17.4622 17.5262Z" fill="#419A28"/>
<path d="M13.9368 13.2298C13.8589 13.2298 13.7842 13.201 13.7291 13.1499C13.674 13.0987 13.643 13.0293 13.643 12.957V4.43223C13.643 4.28754 13.5811 4.14876 13.4709 4.04645C13.3608 3.94413 13.2113 3.88665 13.0555 3.88665C12.8996 3.88665 12.7502 3.94413 12.64 4.04645C12.5298 4.14876 12.4679 4.28754 12.4679 4.43223V12.957C12.4679 13.0293 12.437 13.0987 12.3819 13.1499C12.3268 13.201 12.2521 13.2298 12.1741 13.2298C12.0962 13.2298 12.0215 13.201 11.9664 13.1499C11.9113 13.0987 11.8804 13.0293 11.8804 12.957V4.43223C11.8804 4.14284 12.0042 3.86529 12.2246 3.66066C12.4449 3.45603 12.7438 3.34106 13.0555 3.34106C13.3671 3.34106 13.666 3.45603 13.8864 3.66066C14.1068 3.86529 14.2306 4.14284 14.2306 4.43223V12.957C14.2306 13.0293 14.1996 13.0987 14.1445 13.1499C14.0894 13.201 14.0147 13.2298 13.9368 13.2298Z" fill="#419A28"/>
<path d="M13.0555 17.5259C12.7438 17.5259 12.4449 17.411 12.2246 17.2063C12.0042 17.0017 11.8804 16.7242 11.8804 16.4348V14.6834C11.8804 14.6111 11.9113 14.5417 11.9664 14.4905C12.0215 14.4394 12.0962 14.4106 12.1741 14.4106C12.2521 14.4106 12.3268 14.4394 12.3819 14.4905C12.437 14.5417 12.4679 14.6111 12.4679 14.6834V16.4348C12.4679 16.5795 12.5298 16.7182 12.64 16.8205C12.7502 16.9229 12.8996 16.9803 13.0555 16.9803C13.2113 16.9803 13.3608 16.9229 13.4709 16.8205C13.5811 16.7182 13.643 16.5795 13.643 16.4348V14.6834C13.643 14.6111 13.674 14.5417 13.7291 14.4905C13.7842 14.4394 13.8589 14.4106 13.9368 14.4106C14.0147 14.4106 14.0894 14.4394 14.1445 14.4905C14.1996 14.5417 14.2306 14.6111 14.2306 14.6834V16.4348C14.2306 16.7242 14.1068 17.0017 13.8864 17.2063C13.666 17.411 13.3671 17.5259 13.0555 17.5259Z" fill="#419A28"/>
<path d="M9.52958 6.45635C9.45166 6.45635 9.37694 6.42761 9.32185 6.37645C9.26675 6.32529 9.2358 6.25591 9.2358 6.18356V4.43223C9.2358 4.28754 9.1739 4.14876 9.06371 4.04645C8.95352 3.94413 8.80408 3.88665 8.64825 3.88665C8.49242 3.88665 8.34297 3.94413 8.23279 4.04645C8.1226 4.14876 8.0607 4.28754 8.0607 4.43223V6.18356C8.0607 6.25591 8.02975 6.32529 7.97465 6.37645C7.91956 6.42761 7.84483 6.45635 7.76692 6.45635C7.68901 6.45635 7.61428 6.42761 7.55919 6.37645C7.5041 6.32529 7.47314 6.25591 7.47314 6.18356V4.43223C7.47314 4.14284 7.59695 3.86529 7.81732 3.66066C8.0377 3.45603 8.33659 3.34106 8.64825 3.34106C8.95991 3.34106 9.2588 3.45603 9.47917 3.66066C9.69955 3.86529 9.82335 4.14284 9.82335 4.43223V6.18356C9.82335 6.25591 9.7924 6.32529 9.73731 6.37645C9.68221 6.42761 9.60749 6.45635 9.52958 6.45635Z" fill="#419A28"/>
<path d="M8.64825 17.5262C8.33659 17.5262 8.0377 17.4112 7.81732 17.2066C7.59695 17.0019 7.47314 16.7244 7.47314 16.435V7.91024C7.47314 7.83789 7.5041 7.76851 7.55919 7.71735C7.61428 7.66619 7.68901 7.63745 7.76692 7.63745C7.84483 7.63745 7.91956 7.66619 7.97465 7.71735C8.02975 7.76851 8.0607 7.83789 8.0607 7.91024V16.435C8.0607 16.5797 8.1226 16.7185 8.23279 16.8208C8.34297 16.9231 8.49242 16.9806 8.64825 16.9806C8.80408 16.9806 8.95352 16.9231 9.06371 16.8208C9.1739 16.7185 9.2358 16.5797 9.2358 16.435V7.91024C9.2358 7.83789 9.26675 7.76851 9.32185 7.71735C9.37694 7.66619 9.45166 7.63745 9.52958 7.63745C9.60749 7.63745 9.68221 7.66619 9.73731 7.71735C9.7924 7.76851 9.82335 7.83789 9.82335 7.91024V16.435C9.82335 16.7244 9.69955 17.0019 9.47917 17.2066C9.2588 17.4112 8.95991 17.5262 8.64825 17.5262Z" fill="#419A28"/>
<path d="M4.242 17.5259C3.93034 17.5259 3.63145 17.411 3.41108 17.2063C3.1907 17.0017 3.06689 16.7242 3.06689 16.4348V14.6834C3.06689 14.6111 3.09785 14.5417 3.15294 14.4905C3.20803 14.4394 3.28276 14.4106 3.36067 14.4106C3.43859 14.4106 3.51331 14.4394 3.5684 14.4905C3.6235 14.5417 3.65445 14.6111 3.65445 14.6834V16.4348C3.65445 16.5795 3.71635 16.7182 3.82654 16.8205C3.93673 16.9229 4.08617 16.9803 4.242 16.9803C4.39783 16.9803 4.54728 16.9229 4.65746 16.8205C4.76765 16.7182 4.82955 16.5795 4.82955 16.4348V14.6834C4.82955 14.6111 4.86051 14.5417 4.9156 14.4905C4.97069 14.4394 5.04542 14.4106 5.12333 14.4106C5.20125 14.4106 5.27597 14.4394 5.33106 14.4905C5.38616 14.5417 5.41711 14.6111 5.41711 14.6834V16.4348C5.41711 16.7242 5.2933 17.0017 5.07293 17.2063C4.85255 17.411 4.55366 17.5259 4.242 17.5259Z" fill="#419A28"/>
<path d="M5.12333 13.2298C5.04542 13.2298 4.97069 13.201 4.9156 13.1499C4.86051 13.0987 4.82955 13.0293 4.82955 12.957V4.43223C4.82955 4.28754 4.76765 4.14876 4.65746 4.04645C4.54728 3.94413 4.39783 3.88665 4.242 3.88665C4.08617 3.88665 3.93673 3.94413 3.82654 4.04645C3.71635 4.14876 3.65445 4.28754 3.65445 4.43223V12.957C3.65445 13.0293 3.6235 13.0987 3.5684 13.1499C3.51331 13.201 3.43859 13.2298 3.36067 13.2298C3.28276 13.2298 3.20803 13.201 3.15294 13.1499C3.09785 13.0987 3.06689 13.0293 3.06689 12.957V4.43223C3.06689 4.14284 3.1907 3.86529 3.41108 3.66066C3.63145 3.45603 3.93034 3.34106 4.242 3.34106C4.55366 3.34106 4.85255 3.45603 5.07293 3.66066C5.2933 3.86529 5.41711 4.14284 5.41711 4.43223V12.957C5.41711 13.0293 5.38616 13.0987 5.33106 13.1499C5.27597 13.201 5.20125 13.2298 5.12333 13.2298Z" fill="#419A28"/>
<path d="M18.5394 8.18285H16.3849C16.0635 8.17823 15.757 8.05644 15.5316 7.8438C15.3061 7.63115 15.1797 7.34469 15.1797 7.04626C15.1797 6.74783 15.3061 6.46137 15.5316 6.24872C15.757 6.03607 16.0635 5.91429 16.3849 5.90967H18.5394C18.8608 5.91429 19.1673 6.03607 19.3928 6.24872C19.6183 6.46137 19.7447 6.74783 19.7447 7.04626C19.7447 7.34469 19.6183 7.63115 19.3928 7.8438C19.1673 8.05644 18.8608 8.17823 18.5394 8.18285ZM16.3849 6.45525C16.2185 6.45857 16.06 6.5223 15.9436 6.63277C15.8272 6.74325 15.762 6.89168 15.762 7.04626C15.762 7.20084 15.8272 7.34927 15.9436 7.45974C16.06 7.57022 16.2185 7.63394 16.3849 7.63726H18.5394C18.7059 7.63394 18.8643 7.57022 18.9807 7.45974C19.0972 7.34927 19.1624 7.20084 19.1624 7.04626C19.1624 6.89168 19.0972 6.74325 18.9807 6.63277C18.8643 6.5223 18.7059 6.45857 18.5394 6.45525H16.3849Z" fill="#419A28"/>
<path d="M14.1327 14.9577H11.9782C11.6568 14.9531 11.3503 14.8313 11.1248 14.6187C10.8993 14.406 10.7729 14.1196 10.7729 13.8212C10.7729 13.5227 10.8993 13.2363 11.1248 13.0236C11.3503 12.811 11.6568 12.6892 11.9782 12.6846H14.1327C14.4541 12.6892 14.7606 12.811 14.986 13.0236C15.2115 13.2363 15.3379 13.5227 15.3379 13.8212C15.3379 14.1196 15.2115 14.406 14.986 14.6187C14.7606 14.8313 14.4541 14.9531 14.1327 14.9577ZM11.9782 13.2302C11.8117 13.2335 11.6533 13.2972 11.5369 13.4077C11.4204 13.5181 11.3552 13.6666 11.3552 13.8212C11.3552 13.9757 11.4204 14.1242 11.5369 14.2346C11.6533 14.3451 11.8117 14.4088 11.9782 14.4122H14.1327C14.2991 14.4088 14.4576 14.3451 14.574 14.2346C14.6904 14.1242 14.7556 13.9757 14.7556 13.8212C14.7556 13.6666 14.6904 13.5181 14.574 13.4077C14.4576 13.2972 14.2991 13.2335 14.1327 13.2302H11.9782Z" fill="#419A28"/>
<path d="M9.72597 8.18285H7.57141C7.25007 8.17823 6.94357 8.05644 6.71808 7.8438C6.4926 7.63115 6.36621 7.34469 6.36621 7.04626C6.36621 6.74783 6.4926 6.46137 6.71808 6.24872C6.94357 6.03607 7.25007 5.91429 7.57141 5.90967H9.72597C10.0473 5.91429 10.3538 6.03607 10.5793 6.24872C10.8048 6.46137 10.9312 6.74783 10.9312 7.04626C10.9312 7.34469 10.8048 7.63115 10.5793 7.8438C10.3538 8.05644 10.0473 8.17823 9.72597 8.18285ZM7.57141 6.45525C7.40498 6.45857 7.24657 6.5223 7.13013 6.63277C7.01368 6.74325 6.94848 6.89168 6.94848 7.04626C6.94848 7.20084 7.01368 7.34927 7.13013 7.45974C7.24657 7.57022 7.40498 7.63394 7.57141 7.63726H9.72597C9.8924 7.63394 10.0508 7.57022 10.1673 7.45974C10.2837 7.34927 10.3489 7.20084 10.3489 7.04626C10.3489 6.89168 10.2837 6.74325 10.1673 6.63277C10.0508 6.5223 9.8924 6.45857 9.72597 6.45525H7.57141Z" fill="#419A28"/>
<path d="M5.31923 14.9577H3.16468C2.84333 14.9531 2.53683 14.8313 2.31134 14.6187C2.08586 14.406 1.95947 14.1196 1.95947 13.8212C1.95947 13.5227 2.08586 13.2363 2.31134 13.0236C2.53683 12.811 2.84333 12.6892 3.16468 12.6846H5.31923C5.64058 12.6892 5.94708 12.811 6.17256 13.0236C6.39805 13.2363 6.52443 13.5227 6.52443 13.8212C6.52443 14.1196 6.39805 14.406 6.17256 14.6187C5.94708 14.8313 5.64058 14.9531 5.31923 14.9577ZM3.16468 13.2302C2.99824 13.2335 2.83983 13.2972 2.72339 13.4077C2.60695 13.5181 2.54174 13.6666 2.54174 13.8212C2.54174 13.9757 2.60695 14.1242 2.72339 14.2346C2.83983 14.3451 2.99824 14.4088 3.16468 14.4122H5.31923C5.48567 14.4088 5.64408 14.3451 5.76052 14.2346C5.87696 14.1242 5.94217 13.9757 5.94217 13.8212C5.94217 13.6666 5.87696 13.5181 5.76052 13.4077C5.64408 13.2972 5.48567 13.2335 5.31923 13.2302H3.16468Z" fill="#419A28"/>
</svg>
