<svg width="45" height="45" viewBox="0 0 45 45" fill="none" xmlns="http://www.w3.org/2000/svg">
<path d="M43.4619 18.3252H42.3633V13.8867C42.3633 12.8448 41.5156 11.9971 40.4736 11.9971H37.6611C37.4621 11.9971 37.2702 12.0284 37.0898 12.0858V11.8213C37.0898 10.3917 35.9267 9.22852 34.4971 9.22852H30.9814C29.5518 9.22852 28.3887 10.3917 28.3887 11.8213V19.5812H16.6113V11.8213C16.6113 10.3917 15.4482 9.22852 14.0186 9.22852H10.5029C9.0733 9.22852 7.91016 10.3917 7.91016 11.8213V12.0858C7.7298 12.0284 7.53794 11.9971 7.33887 11.9971H4.52637C3.48442 11.9971 2.63672 12.8448 2.63672 13.8867V14.7381C2.63672 15.1022 2.93186 15.3973 3.2959 15.3973C3.65994 15.3973 3.95508 15.1022 3.95508 14.7381V13.8867C3.95508 13.5717 4.21137 13.3154 4.52637 13.3154H7.33887C7.65387 13.3154 7.91016 13.5717 7.91016 13.8867V31.1133C7.91016 31.4283 7.65387 31.6846 7.33887 31.6846H4.52637C4.21137 31.6846 3.95508 31.4283 3.95508 31.1133V17.5587C3.95508 17.1947 3.65994 16.8995 3.2959 16.8995C2.93186 16.8995 2.63672 17.1947 2.63672 17.5587V18.3252H1.53809C0.690029 18.3252 0 19.0152 0 19.8633V25.1367C0 25.9848 0.690029 26.6748 1.53809 26.6748H2.63672V31.1133C2.63672 32.1552 3.48442 33.0029 4.52637 33.0029H7.33887C7.53794 33.0029 7.7298 32.9716 7.91016 32.9142V33.1787C7.91016 34.6083 9.0733 35.7715 10.5029 35.7715H14.0186C15.4482 35.7715 16.6113 34.6083 16.6113 33.1787V25.4188H17.5707C17.9348 25.4188 18.2299 25.1236 18.2299 24.7596C18.2299 24.3955 17.9348 24.1004 17.5707 24.1004H16.6113V20.8996H28.3887V24.1004H20.4282C20.0642 24.1004 19.7691 24.3955 19.7691 24.7596C19.7691 25.1236 20.0642 25.4188 20.4282 25.4188H28.3887V33.1787C28.3887 34.6083 29.5518 35.7715 30.9814 35.7715H34.4971C35.9267 35.7715 37.0898 34.6083 37.0898 33.1787V32.9142C37.2702 32.9716 37.4621 33.0029 37.6611 33.0029H40.4736C41.5156 33.0029 42.3633 32.1552 42.3633 31.1133V30.2231C42.3633 29.8591 42.0681 29.5639 41.7041 29.5639C41.3401 29.5639 41.0449 29.8591 41.0449 30.2231V31.1133C41.0449 31.4283 40.7886 31.6846 40.4736 31.6846H37.6611C37.3461 31.6846 37.0898 31.4283 37.0898 31.1133V13.8867C37.0898 13.5717 37.3461 13.3154 37.6611 13.3154H40.4736C40.7886 13.3154 41.0449 13.5717 41.0449 13.8867V27.3779C41.0449 27.742 41.3401 28.0371 41.7041 28.0371C42.0681 28.0371 42.3633 27.742 42.3633 27.3779V26.6748H43.4619C44.31 26.6748 45 25.9848 45 25.1367V19.8633C45 19.0152 44.31 18.3252 43.4619 18.3252ZM1.53809 25.3564C1.41697 25.3564 1.31836 25.2578 1.31836 25.1367V19.8633C1.31836 19.7422 1.41697 19.6436 1.53809 19.6436H2.63672V25.3564H1.53809ZM15.293 33.1787C15.293 33.8814 14.7212 34.4531 14.0186 34.4531H10.5029C9.80024 34.4531 9.22852 33.8814 9.22852 33.1787V11.8213C9.22852 11.1186 9.80024 10.5469 10.5029 10.5469H14.0186C14.7212 10.5469 15.293 11.1186 15.293 11.8213V33.1787ZM35.7715 33.1787C35.7715 33.8814 35.1998 34.4531 34.4971 34.4531H30.9814C30.2788 34.4531 29.707 33.8814 29.707 33.1787V11.8213C29.707 11.1186 30.2788 10.5469 30.9814 10.5469H34.4971C35.1998 10.5469 35.7715 11.1186 35.7715 11.8213V33.1787ZM43.6816 25.1367C43.6816 25.2578 43.583 25.3564 43.4619 25.3564H42.3633V19.6436H43.4619C43.583 19.6436 43.6816 19.7422 43.6816 19.8633V25.1367Z" fill="white"/>
</svg>
