<svg width="42" height="42" viewBox="0 0 42 42" fill="none" xmlns="http://www.w3.org/2000/svg">
<path d="M2.46094 42H39.5391C40.8961 42 42 40.8961 42 39.5391V9.02344C42 8.57034 41.6328 8.20312 41.1797 8.20312H35.4375C35.4375 3.67987 31.7576 0 27.2344 0C22.7015 0 19.0312 3.66673 19.0312 8.20312H12.7969C12.3438 8.20312 11.9766 8.57034 11.9766 9.02344V18.5391H0.820312C0.367218 18.5391 0 18.9063 0 19.3594V39.5391C0 40.8961 1.1039 42 2.46094 42ZM1.64062 39.5391V36.5859H20.6719V39.5391C20.6719 39.9915 20.304 40.3594 19.8516 40.3594H2.46094C2.00848 40.3594 1.64062 39.9915 1.64062 39.5391ZM39.5391 40.3594H22.1715C22.2625 40.1027 22.3125 39.8268 22.3125 39.5391V36.5859H40.3594V39.5391C40.3594 39.9915 39.9915 40.3594 39.5391 40.3594ZM27.2344 1.64062C30.853 1.64062 33.7969 4.58446 33.7969 8.20312H20.6719C20.6719 4.57645 23.6055 1.64062 27.2344 1.64062ZM13.6172 9.84375H19.0312V13.6172H18.2109C17.7578 13.6172 17.3906 13.9844 17.3906 14.4375C17.3906 14.8906 17.7578 15.2578 18.2109 15.2578H21.4922C21.9453 15.2578 22.3125 14.8906 22.3125 14.4375C22.3125 13.9844 21.9453 13.6172 21.4922 13.6172H20.6719V9.84375H33.7969V13.6172H32.9766C32.5235 13.6172 32.1562 13.9844 32.1562 14.4375C32.1562 14.8906 32.5235 15.2578 32.9766 15.2578H36.2578C36.7109 15.2578 37.0781 14.8906 37.0781 14.4375C37.0781 13.9844 36.7109 13.6172 36.2578 13.6172H35.4375V9.84375H40.3594V34.9453H22.3125V19.3594C22.3125 18.9063 21.9453 18.5391 21.4922 18.5391H13.6172V9.84375ZM20.6719 20.1797V34.9453H1.64062V20.1797H20.6719Z" fill="white"/>
<path d="M6.23438 25.1016V26.7422C6.23438 29.4614 8.43704 31.6641 11.1562 31.6641C13.8703 31.6641 16.0781 29.4563 16.0781 26.7422V25.1016C16.5312 25.1016 16.8984 24.7343 16.8984 24.2812C16.8984 23.8282 16.5312 23.4609 16.0781 23.4609H14.4375C13.9844 23.4609 13.6172 23.8282 13.6172 24.2812C13.6172 24.7343 13.9844 25.1016 14.4375 25.1016V26.7422C14.4375 28.5514 12.9654 30.0234 11.1562 30.0234C9.34387 30.0234 7.875 28.5546 7.875 26.7422V25.1016C8.32809 25.1016 8.69531 24.7343 8.69531 24.2812C8.69531 23.8282 8.32809 23.4609 7.875 23.4609H6.23438C5.78128 23.4609 5.41406 23.8282 5.41406 24.2812C5.41406 24.7343 5.78128 25.1016 6.23438 25.1016Z" fill="white"/>
<path d="M37.8984 28.3828C38.3515 28.3828 38.7188 28.0156 38.7188 27.5625V21C38.7188 20.5469 38.3515 20.1797 37.8984 20.1797C37.4453 20.1797 37.0781 20.5469 37.0781 21V27.5625C37.0781 28.0156 37.4453 28.3828 37.8984 28.3828Z" fill="white"/>
</svg>
