<svg width="18" height="18" viewBox="0 0 18 18" fill="none" xmlns="http://www.w3.org/2000/svg">
<g clip-path="url(#clip0)">
<path d="M17.7535 1.36536H0.245672C0.180477 1.36547 0.11799 1.39145 0.07193 1.43758C0.0258696 1.48372 -9.57967e-08 1.54626 0 1.61145L0 11.4763C0 11.5416 0.0259277 11.6042 0.0720792 11.6503C0.118231 11.6965 0.180826 11.7224 0.246094 11.7224H6.20508V14.5945H4.89839C4.83312 14.5945 4.77053 14.6204 4.72438 14.6666C4.67823 14.7127 4.6523 14.7753 4.6523 14.8406V16.3886C4.6523 16.4539 4.67823 16.5165 4.72438 16.5626C4.77053 16.6088 4.83312 16.6347 4.89839 16.6347H13.1016C13.1669 16.6347 13.2295 16.6088 13.2756 16.5626C13.3218 16.5165 13.3477 16.4539 13.3477 16.3886V14.8406C13.3477 14.7753 13.3218 14.7127 13.2756 14.6666C13.2295 14.6204 13.1669 14.5945 13.1016 14.5945H11.7949V11.7224H17.7535C17.8188 11.7224 17.8813 11.6965 17.9275 11.6503C17.9737 11.6042 17.9996 11.5416 17.9996 11.4763V1.61145C17.9996 1.54618 17.9737 1.48359 17.9275 1.43744C17.8813 1.39128 17.8188 1.36536 17.7535 1.36536ZM12.8555 16.1425H5.14448V15.0867H12.8555V16.1425ZM11.3027 14.5945H6.69727V11.7224H7.7812V12.596C7.78146 12.8103 7.86674 13.0158 8.01832 13.1674C8.16991 13.319 8.37543 13.4043 8.5898 13.4045H9.4102C9.62458 13.4043 9.83009 13.319 9.98168 13.1674C10.1333 13.0158 10.2185 12.8103 10.2188 12.596V11.7224H11.3027V14.5945ZM8.27339 11.7224H9.72661V12.596C9.7265 12.6798 9.69313 12.7602 9.63381 12.8196C9.5745 12.8789 9.49409 12.9122 9.4102 12.9124H8.5898C8.50592 12.9122 8.4255 12.8789 8.36619 12.8196C8.30687 12.7602 8.2735 12.6798 8.27339 12.596V11.7224ZM17.5074 11.2302H0.492188V1.85754H17.5078L17.5074 11.2302Z" fill="#419A28"/>
<path d="M1.65192 10.316H16.3472C16.4125 10.316 16.4751 10.2901 16.5212 10.2439C16.5674 10.1978 16.5933 10.1352 16.5933 10.0699V3.01758C16.5933 2.95231 16.5674 2.88972 16.5212 2.84356C16.4751 2.79741 16.4125 2.77148 16.3472 2.77148H1.65192C1.58673 2.7716 1.52424 2.79757 1.47818 2.84371C1.43212 2.88985 1.40625 2.95238 1.40625 3.01758V10.0699C1.40625 10.1351 1.43212 10.1976 1.47818 10.2438C1.52424 10.2899 1.58673 10.3159 1.65192 10.316ZM1.89802 3.26367H16.1011V9.82383H1.89844L1.89802 3.26367Z" fill="#419A28"/>
<path d="M10.4299 5.1128C10.3837 5.06668 10.3211 5.04077 10.2559 5.04077C10.1906 5.04077 10.128 5.06668 10.0818 5.1128L7.56818 7.62647C7.54532 7.64933 7.5272 7.67646 7.51483 7.70632C7.50246 7.73617 7.49609 7.76818 7.49609 7.8005C7.49609 7.83282 7.50246 7.86482 7.51483 7.89468C7.5272 7.92454 7.54532 7.95167 7.56818 7.97452C7.59103 7.99737 7.61816 8.0155 7.64802 8.02787C7.67788 8.04024 7.70988 8.0466 7.7422 8.0466C7.77452 8.0466 7.80652 8.04024 7.83638 8.02787C7.86624 8.0155 7.89337 7.99737 7.91622 7.97452L10.4299 5.46085C10.4528 5.43801 10.4709 5.41088 10.4833 5.38102C10.4957 5.35116 10.502 5.31915 10.502 5.28682C10.502 5.2545 10.4957 5.22249 10.4833 5.19263C10.4709 5.16277 10.4528 5.13564 10.4299 5.1128Z" fill="#419A28"/>
<path d="M10.9333 5.66937L9.53268 7.07C9.50918 7.0927 9.49042 7.11985 9.47752 7.14987C9.46461 7.17989 9.45782 7.21219 9.45753 7.24486C9.45724 7.27754 9.46346 7.30995 9.47583 7.34019C9.48819 7.37044 9.50646 7.39792 9.52956 7.42103C9.55267 7.44414 9.58014 7.46242 9.61038 7.4748C9.64062 7.48718 9.67302 7.49341 9.7057 7.49314C9.73838 7.49286 9.77067 7.48608 9.8007 7.47318C9.83073 7.46029 9.85788 7.44155 9.88059 7.41805L11.2814 6.01742C11.3275 5.97127 11.3534 5.90867 11.3534 5.8434C11.3534 5.77813 11.3275 5.71553 11.2814 5.66937C11.2352 5.62322 11.1726 5.59729 11.1073 5.59729C11.0421 5.59729 10.9795 5.62322 10.9333 5.66937Z" fill="#419A28"/>
<path d="M8.46641 5.66944C8.42024 5.62332 8.35765 5.59741 8.29239 5.59741C8.22712 5.59741 8.16453 5.62332 8.11836 5.66944L6.71759 7.07007C6.67144 7.11622 6.64551 7.17882 6.64551 7.24409C6.64551 7.30936 6.67144 7.37196 6.71759 7.41811C6.76374 7.46427 6.82634 7.4902 6.89161 7.4902C6.95689 7.4902 7.01948 7.46427 7.06564 7.41811L8.46641 6.01749C8.51253 5.97132 8.53844 5.90873 8.53844 5.84347C8.53844 5.7782 8.51253 5.71561 8.46641 5.66944Z" fill="#419A28"/>
</g>
<defs>
<clipPath id="clip0">
<rect width="18" height="18" fill="white"/>
</clipPath>
</defs>
</svg>
