<svg width="22" height="20" viewBox="0 0 22 20" fill="none" xmlns="http://www.w3.org/2000/svg">
<path fill-rule="evenodd" clip-rule="evenodd" d="M2.2832 19.1854C2.2832 19.4051 2.47502 19.5833 2.71163 19.5833H18.9917C19.2283 19.5833 19.4202 19.4051 19.4202 19.1854V7.64858L18.5633 6.85294V18.7876H3.14005V6.85294L2.2832 7.64858V19.1854Z" fill="#419A28"/>
<path fill-rule="evenodd" clip-rule="evenodd" d="M11.709 11.2291C11.709 11.0094 11.9008 10.8313 12.1374 10.8313H16.4216C16.6583 10.8313 16.8501 11.0094 16.8501 11.2291V19.5834H15.9932V11.6269H12.5658V19.5834H11.709V11.2291Z" fill="#419A28"/>
<path fill-rule="evenodd" clip-rule="evenodd" d="M16.8496 3.27282C16.8496 3.05311 17.0414 2.875 17.278 2.875H18.9917C19.2283 2.875 19.4201 3.05311 19.4201 3.27282V7.64887L18.5633 6.85322V3.67064H17.7065V6.85322L16.8496 6.05758V3.27282Z" fill="#419A28"/>
<path fill-rule="evenodd" clip-rule="evenodd" d="M10.8549 1.80182L20.4329 9.14889C20.6153 9.28882 20.8854 9.26494 21.0361 9.09555C21.1868 8.92616 21.161 8.67541 20.9786 8.53548L11.1249 0.976859C10.9665 0.85537 10.7375 0.85537 10.5792 0.976859L0.725405 8.53548C0.542986 8.67541 0.517268 8.92616 0.667961 9.09555C0.818655 9.26494 1.0887 9.28882 1.27112 9.14889L10.8549 1.80182Z" fill="#419A28"/>
<path fill-rule="evenodd" clip-rule="evenodd" d="M4.854 11.2291V14.4117C4.854 14.6314 5.04582 14.8095 5.28243 14.8095H9.56667C9.80328 14.8095 9.99509 14.6314 9.99509 14.4117V11.2291C9.99509 11.0094 9.80328 10.8313 9.56667 10.8313H5.28243C5.04582 10.8313 4.854 11.0094 4.854 11.2291ZM5.71085 11.6269H9.13824V14.0139H5.71085V11.6269Z" fill="#419A28"/>
</svg>
