<svg width="45" height="42" viewBox="0 0 45 42" fill="none" xmlns="http://www.w3.org/2000/svg">
<path d="M11.8125 27.5625H36.75C36.9008 27.5625 37.047 27.5106 37.164 27.4154C37.281 27.3203 37.3617 27.1878 37.3925 27.0401L40.6737 11.2901C40.6936 11.1946 40.692 11.0959 40.6689 11.0011C40.6459 10.9064 40.602 10.8179 40.5404 10.7422C40.4789 10.6666 40.4013 10.6055 40.3132 10.5636C40.2251 10.5217 40.1288 10.5 40.0313 10.5H8.62632L7.20128 4.44339C7.16739 4.29942 7.08586 4.17112 6.96992 4.07929C6.85397 3.98747 6.7104 3.9375 6.5625 3.9375H1.96875C1.7947 3.9375 1.62778 4.00664 1.50471 4.12971C1.38164 4.25278 1.3125 4.4197 1.3125 4.59375C1.3125 4.7678 1.38164 4.93472 1.50471 5.05779C1.62778 5.18086 1.7947 5.25 1.96875 5.25H6.04275L11.0133 26.3749C10.4836 26.5449 10.0215 26.8785 9.69342 27.3277C9.36535 27.777 9.18822 28.3187 9.1875 28.875V30.1875C9.18828 30.8835 9.4651 31.5507 9.95721 32.0428C10.4493 32.5349 11.1165 32.8117 11.8125 32.8125H11.8143C11.4481 33.2999 11.2249 33.8796 11.1697 34.4867C11.1145 35.0939 11.2296 35.7043 11.502 36.2497C11.7744 36.7951 12.1933 37.2538 12.7118 37.5745C13.2303 37.8951 13.8279 38.0649 14.4375 38.0649C15.0471 38.0649 15.6447 37.8951 16.1632 37.5745C16.6817 37.2538 17.1006 36.7951 17.373 36.2497C17.6454 35.7043 17.7605 35.0939 17.7053 34.4867C17.6501 33.8796 17.4269 33.2999 17.0607 32.8125H30.1893C29.8231 33.2999 29.5999 33.8796 29.5447 34.4867C29.4895 35.0939 29.6046 35.7043 29.877 36.2497C30.1494 36.7951 30.5683 37.2538 31.0868 37.5745C31.6053 37.8951 32.2029 38.0649 32.8125 38.0649C33.4221 38.0649 34.0197 37.8951 34.5382 37.5745C35.0567 37.2538 35.4756 36.7951 35.748 36.2497C36.0204 35.7043 36.1355 35.0939 36.0803 34.4867C36.0251 33.8796 35.8019 33.2999 35.4357 32.8125H38.0625C38.2366 32.8125 38.4035 32.7434 38.5265 32.6203C38.6496 32.4972 38.7188 32.3303 38.7188 32.1562C38.7188 31.9822 38.6496 31.8153 38.5265 31.6922C38.4035 31.5691 38.2366 31.5 38.0625 31.5H11.8125C11.4645 31.4996 11.1309 31.3612 10.8849 31.1151C10.6388 30.8691 10.5004 30.5355 10.5 30.1875V28.875C10.5004 28.527 10.6388 28.1934 10.8849 27.9474C11.1309 27.7013 11.4645 27.5629 11.8125 27.5625ZM12.3323 26.25L11.7146 23.625H15.3348L15.6629 26.25H12.3324H12.3323ZM26.5502 19.6875L26.4408 22.3125H22.1217L22.0123 19.6875H26.5502ZM21.9576 18.375L21.8482 15.75H26.7143L26.6049 18.375H21.9576ZM20.808 22.3125H16.4932L16.1651 19.6875H20.6985L20.808 22.3125ZM20.8627 23.625L20.9721 26.25H16.9854L16.6573 23.625H20.8627ZM22.1763 23.625H26.3862L26.2767 26.25H22.2858L22.1763 23.625ZM27.6998 23.625H31.9051L31.5769 26.25H27.5902L27.6998 23.625ZM27.7545 22.3125L27.8639 19.6875H32.3973L32.0691 22.3125H27.7545ZM33.7199 19.6875H37.5836L37.0371 22.3125H33.3918L33.7199 19.6875ZM33.884 18.375L34.2121 15.75H38.4039L37.8574 18.375H33.884ZM32.5613 18.375H27.9184L28.0278 15.75H32.8893L32.5613 18.375ZM28.0824 14.4375L28.1918 11.8125H33.3815L33.0533 14.4375H28.0824ZM26.7688 14.4375H21.7936L21.6841 11.8125H26.8784L26.7688 14.4375ZM20.4798 14.4375H15.5087L15.1805 11.8125H20.3702L20.4798 14.4375ZM20.5344 15.75L20.6438 18.375H16.0009L15.6727 15.75H20.5344ZM14.6783 18.375H10.4792L9.86155 15.75H14.3502L14.6783 18.375ZM14.8424 19.6875L15.1705 22.3125H11.4053L10.7877 19.6875H14.8424ZM36.2168 26.25H32.8996L33.2277 23.625H36.7633L36.2168 26.25ZM38.6777 14.4375H34.3762L34.7043 11.8125H39.2242L38.6777 14.4375ZM13.8582 11.8125L14.1863 14.4375H9.55287L8.93526 11.8125H13.8582ZM16.4063 34.7812C16.4063 35.1706 16.2908 35.5513 16.0745 35.875C15.8581 36.1988 15.5507 36.4511 15.1909 36.6001C14.8312 36.7491 14.4353 36.7881 14.0534 36.7122C13.6715 36.6362 13.3207 36.4487 13.0454 36.1734C12.7701 35.898 12.5825 35.5472 12.5066 35.1653C12.4306 34.7834 12.4696 34.3876 12.6186 34.0278C12.7676 33.6681 13.02 33.3606 13.3437 33.1443C13.6675 32.928 14.0481 32.8125 14.4375 32.8125C14.9595 32.8131 15.4599 33.0207 15.8289 33.3898C16.198 33.7589 16.4056 34.2593 16.4063 34.7812ZM34.7813 34.7812C34.7813 35.1706 34.6658 35.5513 34.4495 35.875C34.2331 36.1988 33.9257 36.4511 33.5659 36.6001C33.2062 36.7491 32.8103 36.7881 32.4284 36.7122C32.0465 36.6362 31.6957 36.4487 31.4204 36.1734C31.1451 35.898 30.9575 35.5472 30.8816 35.1653C30.8056 34.7834 30.8446 34.3876 30.9936 34.0278C31.1426 33.6681 31.395 33.3606 31.7187 33.1443C32.0425 32.928 32.4231 32.8125 32.8125 32.8125C33.3345 32.8131 33.8349 33.0207 34.2039 33.3898C34.573 33.7589 34.7806 34.2593 34.7813 34.7812Z" fill="#419A28"/>
<path d="M14.4375 35.4375C14.7999 35.4375 15.0938 35.1437 15.0938 34.7812C15.0938 34.4188 14.7999 34.125 14.4375 34.125C14.0751 34.125 13.7812 34.4188 13.7812 34.7812C13.7812 35.1437 14.0751 35.4375 14.4375 35.4375Z" fill="#419A28"/>
<path d="M32.8125 35.4375C33.1749 35.4375 33.4688 35.1437 33.4688 34.7812C33.4688 34.4188 33.1749 34.125 32.8125 34.125C32.4501 34.125 32.1562 34.4188 32.1562 34.7812C32.1562 35.1437 32.4501 35.4375 32.8125 35.4375Z" fill="#419A28"/>
</svg>
