<svg width="22" height="20" viewBox="0 0 22 20" fill="none" xmlns="http://www.w3.org/2000/svg">
<path d="M18.8893 12.518C18.4453 12.518 18.0113 12.3957 17.6422 12.1667C17.273 11.9376 16.9853 11.6121 16.8154 11.2312C16.6455 10.8503 16.6011 10.4312 16.6877 10.0269C16.7743 9.62256 16.9881 9.25115 17.302 8.95963C17.6159 8.66812 18.0159 8.4696 18.4514 8.38917C18.8868 8.30875 19.3381 8.35002 19.7483 8.50779C20.1585 8.66555 20.5091 8.93272 20.7557 9.2755C21.0024 9.61828 21.1341 10.0213 21.1341 10.4335C21.1329 10.986 20.896 11.5156 20.4753 11.9063C20.0546 12.297 19.4843 12.5169 18.8893 12.518ZM18.8893 9.35415C18.6594 9.35415 18.4346 9.41745 18.2435 9.53606C18.0523 9.65466 17.9033 9.82324 17.8154 10.0205C17.7274 10.2177 17.7043 10.4347 17.7492 10.6441C17.7941 10.8535 17.9048 11.0458 18.0673 11.1968C18.2299 11.3478 18.437 11.4506 18.6625 11.4922C18.888 11.5339 19.1217 11.5125 19.3341 11.4308C19.5465 11.3491 19.7281 11.2107 19.8558 11.0332C19.9835 10.8557 20.0517 10.647 20.0517 10.4335C20.0511 10.1474 19.9285 9.87319 19.7106 9.67088C19.4927 9.46857 19.1974 9.35468 18.8893 9.35415Z" fill="#419A28"/>
<path d="M2.81459 12.518C2.37061 12.518 1.93661 12.3957 1.56746 12.1667C1.19831 11.9376 0.910598 11.6121 0.740698 11.2312C0.570797 10.8503 0.526343 10.4312 0.612958 10.0269C0.699572 9.62256 0.913365 9.25115 1.2273 8.95963C1.54124 8.66812 1.94121 8.4696 2.37666 8.38917C2.8121 8.30875 3.26344 8.35002 3.67362 8.50779C4.0838 8.66555 4.43438 8.93272 4.68104 9.2755C4.9277 9.61828 5.05935 10.0213 5.05935 10.4335C5.05877 10.9862 4.82209 11.5161 4.40124 11.9069C3.98039 12.2977 3.40976 12.5174 2.81459 12.518ZM2.81459 9.35415C2.58468 9.35415 2.35994 9.41745 2.16878 9.53606C1.97762 9.65466 1.82863 9.82324 1.74064 10.0205C1.65266 10.2177 1.62964 10.4347 1.6745 10.6441C1.71935 10.8535 1.83006 11.0458 1.99263 11.1968C2.15519 11.3478 2.36232 11.4506 2.58781 11.4922C2.8133 11.5339 3.04702 11.5125 3.25943 11.4308C3.47183 11.3491 3.65338 11.2107 3.78111 11.0332C3.90884 10.8557 3.97701 10.647 3.97701 10.4335C3.97644 10.1474 3.85379 9.87319 3.63591 9.67088C3.41804 9.46857 3.12271 9.35468 2.81459 9.35415Z" fill="#419A28"/>
<path d="M10.8517 19.9811C10.4077 19.9811 9.97372 19.8589 9.60457 19.6298C9.23542 19.4008 8.94771 19.0752 8.77781 18.6944C8.60791 18.3135 8.56345 17.8944 8.65007 17.49C8.73668 17.0857 8.95047 16.7143 9.26441 16.4228C9.57834 16.1313 9.97832 15.9327 10.4138 15.8523C10.8492 15.7719 11.3006 15.8132 11.7107 15.9709C12.1209 16.1287 12.4715 16.3959 12.7181 16.7386C12.9648 17.0814 13.0965 17.4844 13.0965 17.8967C13.0959 18.4493 12.8592 18.9792 12.4383 19.37C12.0175 19.7608 11.4469 19.9806 10.8517 19.9811ZM10.8517 16.8173C10.6218 16.8173 10.397 16.8806 10.2059 16.9992C10.0147 17.1178 9.86573 17.2864 9.77775 17.4836C9.68977 17.6808 9.66675 17.8979 9.7116 18.1073C9.75646 18.3166 9.86717 18.509 10.0297 18.6599C10.1923 18.8109 10.3994 18.9137 10.6249 18.9553C10.8504 18.997 11.0841 18.9756 11.2965 18.8939C11.5089 18.8122 11.6905 18.6739 11.8182 18.4964C11.9459 18.3189 12.0141 18.1102 12.0141 17.8967C12.0135 17.6106 11.8909 17.3363 11.673 17.134C11.4551 16.9317 11.1598 16.8178 10.8517 16.8173Z" fill="#419A28"/>
<path d="M10.8517 5.05458C10.4077 5.05458 9.97372 4.93233 9.60457 4.7033C9.23542 4.47426 8.94771 4.14871 8.77781 3.76784C8.60791 3.38696 8.56345 2.96785 8.65007 2.56351C8.73668 2.15918 8.95047 1.78777 9.26441 1.49626C9.57834 1.20474 9.97832 1.00622 10.4138 0.925795C10.8492 0.845367 11.3006 0.886645 11.7107 1.04441C12.1209 1.20217 12.4715 1.46934 12.7181 1.81212C12.9648 2.1549 13.0965 2.5579 13.0965 2.97016C13.0953 3.52266 12.8584 4.05222 12.4377 4.4429C12.017 4.83357 11.4467 5.05352 10.8517 5.05458ZM10.8517 1.89077C10.6218 1.89077 10.397 1.95407 10.2059 2.07268C10.0147 2.19128 9.86573 2.35986 9.77775 2.5571C9.68977 2.75433 9.66675 2.97136 9.7116 3.18074C9.75646 3.39013 9.86717 3.58246 10.0297 3.73341C10.1923 3.88437 10.3994 3.98717 10.6249 4.02882C10.8504 4.07047 11.0841 4.04909 11.2965 3.9674C11.5089 3.8857 11.6905 3.74735 11.8182 3.56984C11.9459 3.39234 12.0141 3.18365 12.0141 2.97016C12.0135 2.68405 11.8909 2.40981 11.673 2.2075C11.4551 2.00519 11.1598 1.8913 10.8517 1.89077Z" fill="#419A28"/>
<path d="M17.7832 7.15277C17.6902 7.15389 17.5985 7.13264 17.5169 7.09108C17.4354 7.04951 17.3668 6.98905 17.3178 6.91559C16.6678 5.89197 15.7507 5.03686 14.651 4.42916C14.5348 4.35822 14.4526 4.24851 14.4212 4.12277C14.3898 3.99703 14.4118 3.8649 14.4824 3.75377C14.5531 3.64264 14.6672 3.56103 14.8009 3.52586C14.9346 3.49068 15.0778 3.50464 15.2008 3.56484C16.4571 4.25499 17.5054 5.22844 18.2486 6.39498C18.2978 6.47114 18.3242 6.55808 18.3253 6.64686C18.3263 6.73565 18.3019 6.82309 18.2545 6.90022C18.2072 6.97735 18.1385 7.04139 18.0557 7.08578C17.9729 7.13016 17.8789 7.15328 17.7832 7.15277Z" fill="#419A28"/>
<path d="M6.77833 17.3682C6.68184 17.3681 6.58705 17.3445 6.50342 17.2998C5.24788 16.609 4.19916 15.6366 3.4534 14.4717C3.38049 14.3568 3.35971 14.2197 3.39564 14.0906C3.43157 13.9615 3.52125 13.851 3.64497 13.7832C3.76869 13.7155 3.91631 13.6963 4.05535 13.7296C4.19439 13.763 4.31346 13.8463 4.38637 13.9611C5.03934 14.9834 5.96056 15.8353 7.06407 16.4375C7.16466 16.4949 7.24228 16.5813 7.28509 16.6835C7.3279 16.7856 7.33355 16.898 7.30118 17.0034C7.26881 17.1089 7.2002 17.2016 7.1058 17.2674C7.0114 17.3333 6.8964 17.3687 6.77833 17.3682Z" fill="#419A28"/>
<path d="M14.8567 17.4122C14.7379 17.4118 14.6225 17.3752 14.5284 17.3079C14.4343 17.2406 14.3666 17.1464 14.3359 17.0399C14.3051 16.9334 14.3129 16.8204 14.3581 16.7184C14.4034 16.6164 14.4835 16.531 14.5861 16.4755C15.692 15.882 16.6183 15.0384 17.2789 14.0233C17.3553 13.9137 17.4745 13.836 17.6115 13.8066C17.7484 13.7772 17.8923 13.7985 18.0127 13.8658C18.1331 13.9332 18.2205 14.0414 18.2564 14.1676C18.2924 14.2938 18.2741 14.428 18.2054 14.5418C17.4528 15.7077 16.3927 16.6762 15.1251 17.3559C15.0426 17.3965 14.9499 17.4159 14.8567 17.4122Z" fill="#419A28"/>
<path d="M3.87523 7.22165C3.77859 7.22265 3.6835 7.19901 3.60032 7.15331C3.53862 7.12059 3.48449 7.07686 3.44105 7.02465C3.39762 6.97243 3.36573 6.91276 3.34722 6.84906C3.32871 6.78535 3.32395 6.71888 3.33321 6.65347C3.34247 6.58805 3.36556 6.52498 3.40117 6.46788C4.13319 5.29082 5.17619 4.3064 6.4317 3.60758C6.55432 3.54379 6.69885 3.52679 6.83473 3.56019C6.9706 3.59359 7.08714 3.67477 7.1597 3.78654C7.23226 3.89832 7.25515 4.03192 7.22351 4.15908C7.19187 4.28625 7.1082 4.39699 6.99019 4.46788C5.89696 5.08134 4.98852 5.94149 4.34929 6.96838C4.30179 7.04603 4.23278 7.11046 4.14943 7.155C4.06607 7.19953 3.9714 7.22254 3.87523 7.22165Z" fill="#419A28"/>
<path d="M10.8515 10.8558C10.3736 10.8562 9.90637 10.725 9.50881 10.4787C9.11125 10.2325 8.80128 9.88229 8.61811 9.47243C8.43493 9.06258 8.38678 8.61148 8.47975 8.1762C8.57272 7.74093 8.80263 7.34104 9.14039 7.02712C9.47816 6.7132 9.9086 6.49935 10.3773 6.41264C10.8459 6.32592 11.3318 6.37022 11.7733 6.53995C12.2149 6.70967 12.5923 6.99719 12.8579 7.36613C13.1234 7.73507 13.2651 8.16885 13.2651 8.6126C13.2646 9.20703 13.0102 9.77698 12.5577 10.1975C12.1053 10.618 11.4917 10.8547 10.8515 10.8558ZM10.8515 7.37642C10.5876 7.37602 10.3295 7.44835 10.1099 7.58425C9.89029 7.72016 9.71904 7.91351 9.61785 8.13985C9.51665 8.36618 9.49007 8.6153 9.54145 8.85567C9.59283 9.09605 9.71987 9.31686 9.90649 9.49014C10.0931 9.66343 10.3309 9.78139 10.5898 9.8291C10.8486 9.87682 11.1169 9.85213 11.3606 9.75816C11.6044 9.6642 11.8126 9.50518 11.959 9.30126C12.1053 9.09733 12.1832 8.85766 12.1828 8.6126C12.1822 8.28491 12.0418 7.97079 11.7922 7.73908C11.5427 7.50736 11.2044 7.37695 10.8515 7.37642Z" fill="#419A28"/>
<path d="M14.5275 14.2683H7.16764C7.09649 14.2686 7.02599 14.2558 6.9602 14.2306C6.89442 14.2054 6.83464 14.1684 6.78433 14.1217C6.73403 14.075 6.69417 14.0195 6.66708 13.9584C6.63999 13.8973 6.62618 13.8319 6.62647 13.7658C6.62647 12.7262 7.07119 11.7293 7.8628 10.9942C8.65441 10.2591 9.72807 9.84619 10.8476 9.84619C11.9671 9.84619 13.0407 10.2591 13.8323 10.9942C14.6239 11.7293 15.0687 12.7262 15.0687 13.7658C15.069 13.8319 15.0552 13.8973 15.0281 13.9584C15.001 14.0195 14.9611 14.075 14.9108 14.1217C14.8605 14.1684 14.8007 14.2054 14.7349 14.2306C14.6692 14.2558 14.5987 14.2686 14.5275 14.2683ZM7.76292 13.2633H13.9409C13.8129 12.5889 13.433 11.978 12.8681 11.5378C12.3032 11.0976 11.5894 10.8563 10.8519 10.8563C10.1144 10.8563 9.40057 11.0976 8.83567 11.5378C8.27076 11.978 7.89094 12.5889 7.76292 13.2633Z" fill="#419A28"/>
</svg>
