<svg width="18" height="18" viewBox="0 0 18 18" fill="none" xmlns="http://www.w3.org/2000/svg">
<path d="M17.1 1.8H16.1032L15.7295 0.865723L15.7293 0.86543C15.5936 0.523096 15.2621 0.298828 14.8938 0.3H13.3062C12.9378 0.298828 12.6063 0.523242 12.4705 0.865723L12.0968 1.8H10.8V1.5C10.7994 1.00313 10.3969 0.600586 9.9 0.6H9.24858C9.00967 0.599414 8.78057 0.694336 8.61211 0.863672L8.1 1.37578V0.6C8.09956 0.268799 7.8312 0.000439455 7.5 0H0.9C0.403125 0.000585938 0.000585938 0.403125 0 0.9V3.3C0.000585938 3.79688 0.403125 4.19941 0.9 4.2H2.7V10.2C2.70132 11.3593 3.64072 12.2987 4.8 12.3H6.6C6.60117 12.6801 6.84141 13.0184 7.2 13.1446V13.8H6.3C5.80313 13.8006 5.40059 14.2031 5.4 14.7V17.1C5.40059 17.5969 5.80313 17.9994 6.3 18H7.8V13.2H10.2V18H10.8V13.1448C11.1586 13.0184 11.3988 12.6801 11.4 12.3V10.5C11.3994 10.0031 10.9969 9.60059 10.5 9.6H7.5C7.00313 9.60059 6.60059 10.0031 6.6 10.5H4.8C4.63433 10.4999 4.50015 10.3657 4.5 10.2V4.2H6.3V6.9C6.30132 8.05928 7.24072 8.99868 8.4 9H13.2V9.3C13.2006 9.79688 13.6031 10.1994 14.1 10.2H16.5C16.9969 10.1994 17.3994 9.79688 17.4 9.3V7.74478C17.7586 7.61836 17.9988 7.28013 18 6.9V2.7C17.9994 2.20312 17.5969 1.80059 17.1 1.8ZM1.8 3.6H0.9C0.734326 3.59985 0.600146 3.46567 0.6 3.3V0.9C0.600146 0.734326 0.734326 0.600146 0.9 0.6H1.8V3.6ZM6.3 14.4H7.2V15H6V14.7C6.00015 14.5343 6.13433 14.4001 6.3 14.4ZM7.2 15.6V16.2H6V15.6H7.2ZM6.3 17.4C6.13433 17.3999 6.00015 17.2657 6 17.1V16.8H7.2V17.4H6.3ZM13.0276 1.08867C13.0729 0.974561 13.1834 0.899707 13.3062 0.9H14.8938C15.0166 0.899707 15.1271 0.974561 15.1724 1.08867L15.4569 1.8H12.7431L13.0276 1.08867ZM8.18789 2.13633L9.03633 1.28789C9.09258 1.23149 9.1689 1.19985 9.24858 1.2H9.9C10.0657 1.20015 10.1999 1.33433 10.2 1.5V7.2H8.4C8.23433 7.19985 8.10015 7.06567 8.1 6.9V2.34844C8.10029 2.2689 8.13193 2.19272 8.18789 2.13633ZM7.5 10.2H10.5C10.6657 10.2001 10.7999 10.3343 10.8 10.5V12.3C10.7999 12.4657 10.6657 12.5999 10.5 12.6H7.5C7.33433 12.5999 7.20015 12.4657 7.2 12.3V10.5C7.20015 10.3343 7.33433 10.2001 7.5 10.2ZM4.8 11.1H6.6V11.7H4.8C3.97192 11.699 3.30103 11.0281 3.3 10.2V4.2H3.9V10.2C3.90059 10.6969 4.30313 11.0994 4.8 11.1ZM2.4 3.6V0.6H6.3V3.6H2.4ZM8.4 8.4C7.57192 8.39898 6.90103 7.72808 6.9 6.9V0.6H7.5V6.9C7.50059 7.39688 7.90313 7.79941 8.4 7.8H13.2V8.4H8.4ZM16.8 9.3C16.7999 9.46567 16.6657 9.59985 16.5 9.6H14.1C13.9343 9.59985 13.8001 9.46567 13.8 9.3V7.8H16.8V9.3ZM17.4 6.9C17.3999 7.06567 17.2657 7.19985 17.1 7.2H10.8V2.4H17.1C17.2657 2.40015 17.3999 2.53433 17.4 2.7V6.9Z" fill="#419A28"/>
<path d="M14.0998 3C13.1058 3 12.2998 3.80596 12.2998 4.8C12.2998 5.79404 13.1058 6.6 14.0998 6.6C15.0938 6.6 15.8998 5.79404 15.8998 4.8C15.8988 3.8064 15.0934 3.00103 14.0998 3ZM14.0998 6C13.4371 6 12.8998 5.4627 12.8998 4.8C12.8998 4.1373 13.4371 3.6 14.0998 3.6C14.7625 3.6 15.2998 4.1373 15.2998 4.8C15.2991 5.4624 14.7622 5.99927 14.0998 6Z" fill="#419A28"/>
<path d="M16.8002 6.3C16.8002 6.46567 16.6659 6.6 16.5002 6.6C16.3345 6.6 16.2002 6.46567 16.2002 6.3C16.2002 6.13433 16.3345 6 16.5002 6C16.6659 6 16.8002 6.13433 16.8002 6.3Z" fill="#419A28"/>
<path d="M14.9999 8.70002C14.9999 8.8657 14.8656 9.00002 14.6999 9.00002C14.5342 9.00002 14.3999 8.8657 14.3999 8.70002C14.3999 8.53435 14.5342 8.40002 14.6999 8.40002C14.8656 8.40002 14.9999 8.53435 14.9999 8.70002Z" fill="#419A28"/>
<path d="M15.6001 8.40002H16.2001V9.00002H15.6001V8.40002Z" fill="#419A28"/>
</svg>
