<svg width="30" height="34" viewBox="0 0 30 34" fill="none" xmlns="http://www.w3.org/2000/svg">
<path fill-rule="evenodd" clip-rule="evenodd" d="M13.6041 10.8968C14.3488 9.73315 14.6158 8.50673 13.7736 7.42417C11.8836 4.35754 10.6126 2.46115 9.81528 1.54789C8.29958 -0.188335 5.80621 0.0465168 4.49349 1.5464C3.78842 2.35201 3.54973 2.62866 2.82577 3.48134C-1.20677 8.15994 1.25248 18.0503 7.79006 25.6387C14.3262 33.2253 22.8546 36.0786 26.8956 31.3901C27.5636 30.6433 28.1292 29.987 28.5753 29.4403C29.8618 27.8636 30.0571 25.0998 28.5669 23.3044C27.8029 22.3838 26.2434 20.9811 23.4875 18.6952C22.6435 17.82 21.6427 18.0097 20.7252 18.7077C20.2838 19.0435 19.9627 19.3831 19.3562 20.0871L18.2549 21.3649C18.1098 21.5332 16.1401 20.3893 14.2282 18.17C12.3151 15.9495 11.3294 13.6654 11.4738 13.498C11.7715 13.1528 12.1389 12.7266 12.5759 12.2194C12.7683 11.996 12.8603 11.8879 12.9782 11.7441C13.224 11.4446 13.4275 11.1727 13.6041 10.8968ZM20.2864 23.7219L21.3879 22.4439C21.7217 22.0565 21.938 21.8183 22.114 21.654C24.5281 23.6644 25.9263 24.9285 26.4974 25.6165C26.8403 26.0297 26.787 26.7835 26.4889 27.1488C26.0764 27.6544 25.5405 28.2761 24.8828 29.0117C22.2698 32.0431 15.3854 29.7398 9.82202 23.2822C4.25685 16.8226 2.27157 8.83837 4.8649 5.82952C5.58593 4.98034 5.81438 4.71558 6.50939 3.92147C6.76998 3.62373 7.4798 3.55687 7.7968 3.91999C8.41062 4.62311 9.54924 6.3137 11.2242 9.01927C11.1375 9.1441 11.0292 9.28517 10.8974 9.44579C10.8007 9.56368 10.7201 9.65841 10.5439 9.86291C10.1072 10.3698 9.74023 10.7956 9.44291 11.1403C7.5699 13.312 9.16502 17.0082 12.1962 20.5266C15.2253 24.0426 18.414 25.8943 20.2864 23.7219Z" fill="#212425"/>
</svg>
