<svg width="42" height="42" viewBox="0 0 42 42" fill="none" xmlns="http://www.w3.org/2000/svg">
<path d="M39.901 8.42594H27.8044C27.8044 8.42594 27.8044 8.35631 27.8044 8.31651V4.46668C27.8044 3.30738 26.8647 2.36768 25.7054 2.36768H16.2847C15.1254 2.36768 14.1857 3.30738 14.1857 4.46668V8.32646C14.1857 8.32646 14.1857 8.3961 14.1857 8.43589H2.099C0.939703 8.43589 0 9.37559 0 10.5349V37.5335C0 38.6928 0.939703 39.6325 2.099 39.6325H39.901C41.0603 39.6325 42 38.6928 42 37.5335V10.5249C42 9.36564 41.0603 8.42594 39.901 8.42594ZM16.1753 8.30657L16.1952 4.44678C16.1952 4.38635 16.2442 4.33736 16.3046 4.33736H25.7451C25.8056 4.33736 25.8546 4.38635 25.8546 4.44678V8.30657C25.8546 8.367 25.8056 8.41599 25.7451 8.41599H16.2847C16.2243 8.41599 16.1753 8.367 16.1753 8.30657ZM2.099 10.4155H39.901C38.9659 12.1862 34.1014 20.5624 25.0488 22.5718V21.4179C25.049 20.274 24.1332 19.3405 22.9896 19.3189H19.0104C17.8511 19.3189 16.9114 20.2586 16.9114 21.4179V22.5917C7.86878 20.6022 2.98437 12.1962 2.05921 10.4354L2.099 10.4155ZM23.0692 21.4179V27.2076C23.0692 27.268 23.0202 27.317 22.9597 27.317H19.0104C18.95 27.317 18.901 27.268 18.901 27.2076V21.4179C18.901 21.3575 18.95 21.3085 19.0104 21.3085H22.9896C23.0382 21.3221 23.071 21.3674 23.0692 21.4179ZM39.9806 37.5434C39.9806 37.6039 39.9316 37.6528 39.8712 37.6528H2.099C2.03857 37.6528 1.98958 37.6039 1.98958 37.5434V14.136C4.43676 17.6874 9.31123 23.0891 16.9114 24.6211V27.1976C16.9114 28.3569 17.8511 29.2966 19.0104 29.2966H22.9896C24.1489 29.2966 25.0886 28.3569 25.0886 27.1976V24.6211C32.6888 23.109 37.5632 17.6576 40.0104 14.136L39.9806 37.5434Z" fill="white"/>
</svg>
