<svg width="25" height="25" viewBox="0 0 25 25" fill="none" xmlns="http://www.w3.org/2000/svg">
<g clip-path="url(#clip0)">
<path d="M22.8811 2.61922C20.1411 -0.0617371 15.7607 -0.0611539 13.0214 2.62055L1.53247 14.1095C-0.544963 16.2359 -0.505261 19.6438 1.62114 21.7212C3.71257 23.7645 7.05271 23.7645 9.14413 21.7212L19.5475 11.3178C20.9 9.96533 20.9 7.7725 19.5475 6.42005C18.1951 5.06759 16.0023 5.06759 14.6498 6.42005L4.6987 16.3711C4.35161 16.7305 4.36158 17.3032 4.72096 17.6502C5.07155 17.9889 5.62732 17.9889 5.9779 17.6502L15.929 7.6992C16.5888 7.06704 17.6362 7.08957 18.2683 7.74945C18.8814 8.38939 18.8814 9.39869 18.2683 10.0386L7.86498 20.442C6.45957 21.8274 4.1971 21.8112 2.81167 20.4058C1.44023 19.0146 1.44023 16.7799 2.81167 15.3887L14.3006 3.8997C16.3471 1.85248 19.6656 1.8519 21.7128 3.89832C23.76 5.94474 23.7606 9.26331 21.7142 11.3105L10.2252 22.7995C9.84573 23.1245 9.80152 23.6956 10.1265 24.0751C10.4515 24.4545 11.0226 24.4987 11.402 24.1737C11.4375 24.1434 11.4704 24.1105 11.5007 24.0751L22.9897 12.5861C25.712 9.80382 25.6634 5.34147 22.8811 2.61922Z" fill="#419A28"/>
</g>
<defs>
<clipPath id="clip0">
<rect width="25" height="25" fill="white"/>
</clipPath>
</defs>
</svg>
