<svg width="22" height="19" viewBox="0 0 22 19" fill="none" xmlns="http://www.w3.org/2000/svg">
<path d="M12.0971 17.6501C12.0971 17.996 11.8833 18.2931 11.5392 18.4254C11.195 18.5577 10.8177 18.4881 10.5544 18.2435L5.78373 13.8136H2.48641C1.82835 13.8136 1.25222 13.424 1.05285 12.8441C0.843185 12.2345 0.699556 11.5556 0.625934 10.8265C0.610391 10.6727 0.73209 10.5363 0.897729 10.5219C1.06293 10.5071 1.21025 10.6204 1.22575 10.7742C1.29536 11.4634 1.43027 12.1025 1.62676 12.6739C1.74613 13.021 2.09159 13.2542 2.48641 13.2542H5.60729V9.96829H3.38979C3.22343 9.96829 3.08855 9.84305 3.08855 9.68857C3.08855 9.53409 3.22343 9.40885 3.38979 9.40885H7.01032L7.67187 6.82167C7.7036 6.69755 7.82177 6.60909 7.95913 6.60663C8.09577 6.60409 8.21827 6.6883 8.25515 6.81119L9.63894 11.4218L10.151 9.6173C10.1859 9.49448 10.3055 9.40885 10.4423 9.40885H11.7959C11.9622 9.40885 12.0971 9.53409 12.0971 9.68857V17.6501ZM6.20976 13.418L10.9804 17.8479C11.1125 17.9706 11.265 17.9253 11.3087 17.9085C11.3523 17.8917 11.4946 17.8235 11.4946 17.6501V9.96829H10.6745L9.93837 12.5621C9.90371 12.6842 9.78522 12.7697 9.64922 12.7706C9.6485 12.7706 9.64778 12.7706 9.64705 12.7706C9.51194 12.7706 9.39321 12.687 9.3569 12.566L7.98829 8.00593L7.5415 9.7532C7.50925 9.8793 7.38795 9.96832 7.24842 9.96832H6.20976V13.418ZM20.8329 15.7837C20.6666 15.7837 20.5317 15.6585 20.5317 15.504V3.87314C20.5317 3.71866 20.6666 3.59342 20.8329 3.59342C20.9993 3.59342 21.1342 3.71866 21.1342 3.87314V15.504C21.1342 15.6585 20.9993 15.7837 20.8329 15.7837ZM19.0255 13.546C18.8592 13.546 18.7243 13.4207 18.7243 13.2662V6.11089C18.7243 5.95641 18.8592 5.83117 19.0255 5.83117C19.1919 5.83117 19.3268 5.95641 19.3268 6.11089V13.2662C19.3268 13.4207 19.1919 13.546 19.0255 13.546ZM15.4107 13.546C15.2443 13.546 15.1095 13.4207 15.1095 13.2662V6.11089C15.1095 5.95641 15.2443 5.83117 15.4107 5.83117C15.5771 5.83117 15.7119 5.95641 15.7119 6.11089V13.2662C15.7119 13.4207 15.5771 13.546 15.4107 13.546ZM17.2181 12.4271C17.0517 12.4271 16.9169 12.3018 16.9169 12.1474V7.22977C16.9169 7.07529 17.0517 6.95005 17.2181 6.95005C17.3845 6.95005 17.5193 7.07529 17.5193 7.22977V12.1474C17.5193 12.3018 17.3845 12.4271 17.2181 12.4271ZM13.6033 11.3082C13.4369 11.3082 13.302 11.183 13.302 11.0285V8.34864C13.302 8.19416 13.4369 8.06892 13.6033 8.06892C13.7696 8.06892 13.9045 8.19416 13.9045 8.34864V11.0285C13.9045 11.183 13.7696 11.3082 13.6033 11.3082ZM0.87106 9.96829C0.704697 9.96829 0.569824 9.84305 0.569824 9.68857C0.569824 8.24134 0.832502 7.17378 1.05285 6.53304C1.25226 5.95317 1.82839 5.56354 2.48641 5.56354H5.78373L10.5544 1.13365C10.8177 0.889102 11.195 0.819396 11.5392 0.951759C11.8833 1.08412 12.0971 1.38118 12.0971 1.72703V8.56969C12.0971 8.72417 11.9622 8.84941 11.7959 8.84941C11.6295 8.84941 11.4946 8.72417 11.4946 8.56969V1.72703C11.4946 1.5536 11.3523 1.48539 11.3087 1.4686C11.265 1.45182 11.1124 1.40662 10.9804 1.52921L6.20976 5.9591V8.56969C6.20976 8.72417 6.07488 8.84941 5.90852 8.84941C5.74216 8.84941 5.60729 8.72417 5.60729 8.56969V6.12297H2.48641C2.09155 6.12297 1.74609 6.35615 1.62676 6.70322C1.41943 7.30611 1.1723 8.3134 1.1723 9.68857C1.1723 9.84305 1.03742 9.96829 0.87106 9.96829Z" fill="#419A28"/>
</svg>
