<svg width="40" height="40" viewBox="0 0 40 40" fill="none" xmlns="http://www.w3.org/2000/svg">
<path fill-rule="evenodd" clip-rule="evenodd" d="M10.4695 5.85376H24.6266C24.7402 5.85376 24.8495 5.89913 24.93 5.97913L30.6061 11.6552C30.6861 11.7357 30.7315 11.845 30.7315 12.1845V32.683C30.7315 32.8513 30.412 33.1708 30.0178 33.1708H10.4695C10.0754 33.1708 9.75586 32.8513 9.75586 32.683V6.79327C9.75586 6.17327 10.0754 5.85376 10.4695 5.85376ZM15.1846 25.8977C15.3236 26.0016 15.4865 26.0567 15.6563 26.0567C16.0831 26.0567 16.5143 25.7299 17.0143 25.0299C17.3782 24.5187 17.769 23.8216 18.1768 22.9562C19.4831 22.385 21.0992 21.8689 22.4831 21.5796C23.2533 22.3196 23.9441 22.6943 24.5372 22.6943C24.9738 22.6943 25.3485 22.4933 25.6202 22.1133C25.9026 21.7177 25.9665 21.363 25.8104 21.0596C25.6216 20.6928 25.1587 20.5147 24.3948 20.5147C23.9465 20.5147 23.3963 20.5738 22.7568 20.6894C21.8641 19.7421 20.9324 18.3586 20.2748 17.0006C20.9222 14.2751 20.6054 13.8719 20.46 13.6867L20.4568 13.6825C20.4414 13.663 20.4254 13.6421 20.4087 13.6205C20.2599 13.427 20.0628 13.1708 19.8416 13.1708C19.7382 13.1708 19.4572 13.2177 19.346 13.2547C19.0646 13.3484 18.9138 13.565 18.7929 13.8474C18.448 14.6538 18.9211 16.0284 19.408 17.0879C18.9919 18.743 18.2938 20.724 17.5602 22.3318C15.7114 23.1786 14.7294 24.0099 14.6407 24.804C14.6085 25.0928 14.6768 25.5167 15.1846 25.8977ZM15.4568 24.8947C15.4875 24.6235 15.9124 24.1421 16.9548 23.5562C16.1641 25.0157 15.7397 25.2094 15.667 25.2323C15.439 25.0579 15.4518 24.9399 15.4567 24.8949L15.4568 24.8947ZM23.8596 21.5933C23.7897 21.5351 23.7081 21.4671 23.607 21.3894C23.9348 21.3474 24.2446 21.3367 24.4909 21.3362C24.8912 21.3362 24.9897 21.3911 25.0497 21.4244C25.0547 21.4272 25.0595 21.4299 25.0641 21.4323C25.0529 21.4674 25.0246 21.5328 24.9519 21.6347C24.8011 21.845 24.4758 21.8499 24.3616 21.8499C24.1677 21.8499 24.0645 21.7639 23.8596 21.5933ZM18.6587 21.8684C19.1538 20.6884 19.6143 19.3855 19.9631 18.1786C20.5109 19.163 21.169 20.1182 21.8275 20.883C20.7865 21.1274 19.6782 21.4728 18.6587 21.8684ZM19.667 14.0508C19.6192 14.0669 19.0182 14.9079 19.7138 15.6196C20.1768 14.5879 19.688 14.044 19.667 14.0508Z" fill="#FF353E"/>
</svg>
