<svg width="20" height="20" viewBox="0 0 20 20" fill="none" xmlns="http://www.w3.org/2000/svg">
<path fill-rule="evenodd" clip-rule="evenodd" d="M13.5832 12.4167C14.4998 11.2501 14.9998 9.83342 14.9998 8.33342C14.9998 4.66675 11.9998 1.66675 8.33317 1.66675C4.6665 1.66675 1.6665 4.66675 1.6665 8.33342C1.6665 12.0001 4.6665 15.0001 8.33317 15.0001C9.83317 15.0001 11.3332 14.5001 12.4165 13.5834L16.9165 18.0834L18.0832 16.9167L13.5832 12.4167ZM8.33317 13.3334C5.58317 13.3334 3.33317 11.0834 3.33317 8.33342C3.33317 5.58342 5.58317 3.33341 8.33317 3.33341C11.0832 3.33341 13.3332 5.58342 13.3332 8.33342C13.3332 11.0834 11.0832 13.3334 8.33317 13.3334Z" fill="#419A28"/>
</svg>
