<svg id="Capa_1" enable-background="new 0 0 512 512" height="512" viewBox="0 0 512 512" width="512" xmlns="http://www.w3.org/2000/svg"><g><path d="m512 120.39v-16.17c0-8.591-6.989-15.58-15.58-15.58h-216.757v-16.805c9.798-7.262 16.162-18.906 16.162-32.01 0-21.959-17.865-39.825-39.825-39.825-21.959 0-39.825 17.866-39.825 39.825 0 13.105 6.366 24.75 16.165 32.012v16.806h-216.758c-8.592 0-15.582 6.989-15.582 15.581v16.163c0 8.591 6.99 15.581 15.582 15.581h47.688c-1.06 2.685-1.65 5.605-1.65 8.663 0 9.302 5.398 17.365 13.224 21.229l-74.204 167.922.003.001c-.411.927-.643 1.951-.643 3.03v22.224c0 9.706 7.896 17.602 17.602 17.602h2.602v14.724c0 9.706 7.896 17.602 17.602 17.602h94.956c9.706 0 17.602-7.896 17.602-17.602v-14.724h2.602c9.706 0 17.602-7.896 17.602-17.602v-22.224c0-1.079-.232-2.103-.643-3.03l.003-.001-74.207-167.923c7.826-3.864 13.224-11.926 13.224-21.229 0-3.057-.589-5.978-1.65-8.663h125.045v42.812c0 4.142 3.358 7.5 7.5 7.5s7.5-3.358 7.5-7.5v-100.088c2.79.621 5.686.96 8.66.96 2.976 0 5.872-.338 8.663-.96v185.972h-17.323v-50.883c0-4.142-3.358-7.5-7.5-7.5s-7.5 3.358-7.5 7.5v50.883h-.584c-8.591 0-15.581 6.99-15.581 15.582v16.163c0 8.591 6.99 15.581 15.581 15.581h.582v120.361h-57.15c-15.275 0-27.703 12.428-27.703 27.703v4.617h-12.705c-15.273 0-27.7 12.431-27.7 27.71v4.62h-8.666c-4.142 0-7.5 3.358-7.5 7.5s3.358 7.5 7.5 7.5h198.346c4.143 0 7.5-3.358 7.5-7.5s-3.357-7.5-7.5-7.5h-174.68v-4.62c0-7.008 5.697-12.71 12.7-12.71h242.44c7.003 0 12.7 5.702 12.7 12.71v4.62h-58.16c-4.143 0-7.5 3.358-7.5 7.5s3.357 7.5 7.5 7.5h81.825c4.143 0 7.5-3.358 7.5-7.5s-3.357-7.5-7.5-7.5h-8.665v-4.62c0-15.279-12.426-27.71-27.7-27.71h-12.703v-4.617c0-15.275-12.428-27.703-27.703-27.703h-57.15v-120.362h.581c8.592 0 15.581-6.99 15.581-15.581v-16.163c0-8.592-6.989-15.582-15.581-15.582h-.581v-128.692h48.356c4.143 0 7.5-3.358 7.5-7.5s-3.357-7.5-7.5-7.5h-48.356v-17.33h216.756c.32 0 .58.26.58.58v16.17c0 .32-.26.58-.58.58h-133.4c-4.143 0-7.5 3.358-7.5 7.5s3.357 7.5 7.5 7.5h41.684c-1.06 2.684-1.649 5.604-1.649 8.66 0 9.302 5.398 17.365 13.224 21.229l-74.205 167.923.003.001c-.41.927-.643 1.951-.643 3.03v22.224c0 9.706 7.896 17.602 17.602 17.602h2.603v14.724c0 9.706 7.896 17.602 17.602 17.602h94.955c9.705 0 17.602-7.896 17.602-17.602v-14.724h2.602c9.705 0 17.602-7.896 17.602-17.602v-22.224c0-1.079-.232-2.103-.643-3.03l.003-.001-74.204-167.923c7.826-3.864 13.224-11.926 13.224-21.229 0-3.056-.589-5.976-1.649-8.66h47.689c8.589 0 15.578-6.989 15.578-15.58zm-492.986 208.923 58.769-132.992v132.992zm73.769-132.992 58.769 132.992h-58.769zm42.579 195.041c0 1.435-1.167 2.602-2.602 2.602h-94.955c-1.435 0-2.602-1.167-2.602-2.602v-14.724h100.159zm20.203-32.325c0 1.435-1.167 2.602-2.602 2.602h-135.361c-1.435 0-2.602-1.167-2.602-2.602v-14.724h140.565zm-61.62-214.407c0 4.776-3.886 8.663-8.663 8.663s-8.663-3.886-8.663-8.663 3.886-8.663 8.663-8.663 8.663 3.887 8.663 8.663zm-78.363-23.662c-.321 0-.582-.261-.582-.581v-16.163c0-.321.261-.582.582-.582h216.758v17.325h-216.758zm215.593-81.143c0-13.688 11.137-24.825 24.825-24.825s24.825 11.137 24.825 24.825-11.137 24.825-24.825 24.825-24.825-11.136-24.825-24.825zm118.342 420.228v4.617h-187.033v-4.617c0-7.004 5.699-12.703 12.703-12.703h161.626c7.005 0 12.704 5.698 12.704 12.703zm-84.854-27.703h-17.326v-120.362h17.326zm16.162-152.106v16.163c0 .32-.261.581-.581.581h-48.488c-.32 0-.581-.261-.581-.581v-16.163c0-.321.261-.582.581-.582h48.488c.32.001.581.261.581.582zm79.624 49.069 58.769-132.992v132.992zm73.769-132.992 58.768 132.992h-58.768zm42.579 195.041c0 1.435-1.167 2.602-2.602 2.602h-94.955c-1.435 0-2.602-1.167-2.602-2.602v-14.724h100.158v14.724zm20.203-32.325c0 1.435-1.167 2.602-2.602 2.602h-135.362c-1.435 0-2.602-1.167-2.602-2.602v-14.724h140.566zm-61.62-214.407c0 4.776-3.886 8.663-8.662 8.663s-8.663-3.886-8.663-8.663c0-4.76 3.861-8.634 8.615-8.66h.096c4.754.027 8.614 3.9 8.614 8.66z"/></g></svg>