<svg width="27" height="10" viewBox="0 0 27 10" fill="none" xmlns="http://www.w3.org/2000/svg">
<path d="M25.1875 0.12915H1.3743C0.676323 0.12915 0.142578 0.62477 0.142578 1.27289V8.70719C0.142578 9.35531 0.676323 9.85093 1.3743 9.85093H25.1875C25.8855 9.85093 26.4192 9.35531 26.4192 8.70719V1.27289C26.4192 0.662895 25.8855 0.12915 25.1875 0.12915ZM25.5981 8.74531C25.5981 8.97406 25.4339 9.12656 25.1875 9.12656H1.3743C1.12795 9.12656 0.963724 8.97406 0.963724 8.74531V1.27289C0.963724 1.04414 1.12795 0.891643 1.3743 0.891643H25.1875C25.4339 0.891643 25.5981 1.04414 25.5981 1.27289V8.74531Z" fill="#419A28"/>
<path d="M20.4658 2.11157H9.33928C9.09294 2.11157 8.92871 2.26407 8.92871 2.49282V5.39029C8.92871 5.61904 9.09294 5.77153 9.33928 5.77153H20.5069C20.7532 5.77153 20.9174 5.61904 20.9174 5.39029V2.49282C20.8764 2.26407 20.7122 2.11157 20.4658 2.11157ZM20.0552 5.00904H9.74986V2.87406H20.0963V5.00904H20.0552Z" fill="#419A28"/>
<path d="M4.90502 2.11157C3.18062 2.11157 1.78467 3.40781 1.78467 5.00904C1.78467 6.61028 3.18062 7.90651 4.90502 7.90651C6.62943 7.90651 8.02538 6.61028 8.02538 5.00904C8.06643 3.40781 6.62943 2.11157 4.90502 2.11157ZM5.3156 7.1059V6.53403H4.49445V7.14402C3.59119 6.99152 2.85216 6.3434 2.64687 5.46654H3.34485V4.70405H2.64687C2.77004 3.78906 3.55013 3.06469 4.53551 2.91219V3.63656H5.35665V2.91219C6.34203 3.06469 7.08106 3.78906 7.24529 4.70405H6.50626V5.46654H7.20423C6.95789 6.30528 6.25991 6.9534 5.3156 7.1059Z" fill="#419A28"/>
<path d="M23.0934 2.07373C22.2312 2.07373 21.5332 2.72185 21.5332 3.52247C21.5332 4.32309 22.2312 4.9712 23.0934 4.9712C23.9556 4.9712 24.6536 4.32309 24.6536 3.52247C24.6536 2.68373 23.9556 2.07373 23.0934 2.07373ZM23.0934 4.17059C22.6828 4.17059 22.3543 3.86559 22.3543 3.48434C22.3543 3.1031 22.6828 2.7981 23.0934 2.7981C23.504 2.7981 23.8324 3.1031 23.8324 3.48434C23.8324 3.86559 23.504 4.17059 23.0934 4.17059Z" fill="#419A28"/>
<path d="M23.0934 5.39038C22.2312 5.39038 21.5332 6.0385 21.5332 6.83912C21.5332 7.63973 22.2312 8.28785 23.0934 8.28785C23.9556 8.28785 24.6536 7.63973 24.6536 6.83912C24.6536 6.0385 23.9556 5.39038 23.0934 5.39038ZM23.0934 7.48724C22.6828 7.48724 22.3543 7.18224 22.3543 6.80099C22.3543 6.41975 22.6828 6.11475 23.0934 6.11475C23.504 6.11475 23.8324 6.41975 23.8324 6.80099C23.8324 7.18224 23.504 7.48724 23.0934 7.48724Z" fill="#419A28"/>
<path d="M20.4663 7.3728H19.0293V8.1353H20.4663V7.3728Z" fill="#419A28"/>
<path d="M18.331 7.3728H16.894V8.1353H18.331V7.3728Z" fill="#419A28"/>
<path d="M16.1553 7.3728H14.7183V8.1353H16.1553V7.3728Z" fill="#419A28"/>
<path d="M14.02 7.3728H12.583V8.1353H14.02V7.3728Z" fill="#419A28"/>
<path d="M11.8437 7.3728H10.4067V8.1353H11.8437V7.3728Z" fill="#419A28"/>
<path d="M9.70898 7.3728H8.27197V8.1353H9.70898V7.3728Z" fill="#419A28"/>
</svg>
