<svg width="99" height="100" viewBox="0 0 99 100" fill="none" xmlns="http://www.w3.org/2000/svg">
<path fill-rule="evenodd" clip-rule="evenodd" d="M54.5147 0.105957C65.8168 0.812338 76.4125 6.46339 84.1827 14.2336C93.3657 24.1229 98.3103 36.1314 98.3103 50.259C98.3103 61.5611 94.072 72.1568 87.0082 81.3398C79.9444 89.8164 70.0551 96.1738 58.753 98.2929C47.4509 100.412 36.1488 98.9993 26.2595 93.3483C16.3701 87.6972 8.59995 79.2206 4.36166 68.6249C0.123378 58.0292 -0.583004 46.0207 2.9489 35.425C6.48081 24.1229 12.8382 14.94 22.7276 8.58253C31.9105 2.2251 43.2126 -0.600424 54.5147 0.105957ZM58.0466 91.2291C67.2296 89.11 75.7061 84.1653 82.0636 76.3951C87.7146 68.6249 91.2465 59.442 90.5401 49.5526C90.5401 38.2505 86.3019 26.9484 78.5317 19.1782C71.4679 12.1144 62.9913 7.87615 53.102 7.16977C43.919 6.46339 34.0297 8.58253 26.2595 14.2336C18.4893 19.8846 12.8382 27.6548 10.0127 37.5442C7.18719 46.7271 7.18719 56.6164 11.4255 65.7994C15.6638 74.9824 22.0212 82.0462 30.4978 86.9908C38.9743 91.9355 48.8637 93.3483 58.0466 91.2291ZM49.57 46.0207L66.5232 28.3612L71.4679 33.3059L54.5147 50.9654L71.4679 68.6249L66.5232 73.5696L49.57 55.9101L32.6169 73.5696L27.6722 68.6249L44.6254 50.9654L27.6722 33.3059L32.6169 28.3612L49.57 46.0207Z" fill="#FF3514"/>
</svg>
