<svg width="42" height="42" viewBox="0 0 42 42" fill="none" xmlns="http://www.w3.org/2000/svg">
<path d="M40.2377 1.96226C40.2377 1.96226 40.2377 1.96226 40.2275 1.96226L29.8676 1.21863C29.3073 1.17788 28.8183 1.60572 28.7878 2.166C28.747 2.72627 29.1647 3.20505 29.725 3.24579L37.4465 3.79588L23.4907 14.655L13.0798 6.45462C12.6825 6.13883 12.1121 6.16939 11.7453 6.51574L1.13073 16.6923C0.72326 17.0794 0.713073 17.7314 1.10017 18.1286C1.29372 18.3324 1.55857 18.4444 1.83362 18.4444C2.09847 18.4444 2.35314 18.3426 2.5365 18.1592L12.5093 8.59384L22.8591 16.7432C23.2258 17.0285 23.7453 17.0387 24.1121 16.7432L38.9542 5.21184L38.3939 12.5259C38.3531 13.0862 38.7708 13.5752 39.3311 13.6159C39.3616 13.6159 39.382 13.6159 39.4126 13.6159C39.9423 13.6159 40.3905 13.2084 40.4312 12.6787L41.1749 3.05224C41.2156 2.49197 40.798 2.00301 40.2377 1.96226Z" fill="white"/>
<path d="M40.9813 38.7466H38.3226V21.0726C38.3226 20.5123 37.8234 20.1049 37.2632 20.1049H30.7844C30.2241 20.1049 29.7759 20.5123 29.7759 21.0726V38.7466H25.2937V24.3222C25.2835 23.7517 24.8353 23.2729 24.2547 23.2628H17.7759C17.2054 23.2831 16.747 23.7517 16.7368 24.3222V38.7466H12.2547V28.6617C12.2547 28.1015 11.8065 27.6431 11.2462 27.6431H4.74703C4.18676 27.6431 3.68761 28.1015 3.68761 28.6617V38.7466H1.01868C0.458404 38.7466 0 39.205 0 39.7653C0 40.3256 0.458404 40.784 1.01868 40.784H40.9813C41.5416 40.784 42 40.3256 42 39.7653C42 39.205 41.5518 38.7466 40.9813 38.7466ZM10.2071 38.7466H5.72496V29.6804H10.2071V38.7466ZM23.2462 38.7466H18.764V25.3001H23.2462V38.7466ZM36.2852 38.7466H31.8031V22.1422H36.2852V38.7466Z" fill="white"/>
</svg>
