<svg width="45" height="38" viewBox="0 0 45 38" fill="none" xmlns="http://www.w3.org/2000/svg">
<path d="M32.2405 0.000870941C28.4866 -0.0191904 24.918 1.62943 22.4999 4.50082C20.0971 1.60981 16.5185 -0.0435038 12.7594 0.000870941C5.71256 0.000870941 0 5.71344 0 12.7603C0 24.8363 21.0759 36.6273 21.9304 37.0831C22.2751 37.3135 22.7248 37.3135 23.0696 37.0831C23.9241 36.6273 45 25.0072 45 12.7603C45 5.71344 39.2873 0.000870941 32.2405 0.000870941ZM22.4999 34.8046C19.1962 32.8679 2.27848 22.5578 2.27848 12.7603C2.27848 6.97185 6.97097 2.27925 12.7595 2.27925C16.3043 2.23269 19.6216 4.02065 21.5317 7.00706C21.9195 7.54185 22.6675 7.66102 23.2023 7.27309C23.3045 7.19895 23.3943 7.10922 23.4683 7.00706C26.6362 2.16237 33.1317 0.802996 37.9764 3.97083C40.9422 5.91012 42.7273 9.21664 42.7214 12.7602C42.7215 22.6717 25.8037 32.9248 22.4999 34.8046Z" fill="white"/>
</svg>
