<svg width="18" height="18" viewBox="0 0 18 18" fill="none" xmlns="http://www.w3.org/2000/svg">
<g clip-path="url(#clip0)">
<path d="M17.7363 3.44038C17.882 3.44038 18 3.32233 18 3.17671V0.847047C18 0.70143 17.882 0.583375 17.7363 0.583375L11.5934 0.58334V0.264648C11.5934 0.119031 11.4754 0.000976562 11.3297 0.000976562H6.67034C6.52468 0.000976562 6.40666 0.119031 6.40666 0.264648V0.583375H3.24084C3.09519 0.583375 2.97717 0.70143 2.97717 0.847047C2.97717 0.992664 3.09519 1.11072 3.24084 1.11072H6.40666V1.42945C6.40666 1.57506 6.52468 1.69312 6.67034 1.69312H11.3297C11.4754 1.69312 11.5934 1.57506 11.5934 1.42945V1.11068L17.4727 1.11072V2.91304H0.527344V1.11072H2.19083C2.33648 1.11072 2.4545 0.992664 2.4545 0.847047C2.4545 0.70143 2.33648 0.583375 2.19083 0.583375H0.263672C0.11802 0.583375 0 0.70143 0 0.847047V3.17671C0 3.32233 0.11802 3.44038 0.263672 3.44038H0.582469V6.96177C0.582469 6.96202 0.582434 6.96223 0.582434 6.96244C0.582434 6.96265 0.582469 6.9629 0.582469 6.96311V10.4845H0.263672C0.11802 10.4845 0 10.6026 0 10.7482V17.7372C0 17.8828 0.11802 18.0009 0.263672 18.0009H3.75785C3.75796 18.0009 3.75806 18.0009 3.7582 18.0009H6.67034H11.3298H14.2418C14.2419 18.0009 14.242 18.0009 14.2421 18.0009H17.7363C17.882 18.0009 18 17.8828 18 17.7372V10.7481C18 10.6025 17.882 10.4845 17.7363 10.4845H17.4176V3.44038H17.7363ZM6.93401 1.16577V0.52832H11.066V1.16577H6.93401ZM16.682 7.22615L15.9891 8.3522L15.2961 7.22615H16.682ZM15.2961 6.6988L15.9891 5.57275L16.682 6.6988H15.2961ZM16.682 10.4844H15.2962L15.9891 9.35841L16.682 10.4844ZM16.2987 8.85532L16.8903 7.89398V9.81667L16.2987 8.85532ZM16.2987 5.06963L16.8903 4.10828V6.03101L16.2987 5.06963ZM16.6821 3.44038L15.9891 4.56651L15.2961 3.44038H16.6821ZM15.0879 4.10835L15.6795 5.06959L15.0879 6.03087V4.10835ZM15.0879 7.89405L15.6795 8.85532L15.0879 9.8166V7.89405ZM2.7039 7.22615L2.01097 8.3522L1.31801 7.22615H2.7039ZM1.31801 6.6988L2.01094 5.57275L2.7039 6.6988H1.31801ZM2.70397 10.4845H1.31797L2.01097 9.35841L2.70397 10.4845ZM2.32059 8.85529L2.91217 7.89394V9.81664L2.32059 8.85529ZM2.32056 5.06963L2.91217 4.10828V6.03101L2.32056 5.06963ZM2.70394 3.44038L2.01097 4.56651L1.31797 3.44038H2.70394ZM1.10981 4.10835L1.70135 5.06963L1.10981 6.03087V4.10835ZM1.10981 7.89408L1.70135 8.85532L1.10981 9.8166V7.89408ZM3.49453 14.2421C3.49453 14.2423 3.4945 14.2425 3.4945 14.2427C3.4945 14.2429 3.49453 14.2432 3.49453 14.2434V15.4068C3.49453 15.407 3.4945 15.4072 3.4945 15.4074C3.4945 15.4076 3.49453 15.4079 3.49453 15.4081V17.4736H0.527344V11.0119H3.49453V14.2421ZM11.0661 17.4736H6.93397V16.8361H11.0661V17.4736ZM13.9781 17.4736H11.5934V16.5724C11.5934 16.4268 11.4754 16.3088 11.3298 16.3088H6.6703C6.52465 16.3088 6.40663 16.4268 6.40663 16.5724V17.4736H4.02187V15.6711H13.9781V17.4736ZM13.9781 15.1438H4.02187V14.5064H13.9781V15.1438ZM8.76294 13.9791L9.00004 13.742L9.23713 13.9791H8.76294ZM14.2418 10.4844C14.0961 10.4845 13.9781 10.6025 13.9781 10.7481V13.9791H9.98286L9.26371 13.2599V10.275L9.7689 9.76984C9.87191 9.66687 9.87191 9.49995 9.76894 9.39698C9.66597 9.294 9.49901 9.29397 9.39604 9.39698L8.81388 9.97909C8.81367 9.97927 8.8135 9.97948 8.81328 9.97969L8.52237 10.2706C8.41936 10.3735 8.41936 10.5405 8.52233 10.6434C8.57384 10.6949 8.6413 10.7207 8.7088 10.7207C8.71798 10.7207 8.72719 10.7201 8.73633 10.7191V13.2599L8.01717 13.9791H4.02187V10.7482C4.02187 10.6026 3.90386 10.4846 3.7582 10.4846H3.43951V3.44038H4.90071V4.07787H4.34064C4.27071 4.07787 4.20367 4.10564 4.15417 4.15511C4.10474 4.20457 4.07696 4.27162 4.07696 4.34158L4.077 5.16529C4.077 5.23521 4.10477 5.30229 4.1542 5.35172L5.20323 6.40075L5.18379 6.42019C5.08082 6.52316 5.08082 6.69012 5.18379 6.79309C5.23529 6.8446 5.30279 6.87033 5.37026 6.87033C5.43772 6.87033 5.50522 6.8446 5.55673 6.79309L5.76257 6.58725C5.7626 6.58722 5.7626 6.58722 5.76264 6.58718L6.58635 5.76347C6.58638 5.76344 6.58642 5.7634 6.58645 5.76337L6.79222 5.55756C6.8952 5.45459 6.8952 5.28763 6.79222 5.18469C6.68922 5.08169 6.52229 5.08172 6.41932 5.18469L6.39984 5.2041L5.42805 4.23231V3.44038H12.572V4.23228L11.6002 5.2041L11.5807 5.18466C11.4777 5.08169 11.3108 5.08169 11.2078 5.18466C11.1049 5.28763 11.1049 5.45459 11.2078 5.55753L12.4434 6.79306C12.4949 6.84453 12.5624 6.8703 12.6298 6.8703C12.6973 6.8703 12.7648 6.84456 12.8163 6.79306C12.9193 6.69008 12.9193 6.52313 12.8163 6.42016L12.7969 6.40071L13.8459 5.35169C13.8953 5.30226 13.9231 5.23518 13.9231 5.16525L13.9231 4.34154C13.9231 4.27162 13.8954 4.20454 13.8459 4.15507C13.7965 4.10564 13.7294 4.07784 13.6595 4.07784H13.0994V3.44038H14.5607V6.96177C14.5607 6.96202 14.5606 6.96223 14.5606 6.96244C14.5606 6.96265 14.5607 6.9629 14.5607 6.96311V10.4844H14.2418ZM5.05515 4.60521L6.02694 5.577L5.57613 6.02785L4.60434 5.05602L4.60431 4.60521H5.05515ZM12.9449 4.60518H13.3957L13.3957 5.05599L12.4239 6.02781L11.9731 5.577L12.9449 4.60518ZM17.4727 11.0118V17.4736H14.5055V11.0118H14.8228C14.8232 11.0118 14.8236 11.0119 14.824 11.0119C14.8245 11.0119 14.8249 11.0118 14.8254 11.0118H17.1529C17.1533 11.0118 17.1536 11.0118 17.1539 11.0118C17.1543 11.0118 17.1546 11.0118 17.1549 11.0118H17.4727Z" fill="#419A28"/>
<path d="M15.989 11.3572C15.2816 11.3572 14.7061 11.9327 14.7061 12.6401C14.7061 13.3475 15.2816 13.9231 15.989 13.9231C16.6964 13.9231 17.2719 13.3475 17.2719 12.6401C17.2719 11.9327 16.6964 11.3572 15.989 11.3572ZM15.989 13.3957C15.5723 13.3957 15.2334 13.0567 15.2334 12.6401C15.2334 12.2235 15.5724 11.8845 15.989 11.8845C16.4056 11.8845 16.7445 12.2235 16.7445 12.6401C16.7445 13.0567 16.4056 13.3957 15.989 13.3957Z" fill="#419A28"/>
<path d="M15.9893 12.9131C16.1401 12.9131 16.2624 12.7909 16.2624 12.6401C16.2624 12.4893 16.1401 12.3671 15.9893 12.3671C15.8385 12.3671 15.7163 12.4893 15.7163 12.6401C15.7163 12.7909 15.8385 12.9131 15.9893 12.9131Z" fill="#419A28"/>
<path d="M15.989 14.5604C15.2816 14.5604 14.7061 15.1359 14.7061 15.8434C14.7061 16.5508 15.2816 17.1263 15.989 17.1263C16.6964 17.1263 17.2719 16.5508 17.2719 15.8434C17.2719 15.1359 16.6964 14.5604 15.989 14.5604ZM15.989 16.5989C15.5723 16.5989 15.2334 16.26 15.2334 15.8434C15.2334 15.4267 15.5724 15.0878 15.989 15.0878C16.4056 15.0878 16.7445 15.4267 16.7445 15.8434C16.7445 16.26 16.4056 16.5989 15.989 16.5989Z" fill="#419A28"/>
<path d="M15.9893 16.1166C16.1401 16.1166 16.2624 15.9944 16.2624 15.8436C16.2624 15.6928 16.1401 15.5706 15.9893 15.5706C15.8385 15.5706 15.7163 15.6928 15.7163 15.8436C15.7163 15.9944 15.8385 16.1166 15.9893 16.1166Z" fill="#419A28"/>
<path d="M2.01095 11.3572C1.30354 11.3572 0.728027 11.9327 0.728027 12.6401C0.728027 13.3475 1.30354 13.9231 2.01095 13.9231C2.71837 13.9231 3.29391 13.3475 3.29391 12.6401C3.29391 11.9327 2.71837 11.3572 2.01095 11.3572ZM2.01095 13.3957C1.59435 13.3957 1.25537 13.0567 1.25537 12.6401C1.25537 12.2235 1.59435 11.8845 2.01095 11.8845C2.42762 11.8845 2.76656 12.2235 2.76656 12.6401C2.76656 13.0567 2.42762 13.3957 2.01095 13.3957Z" fill="#419A28"/>
<path d="M2.01082 12.9131C2.1616 12.9131 2.28384 12.7909 2.28384 12.6401C2.28384 12.4893 2.1616 12.3671 2.01082 12.3671C1.86003 12.3671 1.73779 12.4893 1.73779 12.6401C1.73779 12.7909 1.86003 12.9131 2.01082 12.9131Z" fill="#419A28"/>
<path d="M2.01095 14.5604C1.30354 14.5604 0.728027 15.1359 0.728027 15.8434C0.728027 16.5508 1.30354 17.1263 2.01095 17.1263C2.71837 17.1263 3.29391 16.5508 3.29391 15.8434C3.29391 15.1359 2.71837 14.5604 2.01095 14.5604ZM2.01095 16.5989C1.59435 16.5989 1.25537 16.26 1.25537 15.8434C1.25537 15.4267 1.59435 15.0878 2.01095 15.0878C2.42762 15.0878 2.76656 15.4267 2.76656 15.8434C2.76656 16.26 2.42762 16.5989 2.01095 16.5989Z" fill="#419A28"/>
<path d="M2.01082 16.1166C2.1616 16.1166 2.28384 15.9944 2.28384 15.8436C2.28384 15.6928 2.1616 15.5706 2.01082 15.5706C1.86003 15.5706 1.73779 15.6928 1.73779 15.8436C1.73779 15.9944 1.86003 16.1166 2.01082 16.1166Z" fill="#419A28"/>
</g>
<defs>
<clipPath id="clip0">
<rect width="18" height="18" fill="white"/>
</clipPath>
</defs>
</svg>
