<svg width="37" height="37" viewBox="0 0 37 37" fill="none" xmlns="http://www.w3.org/2000/svg">
<g clip-path="url(#clip0)">
<path d="M30.9689 5.98517C31.0106 5.68874 30.804 5.41471 30.5075 5.37308C30.2119 5.33168 29.9371 5.538 29.8955 5.8345C29.8827 5.92527 29.587 8.08846 29.8993 10.7926C30.3185 14.4215 31.6523 17.2728 33.7566 19.0385C33.8582 19.1237 33.9818 19.1653 34.1047 19.1653C34.2594 19.1653 34.413 19.0994 34.5201 18.9717C34.7126 18.7424 34.6827 18.4005 34.4533 18.2081C29.8665 14.3595 30.9553 6.08432 30.9689 5.98517Z" fill="white"/>
<path d="M34.3842 5.66824C34.0947 5.59207 33.7983 5.76501 33.7221 6.05443C33.6627 6.28026 32.2836 11.6314 33.7358 15.6979C33.815 15.9196 34.0236 16.0577 34.2462 16.0577C34.3067 16.0577 34.3682 16.0475 34.4285 16.026C34.7103 15.9253 34.8573 15.6152 34.7566 15.3333C33.4183 11.5861 34.7567 6.38223 34.7704 6.33012C34.8465 6.0407 34.6736 5.74441 34.3842 5.66824Z" fill="white"/>
<path d="M36.458 0C36.1586 0 35.916 0.242668 35.916 0.541992C35.916 1.21493 34.9556 1.98275 33.2811 2.64861C33.0029 2.75917 32.8671 3.07432 32.9777 3.35247C33.0883 3.63063 33.4034 3.76656 33.6816 3.65585C34.6276 3.2797 35.3732 2.87184 35.916 2.43448V20.4828H34.2494C31.1396 18.7026 29.0594 16.0469 28.0668 12.5857C27.2764 9.82979 27.3298 7.10292 27.5451 5.1808C29.0108 4.95749 30.3688 4.67812 31.5815 4.34634C31.8702 4.26736 32.0402 3.96926 31.9612 3.68056C31.8822 3.39186 31.584 3.22189 31.2954 3.3008C27.9224 4.22371 23.3783 4.73195 18.5 4.73195C13.7484 4.73195 9.2878 4.24618 5.93987 3.36404C2.35962 2.42075 1.08398 1.28777 1.08398 0.541992C1.08398 0.242668 0.841389 0 0.541992 0C0.242596 0 0 0.242668 0 0.541992V36.458C0 36.7573 0.242596 37 0.541992 37H36.458C36.7574 37 37 36.7573 37 36.458V0.541992C37 0.242668 36.7574 0 36.458 0ZM34.5542 21.5667H35.916V31.7031C35.2696 31.0727 34.3872 30.6833 33.4151 30.6833H32.831L34.5542 21.5667ZM26.4388 5.33624C26.2383 7.34125 26.2239 10.0915 27.0249 12.8845C28.0758 16.549 30.2536 19.3791 33.501 21.3024L32.2942 27.6871H10.1158C9.81642 27.6871 9.57382 27.9298 9.57382 28.2291C9.57382 28.5284 9.81642 28.7711 10.1158 28.7711H32.0893L31.7279 30.6833H27.5289C26.2464 30.6833 25.1197 31.3606 24.4861 32.3759C23.8524 31.3606 22.7257 30.6833 21.4432 30.6833H15.5569C14.2744 30.6833 13.1477 31.3606 12.514 32.3759C11.8803 31.3606 10.7536 30.6833 9.47113 30.6833H5.27214L4.91067 28.7711H7.96656C8.26596 28.7711 8.50855 28.5284 8.50855 28.2291C8.50855 27.9298 8.26596 27.6871 7.96656 27.6871H4.70579L3.49896 21.3024C6.74643 19.3791 8.92423 16.5489 9.97511 12.8845C10.7762 10.091 10.7617 7.34016 10.561 5.33508C13.0055 5.64958 15.7053 5.81594 18.5 5.81594C21.3009 5.81594 23.998 5.6503 26.4388 5.33624ZM2.44576 21.5667L4.169 30.6833H3.58488C2.61276 30.6833 1.7304 31.0728 1.08398 31.7032V21.5667H2.44576ZM5.66375 4.41225C6.81219 4.71483 8.08667 4.97173 9.45473 5.18C9.67015 7.10212 9.72356 9.82935 8.93312 12.5857C7.94055 16.0469 5.86031 18.7027 2.75057 20.4828H1.08398V2.42935C2.21147 3.33889 4.03611 3.98343 5.66375 4.41225ZM1.08398 34.2681C1.08398 32.8891 2.20584 31.7672 3.58488 31.7672H4.82077C4.82127 31.7672 4.82185 31.7673 4.82236 31.7673C4.82286 31.7673 4.82337 31.7672 4.82387 31.7672H9.47106C10.8501 31.7672 11.972 32.8891 11.972 34.2681V35.916H1.08398V34.2681ZM13.056 34.2681C13.056 32.8891 14.1779 31.7672 15.5568 31.7672H21.4431C22.8221 31.7672 23.9439 32.8891 23.9439 34.2681V35.916H13.056V34.2681ZM25.028 34.2681C25.028 32.8891 26.1498 31.7672 27.5289 31.7672H32.1761C32.1766 31.7672 32.1771 31.7673 32.1776 31.7673C32.1781 31.7673 32.1787 31.7672 32.1792 31.7672H33.415C34.7941 31.7672 35.9159 32.8891 35.9159 34.2681V35.916H25.028V34.2681Z" fill="white"/>
<path d="M18.5 3.3799C24.0025 3.3799 28.5661 2.38228 29.856 0.897506C30.0524 0.671532 30.0283 0.32921 29.8023 0.132864C29.5764 -0.0634819 29.2341 -0.0394174 29.0377 0.186557C28.5635 0.732452 27.2498 1.26693 25.4336 1.65297C23.4832 2.06763 21.0208 2.29592 18.5 2.29592C12.8457 2.29592 8.85066 1.20912 7.96237 0.186557C7.76595 -0.0394174 7.42363 -0.0634096 7.19773 0.132864C6.97175 0.329137 6.94769 0.671459 7.14403 0.897506C8.4339 2.38235 12.9975 3.3799 18.5 3.3799Z" fill="white"/>
<path d="M2.54659 18.2081C2.31721 18.4005 2.2873 18.7424 2.47974 18.9717C2.58691 19.0994 2.74047 19.1653 2.89519 19.1653C3.01812 19.1653 3.14176 19.1236 3.24323 19.0385C5.34767 17.2728 6.68148 14.4214 7.10062 10.7926C7.41288 8.08845 7.11717 5.92525 7.10445 5.83448C7.0629 5.53805 6.78858 5.33173 6.49243 5.37307C6.19593 5.41469 5.98939 5.68872 6.03102 5.98516C6.04265 6.06834 7.1455 14.3493 2.54659 18.2081Z" fill="white"/>
<path d="M2.57146 16.026C2.63173 16.0475 2.69322 16.0577 2.75371 16.0577C2.97629 16.0577 3.18499 15.9195 3.26412 15.6979C4.71637 11.6314 3.33726 6.28026 3.27778 6.05443C3.20161 5.76501 2.90518 5.59207 2.61597 5.66824C2.32648 5.74426 2.15354 6.04063 2.22942 6.33005C2.24308 6.38215 3.58144 11.586 2.24315 15.3333C2.1427 15.6152 2.28962 15.9253 2.57146 16.026Z" fill="white"/>
</g>
<defs>
<clipPath id="clip0">
<rect width="37" height="37" fill="white"/>
</clipPath>
</defs>
</svg>
