<svg width="18" height="18" viewBox="0 0 18 18" fill="none" xmlns="http://www.w3.org/2000/svg">
<path d="M10.5456 8.82137C10.5458 8.58017 10.5042 8.34076 10.4227 8.11377L12.4763 6.06018C12.5931 5.94315 12.593 5.75359 12.4759 5.63675C12.4432 5.604 12.4032 5.57934 12.3593 5.56467L8.61943 4.31856L5.27781 0.97994C4.92658 0.629903 4.35839 0.629903 4.00715 0.97994L3.8326 1.15449V0.299401C3.8326 0.134057 3.69855 0 3.5332 0H2.3356C2.17025 0 2.0362 0.134057 2.0362 0.299401V2.9509L0.620926 4.36617C0.270889 4.7174 0.270889 5.28559 0.620926 5.63683L3.95955 8.97844L5.20596 12.7183C5.2387 12.8168 5.32018 12.8914 5.42123 12.9153C5.44372 12.9204 5.46674 12.923 5.48979 12.9231C5.56921 12.9231 5.64533 12.8915 5.70147 12.8353L7.75147 10.7853C7.97688 10.867 8.21471 10.9089 8.45446 10.9093C9.60847 10.9102 10.5447 9.97541 10.5456 8.82137ZM2.635 0.598802H3.2338V4.49102H2.635V0.598802ZM1.04428 5.21347C0.927588 5.09659 0.927588 4.9073 1.04428 4.79042L2.0362 3.79761V4.79042C2.0362 4.95576 2.17025 5.08982 2.3356 5.08982H3.5332C3.69855 5.08982 3.8326 4.95576 3.8326 4.79042V2.0012L4.43141 1.4024C4.54817 1.28533 4.73777 1.28507 4.85483 1.40187C4.85502 1.40206 4.85521 1.40225 4.85536 1.4024L8.0326 4.57605L4.21853 8.39072L1.04428 5.21347ZM5.62093 12.0695L4.56254 8.89581L8.5353 4.92156L11.709 5.97994L5.62093 12.0695ZM8.66599 10.2952C8.52553 10.3153 8.38294 10.3153 8.24248 10.2952L9.9362 8.6015C10.0532 9.41995 9.48448 10.1783 8.66599 10.2952Z" fill="#419A28"/>
<path d="M15.2284 15.164L11.4176 11.3532C11.2986 11.2383 11.1091 11.2416 10.9942 11.3606C10.8821 11.4766 10.8821 11.6606 10.9942 11.7766L14.805 15.5874C14.9199 15.7063 15.1094 15.7096 15.2284 15.5947C15.3473 15.4798 15.3506 15.2903 15.2357 15.1713C15.2333 15.1688 15.2308 15.1664 15.2284 15.164Z" fill="#419A28"/>
<path d="M17.6307 6.92187C17.6307 6.92183 17.6307 6.92183 17.6307 6.92179C17.5878 6.76206 17.4237 6.6673 17.264 6.71011C17.2639 6.71011 17.2639 6.71011 17.2639 6.71011L12.0585 8.10473C11.8988 8.14746 11.8039 8.31161 11.8467 8.47134C11.8817 8.60211 12.0001 8.69312 12.1354 8.69335C12.1617 8.69335 12.1879 8.68991 12.2133 8.68317L17.419 7.28856C17.5787 7.24574 17.6735 7.08156 17.6307 6.92187Z" fill="#419A28"/>
<path d="M7.81468 12.206C7.65499 12.1631 7.49076 12.2579 7.44791 12.4176C7.44791 12.4176 7.44791 12.4176 7.44791 12.4177L6.0518 17.623C6.00895 17.7827 6.10371 17.947 6.26341 17.9898C6.26344 17.9898 6.26344 17.9898 6.26348 17.9898C6.28889 17.9965 6.31505 18 6.34133 18C6.47673 17.9998 6.59518 17.9089 6.63025 17.7781L8.02426 12.5724C8.06707 12.4134 7.97344 12.2497 7.81468 12.206Z" fill="#419A28"/>
<path d="M15.297 10.6677H15.2964L11.8267 9.73743C11.6667 9.69544 11.503 9.79106 11.4611 9.95101C11.4194 10.1099 11.5134 10.2726 11.6719 10.3159L15.1419 11.2461C15.1673 11.2529 15.1935 11.2563 15.2198 11.2563C15.3851 11.2562 15.5191 11.1221 15.519 10.9567C15.5189 10.8213 15.4279 10.7027 15.297 10.6677Z" fill="#419A28"/>
<path d="M10.8872 15.5015L9.95697 12.0303C9.91345 11.8707 9.74889 11.7767 9.58935 11.8202C9.43089 11.8634 9.33684 12.0262 9.37853 12.1851L10.3088 15.6554C10.3438 15.7862 10.4623 15.8772 10.5977 15.8773C10.6238 15.8778 10.6499 15.8748 10.6752 15.8683C10.835 15.8256 10.9299 15.6616 10.8873 15.5018C10.8873 15.5017 10.8873 15.5016 10.8872 15.5015Z" fill="#419A28"/>
</svg>
