<svg width="45" height="45" viewBox="0 0 45 45" fill="none" xmlns="http://www.w3.org/2000/svg">
<path d="M32.6057 14.502H39.0253C39.6272 15.3019 40.5842 15.8203 41.6602 15.8203C43.4776 15.8203 44.9561 14.3418 44.9561 12.5244C44.9561 10.707 43.4776 9.22852 41.6602 9.22852C40.5842 9.22852 39.6272 9.74689 39.0253 10.547C39.0247 10.547 39.0241 10.5469 39.0235 10.5469H32.6058C32.4077 10.2837 32.171 10.0515 31.9044 9.85772V7.58672L34.2616 5.22949H38.9936C39.5932 6.05417 40.5649 6.5918 41.6602 6.5918C43.4776 6.5918 44.9561 5.1133 44.9561 3.2959C44.9561 1.4785 43.4776 0 41.6602 0C40.6042 0 39.6634 0.499658 39.0598 1.27441H33.4424C32.9142 1.27441 32.4176 1.48008 32.044 1.85361L28.5284 5.36924C28.1549 5.74277 27.9492 6.23936 27.9492 6.76758V9.92408C26.9568 10.6842 26.4087 12.1206 26.8096 13.4557L24.2757 16.8541C23.702 16.6687 23.0907 16.5675 22.4561 16.5675C19.1848 16.5675 16.5234 19.2288 16.5234 22.5001C16.5234 25.7714 19.1848 28.4327 22.4561 28.4327C23.08 28.4327 23.6814 28.3353 24.2467 28.1559L26.8058 31.5578C26.721 31.8494 26.6748 32.1571 26.6748 32.4756C26.6748 33.5315 27.1745 34.4724 27.9492 35.0759V38.2324C27.9492 38.7606 28.1549 39.2572 28.5284 39.6308L32.044 43.1464C32.4176 43.5199 32.9142 43.7256 33.4424 43.7256H39.0598C39.6635 44.5003 40.6042 45 41.6602 45C43.4776 45 44.9561 43.5215 44.9561 41.7041C44.9561 39.8867 43.4776 38.4082 41.6602 38.4082C40.5648 38.4082 39.5931 38.9458 38.9935 39.7705H34.2615L31.9043 37.4133V35.1423C32.1708 34.9485 32.4076 34.7163 32.6057 34.4531H39.0253C39.6272 35.2531 40.5842 35.7715 41.6602 35.7715C43.4776 35.7715 44.9561 34.293 44.9561 32.4756C44.9561 30.6582 43.4776 29.1797 41.6602 29.1797C40.5842 29.1797 39.6272 29.6981 39.0253 30.4981C39.0247 30.4981 39.0241 30.498 39.0235 30.498H32.6058C32.0039 29.6981 31.0468 29.1797 29.9708 29.1797C29.9693 29.1797 29.9677 29.1798 29.9662 29.1798L27.4022 25.7711C27.6676 25.3711 27.8856 24.9373 28.0486 24.4775H39.0235C39.0241 24.4775 39.0247 24.4775 39.0253 24.4775C39.6272 25.2775 40.5843 25.7959 41.6602 25.7959C43.4776 25.7959 44.9561 24.3174 44.9561 22.5C44.9561 20.6826 43.4776 19.2041 41.6602 19.2041C40.5842 19.2041 39.6272 19.7225 39.0253 20.5225C39.0247 20.5225 39.0241 20.5225 39.0235 20.5225H35.1974C34.8333 20.5225 34.5382 20.8176 34.5382 21.1816C34.5382 21.5457 34.8333 21.8408 35.1974 21.8408H38.4306C38.3658 22.1798 38.328 22.6266 38.4306 23.1592H28.3511C28.3874 22.8142 28.4091 22.3788 28.3511 21.8408H32.0361C32.4002 21.8408 32.6953 21.5457 32.6953 21.1816C32.6953 20.8176 32.4002 20.5225 32.0361 20.5225H28.0485C27.889 20.0726 27.6766 19.6479 27.4189 19.2552L29.9801 15.8201C31.0523 15.8171 32.0055 15.2996 32.6057 14.502ZM41.6602 10.5469C42.7506 10.5469 43.6377 11.434 43.6377 12.5244C43.6377 13.6149 42.7506 14.502 41.6602 14.502C40.5697 14.502 39.6826 13.6149 39.6826 12.5244C39.6826 11.434 40.5697 10.5469 41.6602 10.5469ZM33.2002 11.8652H38.4305C38.3657 12.2042 38.328 12.6511 38.4305 13.1836H33.2002C33.2437 12.9705 33.2666 12.7501 33.2666 12.5244C33.2666 12.2987 33.2437 12.0783 33.2002 11.8652ZM41.6602 1.31836C42.7506 1.31836 43.6377 2.20544 43.6377 3.2959C43.6377 4.38636 42.7506 5.27344 41.6602 5.27344C40.5697 5.27344 39.6826 4.38636 39.6826 3.2959C39.6826 2.20544 40.5697 1.31836 41.6602 1.31836ZM41.6602 39.7266C42.7506 39.7266 43.6377 40.6136 43.6377 41.7041C43.6377 42.7946 42.7506 43.6816 41.6602 43.6816C40.5697 43.6816 39.6826 42.7946 39.6826 41.7041C39.6826 40.6136 40.5697 39.7266 41.6602 39.7266ZM41.6602 30.498C42.7506 30.498 43.6377 31.3851 43.6377 32.4756C43.6377 33.566 42.7506 34.4531 41.6602 34.4531C40.5697 34.4531 39.6826 33.566 39.6826 32.4756C39.6826 31.3851 40.5697 30.498 41.6602 30.498ZM33.2002 31.8164H38.4305C38.3657 32.1554 38.328 32.6022 38.4305 33.1348H33.2002C33.2651 32.7958 33.3028 32.3489 33.2002 31.8164ZM41.6602 20.5225C42.7506 20.5225 43.6377 21.4095 43.6377 22.5C43.6377 23.5905 42.7506 24.4775 41.6602 24.4775C40.5697 24.4775 39.6826 23.5905 39.6826 22.5C39.6826 21.4095 40.5697 20.5225 41.6602 20.5225ZM29.2676 6.76758C29.2676 6.59153 29.3361 6.42603 29.4607 6.30149L32.9763 2.78587C33.1008 2.66133 33.2663 2.59277 33.4424 2.59277H38.4405C38.3911 2.81944 38.3643 3.05455 38.3643 3.2959C38.3643 3.50622 38.3849 3.71171 38.4227 3.91113H33.9884C33.8136 3.91113 33.6459 3.98057 33.5224 4.10423L30.779 6.84756C30.6554 6.97113 30.5859 7.13883 30.5859 7.31364V9.28696C30.2344 9.22439 29.81 9.19485 29.2676 9.3048V6.76758ZM22.4561 27.1143C19.9117 27.1143 17.8418 25.0443 17.8418 22.5C17.8418 19.9557 19.9117 17.8857 22.4561 17.8857C25.0004 17.8857 27.0703 19.9557 27.0703 22.5C27.0703 25.0443 25.0004 27.1143 22.4561 27.1143ZM33.5224 40.8958C33.6459 41.0194 33.8136 41.0889 33.9884 41.0889H38.4227C38.3601 41.4404 38.3306 41.8648 38.4405 42.4072H33.4424C33.2663 42.4072 33.1008 42.3387 32.9763 42.2141L29.4607 38.6985C29.3361 38.574 29.2676 38.4085 29.2676 38.2324V35.6952C29.5941 35.7637 30.0726 35.8095 30.5859 35.713V37.6864C30.5859 37.8612 30.6554 38.0289 30.779 38.1524L33.5224 40.8958ZM29.9707 30.498C31.0612 30.498 31.9482 31.3851 31.9482 32.4756C31.9482 33.566 31.0612 34.4531 29.9707 34.4531C28.8802 34.4531 27.9932 33.566 27.9932 32.4756C27.9932 31.3851 28.8802 30.498 29.9707 30.498ZM28.5566 29.4991C28.1541 29.6911 27.7967 29.9626 27.5041 30.293L25.4796 27.6016C25.8594 27.3756 26.2116 27.1081 26.5308 26.8059L28.5566 29.4991ZM26.5511 18.2135C26.2332 17.9097 25.8826 17.6402 25.5038 17.4124L27.5132 14.7175C27.8072 15.0466 28.1659 15.3163 28.5694 15.5066L26.5511 18.2135ZM27.9932 12.5244C27.9932 11.434 28.8802 10.5469 29.9707 10.5469C31.0612 10.5469 31.9482 11.434 31.9482 12.5244C31.9482 13.6149 31.0612 14.502 29.9707 14.502C28.8802 14.502 27.9932 13.6149 27.9932 12.5244Z" fill="white"/>
<path d="M20.874 43.6816H20.0118C19.4012 43.6816 18.9044 43.1849 18.9044 42.5742V40.6714C18.9044 39.6236 18.2363 38.6985 17.2422 38.3696C16.4756 38.1157 15.7213 37.8032 15.0004 37.4406C14.0629 36.9689 12.9352 37.1496 12.1946 37.8904L10.8481 39.2368C10.6389 39.446 10.3607 39.5612 10.0648 39.5612C9.76887 39.5612 9.49069 39.446 9.28143 39.2367L5.76264 35.7188C5.33118 35.2867 5.33118 34.5836 5.7622 34.1521L7.10982 32.8054C7.85057 32.0646 8.03118 30.9371 7.55956 29.9997C7.19692 29.2787 6.8843 28.5244 6.63047 27.758C6.30149 26.7637 5.37645 26.0956 4.32861 26.0956H2.42578C1.81512 26.0956 1.31836 25.5988 1.31836 24.9882V20.0118C1.31836 19.4012 1.81512 18.9044 2.42578 18.9044H4.32861C5.37645 18.9044 6.30149 18.2363 6.63038 17.2422C6.8843 16.4756 7.19684 15.7213 7.55938 15.0004C8.03109 14.0629 7.85048 12.9353 7.10947 12.1944L5.76264 10.8483C5.33118 10.4163 5.33118 9.71323 5.76237 9.28151L9.28125 5.76264C9.71341 5.33109 10.4164 5.33109 10.8479 5.7622L12.1946 7.10974C12.9354 7.85039 14.063 8.03127 15.0003 7.55947C15.7213 7.19684 16.4756 6.88421 17.242 6.63047C18.2363 6.30149 18.9044 5.37645 18.9044 4.32861V2.42578C18.9044 1.81512 19.4012 1.31836 20.0118 1.31836H24.9003C25.4447 1.31836 25.9155 1.72336 25.9955 2.26063C26.0007 2.29544 25.996 2.33297 25.982 2.36927L25.3137 4.09746C25.1824 4.43707 25.3513 4.81878 25.6908 4.95C26.0304 5.08122 26.4121 4.91247 26.5433 4.57295L27.2116 2.84476C27.3079 2.59567 27.3382 2.32646 27.2994 2.06622C27.124 0.888223 26.0926 0 24.9003 0H20.0118C18.6742 0 17.586 1.08817 17.586 2.42578V4.32861C17.586 4.80674 17.2814 5.22879 16.8277 5.37891C16.0003 5.65295 15.1862 5.99036 14.4078 6.38174C13.9794 6.59733 13.4646 6.51524 13.1269 6.17766L11.78 4.82985C10.8342 3.88529 9.29531 3.88529 8.34935 4.83012L4.82985 8.34961C3.88529 9.2954 3.88529 10.8342 4.83029 11.7804L6.17748 13.1267C6.51524 13.4645 6.59733 13.9794 6.38174 14.4079C5.99036 15.1862 5.65295 16.0003 5.37882 16.8279C5.22879 17.2814 4.80674 17.586 4.32861 17.586H2.42578C1.08817 17.586 0 18.6742 0 20.0118V24.9882C0 26.3258 1.08817 27.414 2.42578 27.414H4.32861C4.80674 27.414 5.22879 27.7186 5.37891 28.1723C5.65295 28.9997 5.99036 29.8138 6.38174 30.5922C6.59733 31.0206 6.51524 31.5354 6.17766 31.8731L4.82985 33.22C3.88529 34.1658 3.88529 35.7046 4.8302 36.6507L8.34935 40.1689C9.29523 41.1149 10.8343 41.1149 11.7803 40.1689L13.1268 38.8224C13.4646 38.4847 13.9794 38.4026 14.408 38.6183C15.1863 39.0096 16.0004 39.347 16.828 39.6212C17.2815 39.7712 17.5861 40.1933 17.5861 40.6714V42.5742C17.5861 43.9118 18.6743 45 20.0119 45H20.8741C21.2382 45 21.5333 44.7049 21.5333 44.3408C21.5333 43.9768 21.2381 43.6816 20.874 43.6816Z" fill="white"/>
<path d="M23.2806 31.9056C23.0651 31.344 22.5387 30.9579 21.9393 30.922C17.4731 30.6539 13.9745 26.9353 13.9745 22.456C13.9745 17.9759 17.4738 14.2571 21.9409 13.9899C22.5385 13.9542 23.0644 13.5696 23.2807 13.0102L25.4332 7.44384C25.5645 7.10432 25.3956 6.72252 25.0561 6.5913C24.7166 6.45999 24.3348 6.62883 24.2036 6.96835L23.5011 8.78514C23.1545 8.75912 22.8038 8.74515 22.4561 8.74515C14.8716 8.74515 8.70117 14.9156 8.70117 22.5C8.70117 25.6056 9.71121 28.5364 11.622 30.9757C11.752 31.1417 11.9457 31.2284 12.1414 31.2284C12.2836 31.2284 12.4269 31.1826 12.5474 31.0881C12.8341 30.8635 12.8843 30.4492 12.6599 30.1627C10.9325 27.9576 10.0195 25.3079 10.0195 22.4999C10.0195 15.6425 15.5986 10.0634 22.4561 10.0634C22.6376 10.0634 22.8201 10.0675 23.0022 10.0753L22.0511 12.5347C22.0204 12.6143 21.9463 12.6688 21.8624 12.6739C16.7 12.9827 12.6562 17.2796 12.6562 22.456C12.6562 27.6315 16.6992 31.9282 21.8604 32.238C21.9447 32.2431 22.0191 32.298 22.0496 32.3778L23.0259 34.9229C20.0984 35.0758 17.0341 34.1056 14.7239 32.2413C14.4388 32.0147 14.0242 32.0621 13.7977 32.3471C13.5711 32.6322 13.6186 33.0468 13.9035 33.2733C16.6127 35.4368 20.0225 36.4758 23.5212 36.2141L25.9824 42.6304C25.9962 42.6665 26.0008 42.704 25.9956 42.7389C25.9159 43.2763 25.445 43.6816 24.9003 43.6816H23.9502C23.5862 43.6816 23.291 43.9767 23.291 44.3408C23.291 44.7048 23.5862 45 23.9502 45H24.9003C26.0933 45 27.1249 44.1111 27.2997 42.9322C27.3381 42.6731 27.3082 42.4054 27.2132 42.158L23.2806 31.9056Z" fill="white"/>
</svg>
