<svg width="18" height="18" viewBox="0 0 18 18" fill="none" xmlns="http://www.w3.org/2000/svg">
<g clip-path="url(#clip0)">
<path d="M2.66509 10.1648C1.83658 10.1648 1.16504 10.8363 1.16504 11.6648C1.16504 12.4932 1.83658 13.1648 2.66509 13.1648C3.49346 13.1648 4.165 12.4932 4.165 11.6648C4.16404 10.8367 3.49304 10.1658 2.66509 10.1648ZM2.66509 12.5648C2.16795 12.5648 1.76503 12.1618 1.76503 11.6648C1.76503 11.1677 2.16795 10.7648 2.66509 10.7648C3.16208 10.7648 3.56501 11.1677 3.56501 11.6648C3.56501 12.1618 3.16208 12.5648 2.66509 12.5648Z" fill="#419A28"/>
<path d="M2.6647 14.3649C2.16757 14.3649 1.76465 14.7678 1.76465 15.2648C1.76465 15.7618 2.16757 16.1648 2.6647 16.1648C3.1617 16.1648 3.56462 15.7618 3.56462 15.2648C3.56462 14.7678 3.1617 14.3649 2.6647 14.3649ZM2.6647 15.5649C2.49895 15.5649 2.36464 15.4305 2.36464 15.2648C2.36464 15.0992 2.49895 14.9649 2.6647 14.9649C2.83032 14.9649 2.96463 15.0992 2.96463 15.2648C2.96463 15.4305 2.83032 15.5649 2.6647 15.5649Z" fill="#419A28"/>
<path d="M17.6648 8.36486H13.1648V0.264771C13.1648 0.0991517 13.0305 -0.0351562 12.8649 -0.0351562H5.06484C4.89922 -0.0351562 4.76491 0.0991517 4.76491 0.264771V8.36486H0.264771C0.0991517 8.36486 -0.0351562 8.49917 -0.0351562 8.66479V17.6648C-0.0351562 17.8306 0.0991517 17.9649 0.264771 17.9649H17.6648C17.8306 17.9649 17.9649 17.8306 17.9649 17.6648V8.66479C17.9649 8.49917 17.8306 8.36486 17.6648 8.36486ZM0.564835 8.96485H4.76491V17.3649H0.564835V8.96485ZM5.3649 0.564835H12.5648V17.3649H5.3649V0.564835ZM17.3649 17.3649H13.1648V8.96485H17.3649V17.3649Z" fill="#419A28"/>
<path d="M15.2647 13.1648C16.0932 13.1648 16.7647 12.4932 16.7647 11.6648C16.7647 10.8363 16.0932 10.1648 15.2647 10.1648C14.4363 10.1648 13.7646 10.8363 13.7646 11.6648C13.7657 12.4928 14.4367 13.1638 15.2647 13.1648ZM15.2647 10.7648C15.7617 10.7648 16.1648 11.1677 16.1648 11.6648C16.1648 12.1618 15.7617 12.5648 15.2647 12.5648C14.7677 12.5648 14.3648 12.1618 14.3648 11.6648C14.3648 11.1677 14.7677 10.7648 15.2647 10.7648Z" fill="#419A28"/>
<path d="M15.2647 14.3649C14.7677 14.3649 14.3647 14.7678 14.3647 15.2648C14.3647 15.7618 14.7677 16.1648 15.2647 16.1648C15.7617 16.1648 16.1647 15.7618 16.1647 15.2648C16.1647 14.7678 15.7618 14.3649 15.2647 14.3649ZM15.2647 15.5649C15.099 15.5649 14.9647 15.4305 14.9647 15.2648C14.9647 15.0992 15.099 14.9649 15.2647 14.9649C15.4304 14.9649 15.5647 15.0992 15.5647 15.2648C15.5647 15.4305 15.4304 15.5649 15.2647 15.5649Z" fill="#419A28"/>
<path d="M11.6648 8.36487H6.26477C6.09915 8.36487 5.96484 8.49918 5.96484 8.6648V10.4649C5.96484 10.6305 6.09915 10.7648 6.26477 10.7648H11.6648C11.8305 10.7648 11.9648 10.6305 11.9648 10.4649V8.6648C11.9648 8.49918 11.8305 8.36487 11.6648 8.36487ZM11.3648 10.1648H6.56484V8.96486H11.3648V10.1648Z" fill="#419A28"/>
<path d="M11.6648 14.965H6.26477C6.09915 14.965 5.96484 15.0993 5.96484 15.2649V16.4649C5.96484 16.6306 6.09915 16.7649 6.26477 16.7649H11.6648C11.8305 16.7649 11.9648 16.6306 11.9648 16.4649V15.2649C11.9648 15.0993 11.8305 14.965 11.6648 14.965ZM11.3648 16.1649H6.56484V15.565H11.3648V16.1649Z" fill="#419A28"/>
<path d="M11.6648 11.9648H6.26477C6.09915 11.9648 5.96484 12.0992 5.96484 12.2649V13.4649C5.96484 13.6305 6.09915 13.7648 6.26477 13.7648H11.6648C11.8305 13.7648 11.9648 13.6305 11.9648 13.4649V12.2649C11.9648 12.0992 11.8305 11.9648 11.6648 11.9648ZM11.3648 13.1648H6.56484V12.5648H11.3648V13.1648Z" fill="#419A28"/>
<path d="M8.96478 5.36487C10.1245 5.36487 11.0648 4.42458 11.0648 3.26483C11.0648 2.10495 10.1245 1.16479 8.96478 1.16479C7.80504 1.16479 6.86475 2.10495 6.86475 3.26483C6.86626 4.42403 7.80559 5.36336 8.96478 5.36487ZM8.96478 1.76479C9.79315 1.76479 10.4648 2.43633 10.4648 3.26483C10.4648 4.0932 9.79315 4.76488 8.96478 4.76488C8.13641 4.76488 7.46474 4.0932 7.46474 3.26483C7.46584 2.43674 8.13669 1.76575 8.96478 1.76479Z" fill="#419A28"/>
<path d="M8.06494 6.86489C8.06494 7.36202 8.468 7.76494 8.965 7.76494C9.46199 7.76494 9.86505 7.36202 9.86505 6.86489C9.86505 6.36789 9.46199 5.96497 8.965 5.96497C8.46787 5.96497 8.06494 6.36789 8.06494 6.86489ZM9.26493 6.86489C9.26493 7.03064 9.13062 7.16495 8.965 7.16495C8.79938 7.16495 8.66507 7.03064 8.66507 6.86489C8.66507 6.69927 8.79938 6.56496 8.965 6.56496C9.13062 6.56496 9.26493 6.69927 9.26493 6.86489Z" fill="#419A28"/>
</g>
<defs>
<clipPath id="clip0">
<rect width="18" height="18" fill="white"/>
</clipPath>
</defs>
</svg>
