<svg width="18" height="18" viewBox="0 0 18 18" fill="none" xmlns="http://www.w3.org/2000/svg">
<path fill-rule="evenodd" clip-rule="evenodd" d="M12.5834 11.4167C13.5001 10.2501 14.0001 8.83342 14.0001 7.33342C14.0001 3.66675 11.0001 0.666748 7.33342 0.666748C3.66675 0.666748 0.666748 3.66675 0.666748 7.33342C0.666748 11.0001 3.66675 14.0001 7.33342 14.0001C8.83342 14.0001 10.3334 13.5001 11.4167 12.5834L15.9167 17.0834L17.0834 15.9167L12.5834 11.4167ZM7.33342 12.3334C4.58342 12.3334 2.33341 10.0834 2.33341 7.33342C2.33341 4.58342 4.58342 2.33341 7.33342 2.33341C10.0834 2.33341 12.3334 4.58342 12.3334 7.33342C12.3334 10.0834 10.0834 12.3334 7.33342 12.3334Z" fill="#419A28"/>
</svg>
