<svg width="21" height="10" viewBox="0 0 21 10" fill="none" xmlns="http://www.w3.org/2000/svg">
<path d="M6.62664 0.617432H0.365077C0.257065 0.617432 0.169403 0.698832 0.169403 0.799129V9.5206C0.169403 9.62089 0.257065 9.70229 0.365077 9.70229H6.62664C6.73465 9.70229 6.82231 9.62089 6.82231 9.5206V0.799129C6.82231 0.698832 6.73465 0.617432 6.62664 0.617432ZM6.43096 9.3389H0.560751V0.980826H6.43096V9.3389Z" fill="#419A28"/>
<path d="M3.49587 8.24833C4.4668 8.24833 5.25693 7.51464 5.25693 6.61306C5.25693 5.71148 4.4668 4.97778 3.49587 4.97778C2.52493 4.97778 1.7348 5.71148 1.7348 6.61306C1.7348 7.51464 2.52493 8.24833 3.49587 8.24833ZM3.49587 5.34118C4.25117 5.34118 4.86558 5.91171 4.86558 6.61306C4.86558 7.31441 4.25117 7.88494 3.49587 7.88494C2.74057 7.88494 2.12615 7.31441 2.12615 6.61306C2.12615 5.91171 2.74057 5.34118 3.49587 5.34118Z" fill="#419A28"/>
<path d="M3.49586 3.88729C4.03513 3.88729 4.47422 3.47956 4.47422 2.9788C4.47422 2.47804 4.03513 2.07031 3.49586 2.07031C2.95658 2.07031 2.51749 2.47804 2.51749 2.9788C2.51749 3.47956 2.95658 3.88729 3.49586 3.88729ZM3.49586 2.43371C3.8195 2.43371 4.08288 2.67827 4.08288 2.9788C4.08288 3.27933 3.8195 3.52389 3.49586 3.52389C3.17221 3.52389 2.90883 3.27933 2.90883 2.9788C2.90883 2.67827 3.17221 2.43371 3.49586 2.43371Z" fill="#419A28"/>
<path d="M20.7151 0.616943H14.4535C14.3455 0.616943 14.2579 0.698344 14.2579 0.798641V9.52011C14.2579 9.62041 14.3455 9.70181 14.4535 9.70181H20.7151C20.8231 9.70181 20.9108 9.62041 20.9108 9.52011V0.798641C20.9108 0.698344 20.8231 0.616943 20.7151 0.616943ZM20.5194 9.33841H14.6492V0.980338H20.5194V9.33841Z" fill="#419A28"/>
<path d="M17.5845 8.24833C18.5554 8.24833 19.3455 7.51464 19.3455 6.61306C19.3455 5.71148 18.5554 4.97778 17.5845 4.97778C16.6135 4.97778 15.8234 5.71148 15.8234 6.61306C15.8234 7.51464 16.6135 8.24833 17.5845 8.24833ZM17.5845 5.34118C18.3398 5.34118 18.9542 5.91171 18.9542 6.61306C18.9542 7.31441 18.3398 7.88494 17.5845 7.88494C16.8292 7.88494 16.2147 7.31441 16.2147 6.61306C16.2147 5.91171 16.8292 5.34118 17.5845 5.34118Z" fill="#419A28"/>
<path d="M17.5843 3.88729C18.124 3.88729 18.5627 3.47956 18.5627 2.9788C18.5627 2.47804 18.124 2.07031 17.5843 2.07031C17.0447 2.07031 16.606 2.47804 16.606 2.9788C16.606 3.47956 17.0447 3.88729 17.5843 3.88729ZM17.5843 2.43371C17.908 2.43371 18.1714 2.67827 18.1714 2.9788C18.1714 3.27933 17.908 3.52389 17.5843 3.52389C17.2607 3.52389 16.9973 3.27933 16.9973 2.9788C16.9973 2.67827 17.2607 2.43371 17.5843 2.43371Z" fill="#419A28"/>
<path d="M13.6709 4.97778H7.40936C7.30135 4.97778 7.21368 5.05918 7.21368 5.15948V9.52022C7.21368 9.62051 7.30135 9.70191 7.40936 9.70191H13.6709C13.7789 9.70191 13.8666 9.62051 13.8666 9.52022V5.15948C13.8666 5.05918 13.7789 4.97778 13.6709 4.97778ZM13.4752 9.33852H7.60503V5.34118H13.4752V9.33852Z" fill="#419A28"/>
<path d="M12.8882 5.88623H8.19202V7.3398H12.8882V5.88623Z" fill="#419A28"/>
<path d="M9.75736 7.88501H8.97467C8.86665 7.88501 8.77899 7.96641 8.77899 8.06671C8.77899 8.167 8.86665 8.2484 8.97467 8.2484H9.75736C9.86537 8.2484 9.95303 8.167 9.95303 8.06671C9.95303 7.96641 9.86537 7.88501 9.75736 7.88501Z" fill="#419A28"/>
<path d="M12.1055 7.88501H11.3228C11.2148 7.88501 11.1271 7.96641 11.1271 8.06671C11.1271 8.167 11.2148 8.2484 11.3228 8.2484H12.1055C12.2135 8.2484 12.3012 8.167 12.3012 8.06671C12.3012 7.96641 12.2135 7.88501 12.1055 7.88501Z" fill="#419A28"/>
</svg>
