<svg width="40" height="40" viewBox="0 0 40 40" fill="none" xmlns="http://www.w3.org/2000/svg">
<path d="M39.9737 5.96547C39.9406 5.85122 39.8773 5.74799 39.7906 5.6666C39.7039 5.5852 39.5968 5.52865 39.4807 5.50286L35.414 4.5841L34.4952 0.517344C34.4691 0.401533 34.4124 0.294853 34.331 0.20844C34.2496 0.122028 34.1465 0.0590508 34.0324 0.0260836C33.9184 -0.00688355 33.7976 -0.00863235 33.6826 0.0210199C33.5676 0.0506721 33.4628 0.110638 33.3789 0.194658L28.7016 4.87266C24.7437 2.48433 20.0484 1.6273 15.502 2.4633C10.9555 3.2993 6.87221 5.77051 4.02275 9.41058C1.1733 13.0506 -0.24526 17.6078 0.0347775 22.222C0.314815 26.8362 2.27408 31.1884 5.54283 34.4571C8.81158 37.7259 13.1637 39.6851 17.778 39.9652C22.3922 40.2452 26.9493 38.8267 30.5894 35.9772C34.2295 33.1278 36.7007 29.0445 37.5367 24.498C38.3727 19.9515 37.5156 15.2563 35.1273 11.2983L39.8064 6.61918C39.8902 6.5351 39.9499 6.43012 39.9793 6.31515C40.0087 6.20018 40.0068 6.07943 39.9737 5.96547ZM36.5208 21.0779C36.5203 24.9519 35.2413 28.7174 32.8823 31.7904C30.5234 34.8633 27.2162 37.0719 23.4739 38.0735C19.7317 39.0752 15.7635 38.8138 12.1849 37.3301C8.60627 35.8463 5.61734 33.2231 3.68174 29.8673C1.74614 26.5115 0.972068 22.6107 1.4796 18.7701C1.98713 14.9295 3.74789 11.3638 6.48875 8.62595C9.2296 5.88814 12.7973 4.13135 16.6385 3.6281C20.4797 3.12485 24.3796 3.90327 27.7332 5.84261L25.5851 7.99069C25.5667 8.0117 25.5496 8.03386 25.5339 8.05705C22.4323 6.47797 18.8691 6.05698 15.4849 6.86974C12.1006 7.68251 9.11722 9.67573 7.07095 12.4911C5.02468 15.3065 4.04972 18.7595 4.32132 22.2294C4.59291 25.6992 6.09324 28.9585 8.55264 31.4212C11.012 33.8839 14.2692 35.3887 17.7387 35.665C21.2082 35.9413 24.6625 34.9711 27.4807 32.9286C30.2989 30.8862 32.2961 27.9055 33.1135 24.5224C33.9309 21.1393 33.5147 17.5755 31.9399 14.4717C31.9643 14.4545 31.9875 14.4356 32.0093 14.4152L34.1574 12.2671C35.7086 14.9441 36.524 17.9839 36.5208 21.0779ZM30.3651 14.361C31.9948 17.1429 32.5548 20.4234 31.9403 23.5884C31.3259 26.7534 29.5792 29.5861 27.0271 31.5562C24.4749 33.5264 21.2923 34.499 18.0749 34.292C14.8574 34.0851 11.8256 32.7127 9.54695 30.4319C7.26826 28.151 5.89884 25.1179 5.69497 21.9002C5.49111 18.6826 6.46678 15.5009 8.43939 12.9507C10.412 10.4004 13.2463 8.65643 16.4119 8.04506C19.5776 7.43369 22.8575 7.99685 25.6378 9.62915L26.3367 12.7248L25.6663 13.3952C23.6671 11.6396 21.0635 10.7303 18.406 10.8596C15.7485 10.9888 13.2455 12.1465 11.4261 14.0878C9.60666 16.0291 8.61352 18.6018 8.65661 21.2621C8.69971 23.9224 9.77568 26.4616 11.657 28.3429C13.5384 30.2243 16.0776 31.3002 18.7379 31.3433C21.3981 31.3864 23.9709 30.3933 25.9122 28.5739C27.8535 26.7545 29.0111 24.2514 29.1404 21.594C29.2696 18.9365 28.3603 16.3329 26.6048 14.3337L27.2752 13.6633L30.3651 14.361ZM21.7755 21.0779C21.7778 21.7122 21.5695 22.3294 21.1832 22.8325C20.7969 23.3357 20.2545 23.6964 19.6411 23.8579C19.0277 24.0195 18.378 23.9729 17.7939 23.7254C17.2098 23.4778 16.7245 23.0434 16.414 22.4902C16.1035 21.9371 15.9855 21.2965 16.0784 20.669C16.1713 20.0415 16.4699 19.4626 16.9274 19.0231C17.3848 18.5836 17.9752 18.3085 18.606 18.2408C19.2367 18.1731 19.872 18.3168 20.4123 18.6492L18.4527 20.6088C18.3893 20.67 18.3388 20.7433 18.304 20.8242C18.2692 20.9052 18.251 20.9923 18.2502 21.0804C18.2495 21.1685 18.2663 21.2559 18.2997 21.3374C18.333 21.419 18.3823 21.493 18.4446 21.5553C18.507 21.6176 18.5811 21.6669 18.6626 21.7002C18.7442 21.7336 18.8315 21.7503 18.9197 21.7496C19.0078 21.7488 19.0948 21.7305 19.1758 21.6957C19.2567 21.6609 19.33 21.6103 19.3911 21.5469L21.3508 19.5873C21.6282 20.035 21.7753 20.5512 21.7755 21.0779ZM21.3675 17.694C20.5125 17.0748 19.4556 16.8004 18.4074 16.9255C17.3592 17.0507 16.3966 17.5662 15.7115 18.3694C15.0264 19.1725 14.6691 20.2043 14.7108 21.2592C14.7525 22.314 15.1901 23.3144 15.9364 24.061C16.6827 24.8076 17.6829 25.2456 18.7377 25.2877C19.7925 25.3298 20.8245 24.9729 21.6279 24.2881C22.4314 23.6034 22.9473 22.641 23.0729 21.5929C23.1984 20.5447 22.9245 19.4877 22.3056 18.6325L25.6644 15.2737C27.1693 17.0221 27.938 19.2859 27.8087 21.5892C27.6794 23.8925 26.6623 26.056 24.9711 27.625C23.2799 29.194 21.0464 30.0464 18.7399 30.003C16.4333 29.9596 14.2335 29.0237 12.6025 27.3921C10.9716 25.7606 10.0367 23.5603 9.99418 21.2538C9.95169 18.9472 10.805 16.714 12.3747 15.0235C13.9444 13.3329 16.1083 12.3167 18.4117 12.1884C20.715 12.06 22.9785 12.8295 24.7263 14.3352L21.3675 17.694ZM33.8214 10.7261L31.3309 13.2162L30.9574 13.1321L30.943 13.1286L27.6195 12.3805L26.7818 8.67095L33.4676 1.98403L34.2135 5.28521C34.2411 5.40759 34.3029 5.51963 34.3916 5.60835C34.4803 5.69707 34.5924 5.75884 34.7148 5.78649L38.0159 6.53235L33.8214 10.7261Z" fill="white"/>
</svg>
