<svg width="127" height="123" viewBox="0 0 127 123" fill="none" xmlns="http://www.w3.org/2000/svg">
<path d="M118.492 27.1037V29.0348C118.489 33.5125 117.039 37.8694 114.358 41.4557C111.677 45.0421 107.909 47.6656 103.615 48.9352C99.3208 50.2048 94.7315 50.0524 90.5313 48.5006C86.3311 46.9488 82.7451 44.0809 80.308 40.3246C77.8708 36.5682 76.7133 32.1247 77.0079 27.6567C77.3025 23.1887 79.0335 18.9357 81.9428 15.5319C84.852 12.1281 88.7836 9.75588 93.1512 8.76908C97.5188 7.78228 102.088 8.23375 106.178 10.0562" stroke="#219653" stroke-width="2" stroke-linecap="round" stroke-linejoin="round"/>
<path d="M120.568 10.344L97.7274 33.1848L91.498 26.9555" stroke="#219653" stroke-width="2" stroke-linecap="round" stroke-linejoin="round"/>
<path d="M68.0721 24.7023L58.9496 20.141C57.6881 19.5142 56.2987 19.188 54.8901 19.188C53.4815 19.188 52.092 19.5142 50.8306 20.141L14.3406 38.386C12.8207 39.1412 11.5416 40.3055 10.6472 41.7479C9.75279 43.1902 9.27847 44.8535 9.27756 46.5506V89.9737C9.26573 91.6739 9.72924 93.3435 10.6158 94.7942C11.5023 96.2449 12.7766 97.419 14.2949 98.184L50.7849 116.429C52.0523 117.063 53.45 117.393 54.8673 117.393C56.2845 117.393 57.6822 117.063 58.9496 116.429L95.4396 98.184C96.9594 97.4288 98.2385 96.2645 99.1329 94.8222C100.027 93.3798 100.502 91.7165 100.503 90.0194V68.285V57.4178" stroke="#219653" stroke-width="2" stroke-linecap="round" stroke-linejoin="round"/>
<path d="M10.7363 41.6279L54.8892 63.7044L76.9657 52.6662" stroke="#219653" stroke-width="2" stroke-linecap="round" stroke-linejoin="round"/>
<path d="M54.8887 117.344V63.7039" stroke="#219653" stroke-width="2" stroke-linecap="round" stroke-linejoin="round"/>
</svg>
