<svg width="169" height="92" viewBox="0 0 169 92" fill="none" xmlns="http://www.w3.org/2000/svg">
<path d="M77.5809 8.91382H57.5534C55.4611 8.91382 53.765 10.1907 53.765 11.7658V12.822C53.765 14.3972 55.4611 15.674 57.5534 15.674H77.5809C79.6731 15.674 81.3692 14.3972 81.3692 12.822V11.7658C81.3692 10.1907 79.6731 8.91382 77.5809 8.91382Z" fill="white" stroke="#A7CF9F" stroke-width="2.17756" stroke-miterlimit="22.9256"/>
<path d="M77.5809 21.3201H57.5534C55.4611 21.3201 53.765 22.597 53.765 24.1721V25.2283C53.765 26.8034 55.4611 28.0803 57.5534 28.0803H77.5809C79.6731 28.0803 81.3692 26.8034 81.3692 25.2283V24.1721C81.3692 22.597 79.6731 21.3201 77.5809 21.3201Z" fill="white" stroke="#A7CF9F" stroke-width="2.17756" stroke-miterlimit="22.9256"/>
<path d="M77.5809 32.9966H57.5534C55.4611 32.9966 53.765 34.2735 53.765 35.8486V36.9048C53.765 38.4799 55.4611 39.7568 57.5534 39.7568H77.5809C79.6731 39.7568 81.3692 38.4799 81.3692 36.9048V35.8486C81.3692 34.2735 79.6731 32.9966 77.5809 32.9966Z" fill="white" stroke="#A7CF9F" stroke-width="2.17756" stroke-miterlimit="22.9256"/>
<path d="M111.566 2H91.5387C89.4465 2 87.7504 3.27689 87.7504 4.85202V5.90821C87.7504 7.48334 89.4465 8.76023 91.5387 8.76023H111.566C113.658 8.76023 115.354 7.48334 115.354 5.90821V4.85202C115.354 3.27689 113.658 2 111.566 2Z" fill="white" stroke="#419A28" stroke-width="2.17756" stroke-miterlimit="22.9256"/>
<path d="M111.575 14.4067H91.5471C89.4548 14.4067 87.7587 15.6836 87.7587 17.2588V18.3149C87.7587 19.8901 89.4548 21.167 91.5471 21.167H111.575C113.667 21.167 115.363 19.8901 115.363 18.3149V17.2588C115.363 15.6836 113.667 14.4067 111.575 14.4067Z" fill="white" stroke="#419A28" stroke-width="2.17756" stroke-miterlimit="22.9256"/>
<path d="M111.575 26.0833H91.5471C89.4548 26.0833 87.7587 27.3601 87.7587 28.9353V29.9914C87.7587 31.5666 89.4548 32.8434 91.5471 32.8434H111.575C113.667 32.8434 115.363 31.5666 115.363 29.9914V28.9353C115.363 27.3601 113.667 26.0833 111.575 26.0833Z" fill="white" stroke="#419A28" stroke-width="2.17756" stroke-miterlimit="22.9256"/>
<path d="M1.68773 68.1863C1.68773 68.6588 2.09279 69.0639 2.58786 69.0639C3.08293 69.0639 3.48799 68.6588 3.48799 68.1863V54.1893C3.48799 53.7168 3.08293 53.3117 2.58786 53.3117C2.09279 53.3117 1.68773 53.7168 1.68773 54.1893V68.1863ZM20.1509 54.1443C20.1509 53.6943 19.7683 53.3117 19.2957 53.3117C18.8007 53.3117 18.4181 53.6943 18.4181 54.1443V65.9135L8.78677 53.8068C8.53923 53.4917 8.24669 53.3117 7.88664 53.3117C7.32407 53.3117 6.874 53.7618 6.874 54.2793V68.2538C6.874 68.7038 7.23405 69.0639 7.72912 69.0639C8.22419 69.0639 8.60674 68.7038 8.60674 68.2538V56.4621L18.2156 68.5688C18.4631 68.8614 18.7557 69.0639 19.1157 69.0639C19.7008 69.0639 20.1509 68.6363 20.1509 68.0963V54.1443ZM32.8479 55.0219C32.8479 54.5269 32.3528 54.1893 31.8127 53.9643C30.8901 53.5592 29.4949 53.3117 28.3023 53.3117C24.7693 53.3117 22.879 54.8644 22.879 57.3848C22.879 59.0725 23.8241 60.1077 25.1518 60.7602C26.772 61.5479 28.2573 61.7504 29.6074 62.3355C30.7101 62.808 31.5427 63.5056 31.5427 64.6758C31.5427 66.2735 30.4626 67.5112 28.0322 67.5112C26.9071 67.5112 26.0294 67.2411 25.3318 66.9036C24.3192 66.4535 24.0717 66.071 23.6891 66.071C23.194 66.071 22.8115 66.431 22.8115 66.9486C22.8115 67.4212 23.2165 67.7362 23.6666 67.9837C24.7018 68.5463 26.4345 69.0639 28.0322 69.0639C31.2502 69.0639 33.478 67.3987 33.478 64.5183C33.478 62.853 32.5553 61.8179 31.4977 61.1878C30.08 60.3777 28.5048 60.1752 26.9746 59.6126C25.6244 59.1175 24.7693 58.4649 24.7693 57.3398C24.7693 55.742 25.8944 54.8644 28.2122 54.8644C29.1124 54.8644 29.8325 55.0444 30.4626 55.2695C31.1827 55.517 31.5877 55.8546 31.9928 55.8546C32.5103 55.8546 32.8479 55.4945 32.8479 55.0219ZM46.2747 55.112C46.7023 55.112 47.0398 54.7519 47.0398 54.3018C47.0398 53.8743 46.7023 53.5142 46.2747 53.5142H35.1357C34.6856 53.5142 34.348 53.8743 34.348 54.3018C34.348 54.7519 34.6856 55.112 35.1357 55.112H39.7938V68.1863C39.7938 68.6588 40.1989 69.0639 40.6939 69.0639C41.189 69.0639 41.594 68.6588 41.594 68.1863V55.112H46.2747ZM52.2229 55.6295L55.3959 63.5956H49.05L52.2229 55.6295ZM57.1961 68.4113C57.3536 68.8389 57.6462 69.0639 58.0962 69.0639C58.6138 69.0639 58.9964 68.7489 58.9964 68.2313C58.9964 68.1188 58.9513 67.8937 58.8838 67.7587L53.5056 54.2343C53.3031 53.7168 52.988 53.3117 52.2454 53.3117C51.5253 53.3117 51.2103 53.7168 51.0077 54.2343L45.607 67.7587C45.5395 67.9162 45.472 68.1188 45.472 68.2313C45.472 68.6813 45.787 69.0639 46.3271 69.0639C46.8222 69.0639 47.0697 68.8164 47.2272 68.4113L48.5999 65.0583H55.8684L57.1961 68.4113ZM60.8683 67.9612C60.8683 68.4338 61.2509 68.8389 61.7685 68.8389H70.0046C70.4322 68.8389 70.7697 68.4788 70.7697 68.0513C70.7697 67.6012 70.4322 67.2411 70.0046 67.2411H62.6686V54.1893C62.6686 53.7168 62.2635 53.3117 61.7685 53.3117C61.2509 53.3117 60.8683 53.7168 60.8683 54.1893V67.9612ZM72.8671 67.9612C72.8671 68.4338 73.2496 68.8389 73.7672 68.8389H82.0033C82.4309 68.8389 82.7684 68.4788 82.7684 68.0513C82.7684 67.6012 82.4309 67.2411 82.0033 67.2411H74.6673V54.1893C74.6673 53.7168 74.2623 53.3117 73.7672 53.3117C73.2496 53.3117 72.8671 53.7168 72.8671 54.1893V67.9612ZM98.0505 61.2328C97.623 61.2328 97.2854 61.5929 97.2854 62.0204C97.2854 62.4705 97.623 62.8305 98.0505 62.8305H102.191V66.116C101.178 66.8586 99.6708 67.4662 97.9155 67.4662C94.5175 67.4662 91.8172 65.0133 91.8172 61.1653C91.8172 57.7673 94.5626 54.9319 97.9155 54.9319C98.8156 54.9319 99.5132 55.067 100.098 55.2695C101.201 55.652 101.516 56.0121 101.966 56.0121C102.416 56.0121 102.799 55.6745 102.799 55.1795C102.799 54.6619 102.349 54.3243 101.696 54.0543C100.661 53.6268 99.5357 53.3117 97.938 53.3117C93.5499 53.3117 89.9494 56.8447 89.9494 61.1653C89.9494 66.251 93.4824 69.0639 97.848 69.0639C99.6483 69.0639 101.156 68.5238 102.191 67.8262V68.1863C102.191 68.6813 102.529 69.0639 103.069 69.0639C103.609 69.0639 103.946 68.6813 103.946 68.1863V62.1104C103.946 61.6154 103.676 61.2328 103.114 61.2328H98.0505ZM109.081 62.853H113.042L117.43 68.6363C117.61 68.8839 117.88 69.0639 118.195 69.0639C118.713 69.0639 119.118 68.6363 119.118 68.1638C119.118 67.9612 119.028 67.7362 118.87 67.5562L115.112 62.763C115.9 62.628 116.62 62.3805 117.317 61.8629C118.42 61.0528 119.118 59.8601 119.118 58.1949C119.118 56.3946 118.42 55.1345 117.295 54.3919C116.26 53.6943 115.045 53.5142 113.559 53.5142H108.181C107.664 53.5142 107.281 53.9193 107.281 54.3919V68.1863C107.281 68.6588 107.664 69.0639 108.181 69.0639C108.676 69.0639 109.081 68.6588 109.081 68.1863V62.853ZM113.357 55.0444C114.37 55.0444 115.247 55.1345 115.99 55.5845C116.755 56.0346 117.272 56.8897 117.272 58.1949C117.272 59.5451 116.732 60.3552 115.945 60.8278C115.202 61.2553 114.347 61.3453 113.312 61.3453H109.081V55.0444H113.357ZM137.309 61.2103C137.309 56.7547 133.686 53.3117 129.298 53.3117C124.91 53.3117 121.287 56.7547 121.287 61.2103C121.287 65.6434 124.91 69.0639 129.298 69.0639C133.686 69.0639 137.309 65.6659 137.309 61.2103ZM135.419 61.2103C135.419 64.6083 132.741 67.3987 129.298 67.3987C125.855 67.3987 123.2 64.6308 123.2 61.2103C123.2 57.8123 125.855 54.9994 129.298 54.9994C132.741 54.9994 135.419 57.8123 135.419 61.2103ZM146.46 67.4437C144.953 67.4437 143.782 66.9936 142.95 66.071C142.207 65.2384 141.802 64.0682 141.802 62.5605V54.1893C141.802 53.7168 141.42 53.3117 140.902 53.3117C140.407 53.3117 140.002 53.7168 140.002 54.1893V62.7855C140.002 64.5633 140.519 66.071 141.487 67.1286C142.59 68.3663 144.3 69.0639 146.483 69.0639C148.666 69.0639 150.376 68.3663 151.478 67.1286C152.446 66.071 152.964 64.5633 152.964 62.7855V54.1893C152.964 53.7168 152.559 53.3117 152.063 53.3117C151.546 53.3117 151.163 53.7168 151.163 54.1893V62.5605C151.163 64.0682 150.758 65.2384 150.016 66.071C149.183 66.9936 148.013 67.4437 146.46 67.4437ZM157.187 53.5142C156.692 53.5142 156.287 53.9193 156.287 54.3919V68.1863C156.287 68.6588 156.692 69.0639 157.187 69.0639C157.682 69.0639 158.087 68.6588 158.087 68.1863V63.5956H162.295C163.578 63.5956 164.838 63.4156 165.918 62.628C167.111 61.7504 167.853 60.2877 167.853 58.5549C167.853 56.8222 167.156 55.472 166.053 54.5944C164.996 53.7843 163.848 53.5142 162.52 53.5142H157.187ZM166.031 58.5549C166.031 59.8151 165.491 60.8278 164.636 61.4128C163.893 61.9079 162.948 62.0204 162.003 62.0204H158.087V55.0895H162.25C163.218 55.0895 164.028 55.2695 164.726 55.7871C165.536 56.3496 166.031 57.2498 166.031 58.5549Z" fill="#333333"/>
<path d="M12.9513 84.696C12.9513 84.5199 12.7992 84.3918 12.5671 84.2958C12.2309 84.1437 11.7986 84.0316 11.2303 84.0316C9.69346 84.0316 8.38073 85.2883 8.38073 86.8252C8.38073 88.5301 9.66144 89.6347 11.2303 89.6347C11.7986 89.6347 12.2549 89.5147 12.5991 89.3546C12.8232 89.2505 12.9913 89.1385 12.9913 88.9544C12.9913 88.7863 12.8552 88.6582 12.6951 88.6582C12.5671 88.6582 12.423 88.8023 12.0708 88.9223C11.8627 88.9944 11.5905 89.0584 11.2223 89.0584C10.0457 89.0584 9.0451 88.1539 9.0451 86.8252C9.0451 85.6085 10.0377 84.6079 11.2223 84.6079C11.5905 84.6079 11.8547 84.664 12.0628 84.736C12.383 84.8481 12.527 84.9921 12.6551 84.9921C12.8232 84.9921 12.9513 84.8721 12.9513 84.696ZM19.114 86.8412C19.114 85.2563 17.8252 84.0316 16.2644 84.0316C14.7035 84.0316 13.4148 85.2563 13.4148 86.8412C13.4148 88.4181 14.7035 89.6347 16.2644 89.6347C17.8252 89.6347 19.114 88.4261 19.114 86.8412ZM18.4416 86.8412C18.4416 88.0498 17.4891 89.0424 16.2644 89.0424C15.0397 89.0424 14.0952 88.0579 14.0952 86.8412C14.0952 85.6325 15.0397 84.6319 16.2644 84.6319C17.4891 84.6319 18.4416 85.6325 18.4416 86.8412ZM20.0878 84.4238V89.3306C20.0878 89.4987 20.2079 89.6347 20.4 89.6347C20.5841 89.6347 20.7042 89.4987 20.7042 89.3306V85.2163L22.5052 88.1299C22.5692 88.234 22.6653 88.33 22.8173 88.33C22.9694 88.33 23.0655 88.234 23.1295 88.1299L24.9305 85.2163V89.3306C24.9305 89.4987 25.0506 89.6347 25.2427 89.6347C25.4268 89.6347 25.5469 89.4987 25.5469 89.3306V84.4238C25.5469 84.2077 25.3948 84.0316 25.1547 84.0316C24.9946 84.0316 24.8745 84.1197 24.8025 84.2397L22.8173 87.5135L20.8322 84.2397C20.7602 84.1197 20.6481 84.0316 20.48 84.0316C20.2399 84.0316 20.0878 84.2077 20.0878 84.4238ZM27.068 84.1036C26.8919 84.1036 26.7478 84.2477 26.7478 84.4158V89.3226C26.7478 89.4907 26.8919 89.6347 27.068 89.6347C27.2441 89.6347 27.3881 89.4907 27.3881 89.3226V87.6896H28.885C29.3412 87.6896 29.7895 87.6256 30.1737 87.3455C30.5979 87.0333 30.8621 86.513 30.8621 85.8966C30.8621 85.2803 30.6139 84.8 30.2217 84.4879C29.8455 84.1997 29.4373 84.1036 28.965 84.1036H27.068ZM30.2137 85.8966C30.2137 86.3449 30.0216 86.7051 29.7174 86.9132C29.4533 87.0893 29.1171 87.1293 28.7809 87.1293H27.3881V84.664H28.869C29.2132 84.664 29.5013 84.728 29.7495 84.9121C30.0376 85.1122 30.2137 85.4324 30.2137 85.8966ZM32.3988 87.1053H35.0322C35.1923 87.1053 35.3124 86.9772 35.3124 86.8252C35.3124 86.6731 35.1923 86.537 35.0322 86.537H32.3988V84.672H35.4485C35.6005 84.672 35.7206 84.5439 35.7206 84.3838C35.7206 84.2317 35.6005 84.1036 35.4485 84.1036H32.0786C31.8945 84.1036 31.7584 84.2477 31.7584 84.4158V89.2425C31.7584 89.4106 31.8945 89.5547 32.0786 89.5547H35.4485C35.6005 89.5547 35.7206 89.4266 35.7206 89.2745C35.7206 89.1144 35.6005 88.9864 35.4485 88.9864H32.3988V87.1053ZM36.5736 89.3226C36.5736 89.4907 36.7177 89.6347 36.8938 89.6347C37.0699 89.6347 37.2139 89.4907 37.2139 89.3226V87.1053H40.4878V89.3226C40.4878 89.4907 40.6238 89.6347 40.8079 89.6347C40.976 89.6347 41.1281 89.4907 41.1281 89.3226V84.3438C41.1281 84.1757 40.984 84.0316 40.8079 84.0316C40.6238 84.0316 40.4878 84.1757 40.4878 84.3438V86.537H37.2139V84.3438C37.2139 84.1757 37.0699 84.0316 36.8938 84.0316C36.7177 84.0316 36.5736 84.1757 36.5736 84.3438V89.3226ZM42.9593 87.1053H45.5928C45.7529 87.1053 45.873 86.9772 45.873 86.8252C45.873 86.6731 45.7529 86.537 45.5928 86.537H42.9593V84.672H46.009C46.1611 84.672 46.2812 84.5439 46.2812 84.3838C46.2812 84.2317 46.1611 84.1036 46.009 84.1036H42.6392C42.4551 84.1036 42.319 84.2477 42.319 84.4158V89.2425C42.319 89.4106 42.4551 89.5547 42.6392 89.5547H46.009C46.1611 89.5547 46.2812 89.4266 46.2812 89.2745C46.2812 89.1144 46.1611 88.9864 46.009 88.9864H42.9593V87.1053ZM51.8568 84.3278C51.8568 84.1677 51.7207 84.0316 51.5526 84.0316C51.3765 84.0316 51.2405 84.1677 51.2405 84.3278V88.5141L47.8145 84.2077C47.7265 84.0956 47.6224 84.0316 47.4944 84.0316C47.2943 84.0316 47.1342 84.1917 47.1342 84.3758V89.3466C47.1342 89.5067 47.2622 89.6347 47.4383 89.6347C47.6144 89.6347 47.7505 89.5067 47.7505 89.3466V85.1522L51.1684 89.4586C51.2565 89.5627 51.3605 89.6347 51.4886 89.6347C51.6967 89.6347 51.8568 89.4826 51.8568 89.2905V84.3278ZM56.3732 84.6399C56.3732 84.4638 56.1971 84.3438 56.005 84.2637C55.6768 84.1197 55.1805 84.0316 54.7563 84.0316C53.4996 84.0316 52.8272 84.5839 52.8272 85.4804C52.8272 86.0807 53.1634 86.449 53.6357 86.6811C54.212 86.9612 54.7403 87.0333 55.2206 87.2414C55.6128 87.4095 55.9089 87.6576 55.9089 88.0739C55.9089 88.6422 55.5247 89.0824 54.6602 89.0824C54.26 89.0824 53.9478 88.9864 53.6997 88.8663C53.3395 88.7062 53.2515 88.5701 53.1154 88.5701C52.9393 88.5701 52.8032 88.6982 52.8032 88.8823C52.8032 89.0504 52.9473 89.1625 53.1074 89.2505C53.4756 89.4506 54.0919 89.6347 54.6602 89.6347C55.8049 89.6347 56.5973 89.0424 56.5973 88.0178C56.5973 87.4255 56.2691 87.0573 55.8929 86.8332C55.3886 86.545 54.8283 86.473 54.284 86.2729C53.8038 86.0968 53.4996 85.8646 53.4996 85.4644C53.4996 84.8961 53.8998 84.5839 54.7243 84.5839C55.0445 84.5839 55.3006 84.6479 55.5247 84.728C55.7809 84.816 55.9249 84.9361 56.069 84.9361C56.2531 84.9361 56.3732 84.808 56.3732 84.6399ZM57.5071 89.3226C57.5071 89.4907 57.6512 89.6347 57.8273 89.6347C58.0034 89.6347 58.1475 89.4907 58.1475 89.3226V84.3438C58.1475 84.1757 58.0034 84.0316 57.8273 84.0316C57.6512 84.0316 57.5071 84.1757 57.5071 84.3438V89.3226ZM61.217 88.7863L59.448 84.2557C59.3999 84.1197 59.2799 84.0316 59.1358 84.0316C58.9437 84.0316 58.8076 84.1677 58.8076 84.3518C58.8076 84.3918 58.8236 84.4398 58.8396 84.4879L60.7607 89.3065C60.8327 89.4907 60.9688 89.6347 61.209 89.6347C61.4491 89.6347 61.5932 89.4907 61.6652 89.3065L63.6103 84.4799C63.6263 84.4318 63.6423 84.3838 63.6423 84.3438C63.6423 84.1517 63.4902 84.0316 63.3141 84.0316C63.1701 84.0316 63.05 84.1197 62.994 84.2557L61.217 88.7863ZM64.9404 87.1053H67.5738C67.7339 87.1053 67.854 86.9772 67.854 86.8252C67.854 86.6731 67.7339 86.537 67.5738 86.537H64.9404V84.672H67.9901C68.1421 84.672 68.2622 84.5439 68.2622 84.3838C68.2622 84.2317 68.1421 84.1036 67.9901 84.1036H64.6202C64.4361 84.1036 64.3 84.2477 64.3 84.4158V89.2425C64.3 89.4106 64.4361 89.5547 64.6202 89.5547H67.9901C68.1421 89.5547 68.2622 89.4266 68.2622 89.2745C68.2622 89.1144 68.1421 88.9864 67.9901 88.9864H64.9404V87.1053ZM74.7896 84.672C74.9417 84.672 75.0617 84.5439 75.0617 84.3838C75.0617 84.2317 74.9417 84.1036 74.7896 84.1036H70.8274C70.6673 84.1036 70.5472 84.2317 70.5472 84.3838C70.5472 84.5439 70.6673 84.672 70.8274 84.672H72.4843V89.3226C72.4843 89.4907 72.6284 89.6347 72.8045 89.6347C72.9806 89.6347 73.1247 89.4907 73.1247 89.3226V84.672H74.7896ZM76.3061 87.1053H78.9395C79.0996 87.1053 79.2197 86.9772 79.2197 86.8252C79.2197 86.6731 79.0996 86.537 78.9395 86.537H76.3061V84.672H79.3558C79.5079 84.672 79.6279 84.5439 79.6279 84.3838C79.6279 84.2317 79.5079 84.1036 79.3558 84.1036H75.9859C75.8018 84.1036 75.6657 84.2477 75.6657 84.4158V89.2425C75.6657 89.4106 75.8018 89.5547 75.9859 89.5547H79.3558C79.5079 89.5547 79.6279 89.4266 79.6279 89.2745C79.6279 89.1144 79.5079 88.9864 79.3558 88.9864H76.3061V87.1053ZM84.6397 84.696C84.6397 84.5199 84.4876 84.3918 84.2555 84.2958C83.9193 84.1437 83.4871 84.0316 82.9188 84.0316C81.3819 84.0316 80.0692 85.2883 80.0692 86.8252C80.0692 88.5301 81.3499 89.6347 82.9188 89.6347C83.4871 89.6347 83.9433 89.5147 84.2875 89.3546C84.5117 89.2505 84.6797 89.1385 84.6797 88.9544C84.6797 88.7863 84.5437 88.6582 84.3836 88.6582C84.2555 88.6582 84.1114 88.8023 83.7592 88.9223C83.5511 88.9944 83.279 89.0584 82.9108 89.0584C81.7341 89.0584 80.7335 88.1539 80.7335 86.8252C80.7335 85.6085 81.7261 84.6079 82.9108 84.6079C83.279 84.6079 83.5431 84.664 83.7512 84.736C84.0714 84.8481 84.2155 84.9921 84.3436 84.9921C84.5117 84.9921 84.6397 84.8721 84.6397 84.696ZM85.5697 89.3226C85.5697 89.4907 85.7138 89.6347 85.8899 89.6347C86.066 89.6347 86.21 89.4907 86.21 89.3226V87.1053H89.4839V89.3226C89.4839 89.4907 89.6199 89.6347 89.804 89.6347C89.9721 89.6347 90.1242 89.4907 90.1242 89.3226V84.3438C90.1242 84.1757 89.9801 84.0316 89.804 84.0316C89.6199 84.0316 89.4839 84.1757 89.4839 84.3438V86.537H86.21V84.3438C86.21 84.1757 86.066 84.0316 85.8899 84.0316C85.7138 84.0316 85.5697 84.1757 85.5697 84.3438V89.3226ZM96.0377 84.3278C96.0377 84.1677 95.9016 84.0316 95.7335 84.0316C95.5574 84.0316 95.4214 84.1677 95.4214 84.3278V88.5141L91.9955 84.2077C91.9074 84.0956 91.8033 84.0316 91.6753 84.0316C91.4752 84.0316 91.3151 84.1917 91.3151 84.3758V89.3466C91.3151 89.5067 91.4431 89.6347 91.6192 89.6347C91.7953 89.6347 91.9314 89.5067 91.9314 89.3466V85.1522L95.3493 89.4586C95.4374 89.5627 95.5414 89.6347 95.6695 89.6347C95.8776 89.6347 96.0377 89.4826 96.0377 89.2905V84.3278ZM97.2403 89.3226C97.2403 89.4907 97.3843 89.6347 97.5604 89.6347C97.7365 89.6347 97.8806 89.4907 97.8806 89.3226V84.3438C97.8806 84.1757 97.7365 84.0316 97.5604 84.0316C97.3843 84.0316 97.2403 84.1757 97.2403 84.3438V89.3226ZM103.431 84.696C103.431 84.5199 103.279 84.3918 103.047 84.2958C102.711 84.1437 102.279 84.0316 101.71 84.0316C100.174 84.0316 98.8609 85.2883 98.8609 86.8252C98.8609 88.5301 100.142 89.6347 101.71 89.6347C102.279 89.6347 102.735 89.5147 103.079 89.3546C103.303 89.2505 103.471 89.1385 103.471 88.9544C103.471 88.7863 103.335 88.6582 103.175 88.6582C103.047 88.6582 102.903 88.8023 102.551 88.9223C102.343 88.9944 102.071 89.0584 101.702 89.0584C100.526 89.0584 99.5253 88.1539 99.5253 86.8252C99.5253 85.6085 100.518 84.6079 101.702 84.6079C102.071 84.6079 102.335 84.664 102.543 84.736C102.863 84.8481 103.007 84.9921 103.135 84.9921C103.303 84.9921 103.431 84.8721 103.431 84.696ZM106.398 84.8561L107.527 87.6896H105.27L106.398 84.8561ZM108.167 89.4026C108.223 89.5547 108.328 89.6347 108.488 89.6347C108.672 89.6347 108.808 89.5227 108.808 89.3386C108.808 89.2985 108.792 89.2185 108.768 89.1705L106.855 84.3598C106.783 84.1757 106.671 84.0316 106.406 84.0316C106.15 84.0316 106.038 84.1757 105.966 84.3598L104.045 89.1705C104.021 89.2265 103.997 89.2985 103.997 89.3386C103.997 89.4987 104.109 89.6347 104.301 89.6347C104.477 89.6347 104.565 89.5467 104.621 89.4026L105.11 88.2099H107.695L108.167 89.4026ZM109.474 89.2425C109.474 89.4106 109.61 89.5547 109.794 89.5547H112.723C112.876 89.5547 112.996 89.4266 112.996 89.2745C112.996 89.1144 112.876 88.9864 112.723 88.9864H110.114V84.3438C110.114 84.1757 109.97 84.0316 109.794 84.0316C109.61 84.0316 109.474 84.1757 109.474 84.3438V89.2425ZM116.414 87.1053H119.048C119.208 87.1053 119.328 86.9772 119.328 86.8252C119.328 86.6731 119.208 86.537 119.048 86.537H116.414V84.672H119.464C119.616 84.672 119.736 84.5439 119.736 84.3838C119.736 84.2317 119.616 84.1036 119.464 84.1036H116.094C115.91 84.1036 115.774 84.2477 115.774 84.4158V89.2425C115.774 89.4106 115.91 89.5547 116.094 89.5547H119.464C119.616 89.5547 119.736 89.4266 119.736 89.2745C119.736 89.1144 119.616 88.9864 119.464 88.9864H116.414V87.1053ZM122.523 89.7068C122.523 89.8188 122.587 89.8909 122.707 89.9309C124.004 90.3952 125.26 90.8674 125.709 90.8674C125.957 90.8674 126.077 90.7554 126.077 90.5873C126.077 90.3551 125.893 90.3231 125.564 90.2351C125.044 90.099 124.62 89.9949 123.908 89.7708C123.747 89.7228 123.547 89.6748 123.499 89.5947C124.836 89.3786 125.877 88.266 125.877 86.8412C125.877 85.2563 124.58 84.0316 123.027 84.0316C121.466 84.0316 120.177 85.2563 120.177 86.8412C120.177 88.266 121.21 89.3786 122.547 89.5947C122.531 89.6267 122.523 89.6587 122.523 89.7068ZM125.196 86.8412C125.196 88.0579 124.252 89.0424 123.027 89.0424C121.802 89.0424 120.85 88.0579 120.85 86.8412C120.85 85.6325 121.802 84.6319 123.027 84.6319C124.252 84.6319 125.196 85.6325 125.196 86.8412ZM129.132 89.0584C128.595 89.0584 128.179 88.8983 127.883 88.5701C127.619 88.274 127.475 87.8577 127.475 87.3214V84.3438C127.475 84.1757 127.339 84.0316 127.155 84.0316C126.979 84.0316 126.835 84.1757 126.835 84.3438V87.4015C126.835 88.0338 127.019 88.5701 127.363 88.9463C127.755 89.3866 128.363 89.6347 129.14 89.6347C129.916 89.6347 130.525 89.3866 130.917 88.9463C131.261 88.5701 131.445 88.0338 131.445 87.4015V84.3438C131.445 84.1757 131.301 84.0316 131.125 84.0316C130.941 84.0316 130.805 84.1757 130.805 84.3438V87.3214C130.805 87.8577 130.661 88.274 130.397 88.5701C130.1 88.8983 129.684 89.0584 129.132 89.0584ZM132.627 89.3226C132.627 89.4907 132.771 89.6347 132.947 89.6347C133.123 89.6347 133.268 89.4907 133.268 89.3226V84.3438C133.268 84.1757 133.123 84.0316 132.947 84.0316C132.771 84.0316 132.627 84.1757 132.627 84.3438V89.3226ZM134.792 84.1036C134.616 84.1036 134.472 84.2477 134.472 84.4158V89.3226C134.472 89.4907 134.616 89.6347 134.792 89.6347C134.968 89.6347 135.112 89.4907 135.112 89.3226V87.6896H136.609C137.065 87.6896 137.514 87.6256 137.898 87.3455C138.322 87.0333 138.586 86.513 138.586 85.8966C138.586 85.2803 138.338 84.8 137.946 84.4879C137.57 84.1997 137.161 84.1036 136.689 84.1036H134.792ZM137.938 85.8966C137.938 86.3449 137.746 86.7051 137.442 86.9132C137.177 87.0893 136.841 87.1293 136.505 87.1293H135.112V84.664H136.593C136.937 84.664 137.226 84.728 137.474 84.9121C137.762 85.1122 137.938 85.4324 137.938 85.8966ZM139.483 84.4238V89.3306C139.483 89.4987 139.603 89.6347 139.795 89.6347C139.979 89.6347 140.099 89.4987 140.099 89.3306V85.2163L141.9 88.1299C141.964 88.234 142.06 88.33 142.212 88.33C142.364 88.33 142.46 88.234 142.524 88.1299L144.325 85.2163V89.3306C144.325 89.4987 144.445 89.6347 144.637 89.6347C144.822 89.6347 144.942 89.4987 144.942 89.3306V84.4238C144.942 84.2077 144.79 84.0316 144.549 84.0316C144.389 84.0316 144.269 84.1197 144.197 84.2397L142.212 87.5135L140.227 84.2397C140.155 84.1197 140.043 84.0316 139.875 84.0316C139.635 84.0316 139.483 84.2077 139.483 84.4238ZM146.783 87.1053H149.416C149.576 87.1053 149.697 86.9772 149.697 86.8252C149.697 86.6731 149.576 86.537 149.416 86.537H146.783V84.672H149.833C149.985 84.672 150.105 84.5439 150.105 84.3838C150.105 84.2317 149.985 84.1036 149.833 84.1036H146.463C146.279 84.1036 146.143 84.2477 146.143 84.4158V89.2425C146.143 89.4106 146.279 89.5547 146.463 89.5547H149.833C149.985 89.5547 150.105 89.4266 150.105 89.2745C150.105 89.1144 149.985 88.9864 149.833 88.9864H146.783V87.1053ZM155.68 84.3278C155.68 84.1677 155.544 84.0316 155.376 84.0316C155.2 84.0316 155.064 84.1677 155.064 84.3278V88.5141L151.638 84.2077C151.55 84.0956 151.446 84.0316 151.318 84.0316C151.118 84.0316 150.958 84.1917 150.958 84.3758V89.3466C150.958 89.5067 151.086 89.6347 151.262 89.6347C151.438 89.6347 151.574 89.5067 151.574 89.3466V85.1522L154.992 89.4586C155.08 89.5627 155.184 89.6347 155.312 89.6347C155.52 89.6347 155.68 89.4826 155.68 89.2905V84.3278ZM160.525 84.672C160.677 84.672 160.797 84.5439 160.797 84.3838C160.797 84.2317 160.677 84.1036 160.525 84.1036H156.563C156.403 84.1036 156.283 84.2317 156.283 84.3838C156.283 84.5439 156.403 84.672 156.563 84.672H158.22V89.3226C158.22 89.4907 158.364 89.6347 158.54 89.6347C158.716 89.6347 158.86 89.4907 158.86 89.3226V84.672H160.525Z" fill="#419A28"/>
</svg>
