<svg width="89" height="48" viewBox="0 0 89 48" fill="none" xmlns="http://www.w3.org/2000/svg">
<path d="M40.7138 4.62842H30.2036C29.1056 4.62842 28.2155 5.29852 28.2155 6.12513V6.67942C28.2155 7.50603 29.1056 8.17613 30.2036 8.17613H40.7138C41.8118 8.17613 42.7019 7.50603 42.7019 6.67942V6.12513C42.7019 5.29852 41.8118 4.62842 40.7138 4.62842Z" stroke="#A7CF9F" stroke-width="1.14277" stroke-miterlimit="22.9256"/>
<path d="M40.7138 11.1389H30.2036C29.1056 11.1389 28.2155 11.809 28.2155 12.6356V13.1899C28.2155 14.0165 29.1056 14.6866 30.2036 14.6866H40.7138C41.8118 14.6866 42.7019 14.0165 42.7019 13.1899V12.6356C42.7019 11.809 41.8118 11.1389 40.7138 11.1389Z" stroke="#A7CF9F" stroke-width="1.14277" stroke-miterlimit="22.9256"/>
<path d="M40.7138 17.2666H30.2036C29.1056 17.2666 28.2155 17.9367 28.2155 18.7633V19.3176C28.2155 20.1442 29.1056 20.8143 30.2036 20.8143H40.7138C41.8118 20.8143 42.7019 20.1442 42.7019 19.3176V18.7633C42.7019 17.9367 41.8118 17.2666 40.7138 17.2666Z" stroke="#A7CF9F" stroke-width="1.14277" stroke-miterlimit="22.9256"/>
<path d="M58.5491 1H48.0388C46.9409 1 46.0508 1.6701 46.0508 2.49672V3.051C46.0508 3.87761 46.9409 4.54772 48.0388 4.54772H58.5491C59.6471 4.54772 60.5372 3.87761 60.5372 3.051V2.49672C60.5372 1.6701 59.6471 1 58.5491 1Z" stroke="#419A28" stroke-width="1.14277" stroke-miterlimit="22.9256"/>
<path d="M58.5536 7.51099H48.0432C46.9452 7.51099 46.0551 8.18109 46.0551 9.0077V9.56198C46.0551 10.3886 46.9452 11.0587 48.0432 11.0587H58.5536C59.6516 11.0587 60.5417 10.3886 60.5417 9.56198V9.0077C60.5417 8.18109 59.6516 7.51099 58.5536 7.51099Z" stroke="#419A28" stroke-width="1.14277" stroke-miterlimit="22.9256"/>
<path d="M58.5536 13.6389H48.0432C46.9452 13.6389 46.0551 14.309 46.0551 15.1356V15.6899C46.0551 16.5165 46.9452 17.1866 48.0432 17.1866H58.5536C59.6516 17.1866 60.5417 16.5165 60.5417 15.6899V15.1356C60.5417 14.309 59.6516 13.6389 58.5536 13.6389Z" stroke="#419A28" stroke-width="1.14277" stroke-miterlimit="22.9256"/>
<path d="M0.88568 35.8126C0.88568 36.0606 1.09825 36.2731 1.35806 36.2731C1.61787 36.2731 1.83044 36.0606 1.83044 35.8126V28.4671C1.83044 28.2191 1.61787 28.0065 1.35806 28.0065C1.09825 28.0065 0.88568 28.2191 0.88568 28.4671V35.8126ZM10.575 28.4434C10.575 28.2073 10.3742 28.0065 10.1262 28.0065C9.86642 28.0065 9.66565 28.2073 9.66565 28.4434V34.6198L4.6112 28.2663C4.4813 28.101 4.32777 28.0065 4.13882 28.0065C3.84358 28.0065 3.60739 28.2427 3.60739 28.5143V35.848C3.60739 36.0842 3.79635 36.2731 4.05615 36.2731C4.31596 36.2731 4.51672 36.0842 4.51672 35.848V29.6598L9.55937 36.0133C9.68927 36.1668 9.8428 36.2731 10.0317 36.2731C10.3388 36.2731 10.575 36.0487 10.575 35.7653V28.4434ZM17.2383 28.904C17.2383 28.6442 16.9785 28.4671 16.6951 28.349C16.2109 28.1364 15.4787 28.0065 14.8528 28.0065C12.9987 28.0065 12.0067 28.8213 12.0067 30.144C12.0067 31.0297 12.5027 31.573 13.1995 31.9154C14.0497 32.3288 14.8292 32.435 15.5377 32.7421C16.1164 32.9901 16.5533 33.3562 16.5533 33.9703C16.5533 34.8087 15.9865 35.4583 14.7111 35.4583C14.1206 35.4583 13.66 35.3166 13.2939 35.1394C12.7625 34.9032 12.6326 34.7025 12.4318 34.7025C12.172 34.7025 11.9713 34.8914 11.9713 35.163C11.9713 35.411 12.1838 35.5764 12.42 35.7063C12.9633 36.0015 13.8726 36.2731 14.7111 36.2731C16.3998 36.2731 17.569 35.3992 17.569 33.8876C17.569 33.0137 17.0848 32.4705 16.5297 32.1398C15.7857 31.7147 14.9591 31.6084 14.156 31.3131C13.4475 31.0533 12.9987 30.7109 12.9987 30.1204C12.9987 29.2819 13.5892 28.8213 14.8055 28.8213C15.2779 28.8213 15.6558 28.9158 15.9865 29.0339C16.3644 29.1638 16.577 29.341 16.7895 29.341C17.0612 29.341 17.2383 29.152 17.2383 28.904ZM24.2846 28.9512C24.509 28.9512 24.6861 28.7623 24.6861 28.5261C24.6861 28.3017 24.509 28.1128 24.2846 28.1128H18.4389C18.2027 28.1128 18.0256 28.3017 18.0256 28.5261C18.0256 28.7623 18.2027 28.9512 18.4389 28.9512H20.8835V35.8126C20.8835 36.0606 21.096 36.2731 21.3558 36.2731C21.6156 36.2731 21.8282 36.0606 21.8282 35.8126V28.9512H24.2846ZM27.4062 29.2229L29.0713 33.4034H25.741L27.4062 29.2229ZM30.0161 35.9306C30.0987 36.155 30.2522 36.2731 30.4884 36.2731C30.7601 36.2731 30.9608 36.1078 30.9608 35.8362C30.9608 35.7771 30.9372 35.659 30.9018 35.5882L28.0793 28.4907C27.973 28.2191 27.8077 28.0065 27.418 28.0065C27.0401 28.0065 26.8747 28.2191 26.7684 28.4907L23.9342 35.5882C23.8987 35.6708 23.8633 35.7771 23.8633 35.8362C23.8633 36.0724 24.0287 36.2731 24.3121 36.2731C24.5719 36.2731 24.7018 36.1432 24.7845 35.9306L25.5048 34.171H29.3193L30.0161 35.9306ZM31.9432 35.6945C31.9432 35.9425 32.144 36.155 32.4156 36.155H36.7379C36.9622 36.155 37.1394 35.9661 37.1394 35.7417C37.1394 35.5055 36.9622 35.3166 36.7379 35.3166H32.888V28.4671C32.888 28.2191 32.6754 28.0065 32.4156 28.0065C32.144 28.0065 31.9432 28.2191 31.9432 28.4671V35.6945ZM38.2401 35.6945C38.2401 35.9425 38.4408 36.155 38.7124 36.155H43.0347C43.2591 36.155 43.4362 35.9661 43.4362 35.7417C43.4362 35.5055 43.2591 35.3166 43.0347 35.3166H39.1848V28.4671C39.1848 28.2191 38.9722 28.0065 38.7124 28.0065C38.4408 28.0065 38.2401 28.2191 38.2401 28.4671V35.6945ZM51.4562 32.1634C51.2318 32.1634 51.0546 32.3524 51.0546 32.5768C51.0546 32.8129 51.2318 33.0019 51.4562 33.0019H53.6291V34.7261C53.0977 35.1158 52.3064 35.4347 51.3853 35.4347C49.6021 35.4347 48.1849 34.1474 48.1849 32.128C48.1849 30.3448 49.6257 28.8568 51.3853 28.8568C51.8577 28.8568 52.2238 28.9276 52.5308 29.0339C53.1095 29.2347 53.2748 29.4236 53.511 29.4236C53.7472 29.4236 53.948 29.2465 53.948 28.9867C53.948 28.7151 53.7118 28.5379 53.3693 28.3962C52.8261 28.1718 52.2356 28.0065 51.3971 28.0065C49.0943 28.0065 47.2047 29.8606 47.2047 32.128C47.2047 34.7969 49.0588 36.2731 51.3499 36.2731C52.2946 36.2731 53.0859 35.9897 53.6291 35.6236V35.8126C53.6291 36.0724 53.8062 36.2731 54.0897 36.2731C54.3731 36.2731 54.5502 36.0724 54.5502 35.8126V32.624C54.5502 32.3642 54.4085 32.1634 54.1133 32.1634H51.4562ZM57.245 33.0137H59.3235L61.6263 36.0487C61.7208 36.1786 61.8625 36.2731 62.0278 36.2731C62.2995 36.2731 62.512 36.0487 62.512 35.8007C62.512 35.6945 62.4648 35.5764 62.3821 35.4819L60.41 32.9665C60.8233 32.8956 61.2012 32.7657 61.5673 32.4941C62.1459 32.069 62.512 31.443 62.512 30.5691C62.512 29.6244 62.1459 28.9631 61.5555 28.5733C61.0122 28.2073 60.3745 28.1128 59.5951 28.1128H56.7726C56.501 28.1128 56.3003 28.3253 56.3003 28.5733V35.8126C56.3003 36.0606 56.501 36.2731 56.7726 36.2731C57.0324 36.2731 57.245 36.0606 57.245 35.8126V33.0137ZM59.4888 28.9158C60.0202 28.9158 60.4808 28.9631 60.8705 29.1992C61.272 29.4354 61.5437 29.8842 61.5437 30.5691C61.5437 31.2777 61.2602 31.7029 60.8469 31.9509C60.4572 32.1752 60.0084 32.2225 59.4652 32.2225H57.245V28.9158H59.4888ZM72.0587 32.1516C72.0587 29.8133 70.1574 28.0065 67.8545 28.0065C65.5517 28.0065 63.6504 29.8133 63.6504 32.1516C63.6504 34.4781 65.5517 36.2731 67.8545 36.2731C70.1574 36.2731 72.0587 34.4899 72.0587 32.1516ZM71.0667 32.1516C71.0667 33.9348 69.6614 35.3992 67.8545 35.3992C66.0477 35.3992 64.6542 33.9467 64.6542 32.1516C64.6542 30.3684 66.0477 28.8922 67.8545 28.8922C69.6614 28.8922 71.0667 30.3684 71.0667 32.1516ZM76.8612 35.4228C76.07 35.4228 75.4559 35.1867 75.0189 34.7025C74.6292 34.2655 74.4166 33.6514 74.4166 32.8602V28.4671C74.4166 28.2191 74.2159 28.0065 73.9442 28.0065C73.6844 28.0065 73.4719 28.2191 73.4719 28.4671V32.9783C73.4719 33.9112 73.7435 34.7025 74.2513 35.2575C74.83 35.907 75.7275 36.2731 76.873 36.2731C78.0185 36.2731 78.916 35.907 79.4947 35.2575C80.0025 34.7025 80.2741 33.9112 80.2741 32.9783V28.4671C80.2741 28.2191 80.0616 28.0065 79.8017 28.0065C79.5301 28.0065 79.3294 28.2191 79.3294 28.4671V32.8602C79.3294 33.6514 79.1168 34.2655 78.7271 34.7025C78.2901 35.1867 77.676 35.4228 76.8612 35.4228ZM82.4905 28.1128C82.2307 28.1128 82.0181 28.3253 82.0181 28.5733V35.8126C82.0181 36.0606 82.2307 36.2731 82.4905 36.2731C82.7503 36.2731 82.9629 36.0606 82.9629 35.8126V33.4034H85.1713C85.8444 33.4034 86.5057 33.3089 87.0726 32.8956C87.6985 32.435 88.0882 31.6674 88.0882 30.7581C88.0882 29.8488 87.7221 29.1402 87.1435 28.6796C86.5884 28.2545 85.9861 28.1128 85.2894 28.1128H82.4905ZM87.1317 30.7581C87.1317 31.4194 86.8482 31.9509 86.3995 32.2579C86.0098 32.5177 85.5138 32.5768 85.0178 32.5768H82.9629V28.9394H85.1477C85.6555 28.9394 86.0806 29.0339 86.4467 29.3055C86.8718 29.6008 87.1317 30.0731 87.1317 30.7581Z" fill="white"/>
<path d="M6.79674 44.2493C6.79674 44.1568 6.71692 44.0896 6.5951 44.0392C6.41868 43.9594 6.19184 43.9006 5.89359 43.9006C5.08706 43.9006 4.39815 44.5601 4.39815 45.3666C4.39815 46.2614 5.07026 46.8411 5.89359 46.8411C6.19184 46.8411 6.43128 46.7781 6.61191 46.6941C6.72953 46.6394 6.81774 46.5806 6.81774 46.484C6.81774 46.3958 6.74633 46.3286 6.66232 46.3286C6.5951 46.3286 6.51949 46.4042 6.33466 46.4672C6.22544 46.505 6.08262 46.5386 5.88939 46.5386C5.27189 46.5386 4.7468 46.064 4.7468 45.3666C4.7468 44.7281 5.26769 44.203 5.88939 44.203C6.08262 44.203 6.22124 44.2325 6.33046 44.2703C6.49849 44.3291 6.5741 44.4047 6.64131 44.4047C6.72953 44.4047 6.79674 44.3417 6.79674 44.2493ZM10.0309 45.375C10.0309 44.5433 9.35456 43.9006 8.53543 43.9006C7.71629 43.9006 7.03998 44.5433 7.03998 45.375C7.03998 46.2026 7.71629 46.8411 8.53543 46.8411C9.35456 46.8411 10.0309 46.2068 10.0309 45.375ZM9.67801 45.375C9.67801 46.0093 9.17813 46.5302 8.53543 46.5302C7.89272 46.5302 7.39704 46.0135 7.39704 45.375C7.39704 44.7407 7.89272 44.2157 8.53543 44.2157C9.17813 44.2157 9.67801 44.7407 9.67801 45.375ZM10.5419 44.1064V46.6815C10.5419 46.7697 10.605 46.8411 10.7058 46.8411C10.8024 46.8411 10.8654 46.7697 10.8654 46.6815V44.5223L11.8105 46.0514C11.8442 46.106 11.8946 46.1564 11.9744 46.1564C12.0542 46.1564 12.1046 46.106 12.1382 46.0514L13.0834 44.5223V46.6815C13.0834 46.7697 13.1464 46.8411 13.2472 46.8411C13.3438 46.8411 13.4068 46.7697 13.4068 46.6815V44.1064C13.4068 43.993 13.327 43.9006 13.201 43.9006C13.117 43.9006 13.054 43.9468 13.0161 44.0098L11.9744 45.7279L10.9326 44.0098C10.8948 43.9468 10.836 43.9006 10.7478 43.9006C10.6218 43.9006 10.5419 43.993 10.5419 44.1064ZM14.2051 43.9384C14.1127 43.9384 14.037 44.014 14.037 44.1022V46.6773C14.037 46.7655 14.1127 46.8411 14.2051 46.8411C14.2975 46.8411 14.3731 46.7655 14.3731 46.6773V45.8203H15.1586C15.3981 45.8203 15.6333 45.7867 15.8349 45.6397C16.0576 45.4759 16.1962 45.2028 16.1962 44.8794C16.1962 44.5559 16.066 44.3039 15.8601 44.14C15.6627 43.9888 15.4485 43.9384 15.2006 43.9384H14.2051ZM15.8559 44.8794C15.8559 45.1146 15.7551 45.3036 15.5955 45.4128C15.4569 45.5053 15.2804 45.5263 15.104 45.5263H14.3731V44.2325H15.1502C15.3309 44.2325 15.4821 44.2661 15.6123 44.3627C15.7635 44.4677 15.8559 44.6357 15.8559 44.8794ZM17.0026 45.5137H18.3847C18.4687 45.5137 18.5317 45.4465 18.5317 45.3666C18.5317 45.2868 18.4687 45.2154 18.3847 45.2154H17.0026V44.2367H18.6031C18.6829 44.2367 18.7459 44.1694 18.7459 44.0854C18.7459 44.0056 18.6829 43.9384 18.6031 43.9384H16.8346C16.738 43.9384 16.6666 44.014 16.6666 44.1022V46.6352C16.6666 46.7235 16.738 46.7991 16.8346 46.7991H18.6031C18.6829 46.7991 18.7459 46.7319 18.7459 46.652C18.7459 46.568 18.6829 46.5008 18.6031 46.5008H17.0026V45.5137ZM19.1935 46.6773C19.1935 46.7655 19.2692 46.8411 19.3616 46.8411C19.454 46.8411 19.5296 46.7655 19.5296 46.6773V45.5137H21.2477V46.6773C21.2477 46.7655 21.3191 46.8411 21.4157 46.8411C21.5039 46.8411 21.5837 46.7655 21.5837 46.6773V44.0644C21.5837 43.9762 21.5081 43.9006 21.4157 43.9006C21.3191 43.9006 21.2477 43.9762 21.2477 44.0644V45.2154H19.5296V44.0644C19.5296 43.9762 19.454 43.9006 19.3616 43.9006C19.2692 43.9006 19.1935 43.9762 19.1935 44.0644V46.6773ZM22.5447 45.5137H23.9268C24.0108 45.5137 24.0738 45.4465 24.0738 45.3666C24.0738 45.2868 24.0108 45.2154 23.9268 45.2154H22.5447V44.2367H24.1452C24.225 44.2367 24.288 44.1694 24.288 44.0854C24.288 44.0056 24.225 43.9384 24.1452 43.9384H22.3767C22.2801 43.9384 22.2087 44.014 22.2087 44.1022V46.6352C22.2087 46.7235 22.2801 46.7991 22.3767 46.7991H24.1452C24.225 46.7991 24.288 46.7319 24.288 46.652C24.288 46.568 24.225 46.5008 24.1452 46.5008H22.5447V45.5137ZM27.2141 44.056C27.2141 43.972 27.1427 43.9006 27.0544 43.9006C26.962 43.9006 26.8906 43.972 26.8906 44.056V46.253L25.0927 43.993C25.0465 43.9342 24.9919 43.9006 24.9247 43.9006C24.8197 43.9006 24.7357 43.9846 24.7357 44.0812V46.6899C24.7357 46.7739 24.8029 46.8411 24.8953 46.8411C24.9877 46.8411 25.0591 46.7739 25.0591 46.6899V44.4887L26.8528 46.7487C26.899 46.8033 26.9536 46.8411 27.0208 46.8411C27.13 46.8411 27.2141 46.7613 27.2141 46.6604V44.056ZM29.5842 44.2199C29.5842 44.1274 29.4918 44.0644 29.391 44.0224C29.2188 43.9468 28.9583 43.9006 28.7357 43.9006C28.0762 43.9006 27.7233 44.1904 27.7233 44.6609C27.7233 44.976 27.8998 45.1692 28.1476 45.291C28.45 45.4381 28.7273 45.4759 28.9793 45.5851C29.1852 45.6733 29.3406 45.8035 29.3406 46.0219C29.3406 46.3202 29.139 46.5512 28.6853 46.5512C28.4753 46.5512 28.3114 46.5008 28.1812 46.4378C27.9922 46.3538 27.946 46.2824 27.8746 46.2824C27.7821 46.2824 27.7107 46.3496 27.7107 46.4462C27.7107 46.5344 27.7863 46.5932 27.8704 46.6394C28.0636 46.7445 28.387 46.8411 28.6853 46.8411C29.286 46.8411 29.7019 46.5302 29.7019 45.9925C29.7019 45.6817 29.5296 45.4885 29.3322 45.3708C29.0675 45.2196 28.7735 45.1818 28.4879 45.0768C28.2358 44.9844 28.0762 44.8626 28.0762 44.6525C28.0762 44.3543 28.2862 44.1904 28.7189 44.1904C28.8869 44.1904 29.0213 44.2241 29.139 44.2661C29.2734 44.3123 29.349 44.3753 29.4246 44.3753C29.5212 44.3753 29.5842 44.3081 29.5842 44.2199ZM30.1793 46.6773C30.1793 46.7655 30.2549 46.8411 30.3473 46.8411C30.4398 46.8411 30.5154 46.7655 30.5154 46.6773V44.0644C30.5154 43.9762 30.4398 43.9006 30.3473 43.9006C30.2549 43.9006 30.1793 43.9762 30.1793 44.0644V46.6773ZM32.1262 46.3958L31.1979 44.0182C31.1726 43.9468 31.1096 43.9006 31.034 43.9006C30.9332 43.9006 30.8618 43.972 30.8618 44.0686C30.8618 44.0896 30.8702 44.1148 30.8786 44.14L31.8868 46.6689C31.9246 46.7655 31.996 46.8411 32.122 46.8411C32.248 46.8411 32.3236 46.7655 32.3614 46.6689L33.3822 44.1358C33.3906 44.1106 33.399 44.0854 33.399 44.0644C33.399 43.9636 33.3192 43.9006 33.2268 43.9006C33.1512 43.9006 33.0882 43.9468 33.0588 44.0182L32.1262 46.3958ZM34.0802 45.5137H35.4622C35.5463 45.5137 35.6093 45.4465 35.6093 45.3666C35.6093 45.2868 35.5463 45.2154 35.4622 45.2154H34.0802V44.2367H35.6807C35.7605 44.2367 35.8235 44.1694 35.8235 44.0854C35.8235 44.0056 35.7605 43.9384 35.6807 43.9384H33.9122C33.8156 43.9384 33.7442 44.014 33.7442 44.1022V46.6352C33.7442 46.7235 33.8156 46.7991 33.9122 46.7991H35.6807C35.7605 46.7991 35.8235 46.7319 35.8235 46.652C35.8235 46.568 35.7605 46.5008 35.6807 46.5008H34.0802V45.5137ZM39.249 44.2367C39.3288 44.2367 39.3918 44.1694 39.3918 44.0854C39.3918 44.0056 39.3288 43.9384 39.249 43.9384H37.1697C37.0857 43.9384 37.0227 44.0056 37.0227 44.0854C37.0227 44.1694 37.0857 44.2367 37.1697 44.2367H38.0392V46.6773C38.0392 46.7655 38.1148 46.8411 38.2073 46.8411C38.2997 46.8411 38.3753 46.7655 38.3753 46.6773V44.2367H39.249ZM40.0449 45.5137H41.4269C41.5109 45.5137 41.5739 45.4465 41.5739 45.3666C41.5739 45.2868 41.5109 45.2154 41.4269 45.2154H40.0449V44.2367H41.6453C41.7251 44.2367 41.7881 44.1694 41.7881 44.0854C41.7881 44.0056 41.7251 43.9384 41.6453 43.9384H39.8768C39.7802 43.9384 39.7088 44.014 39.7088 44.1022V46.6352C39.7088 46.7235 39.7802 46.7991 39.8768 46.7991H41.6453C41.7251 46.7991 41.7881 46.7319 41.7881 46.652C41.7881 46.568 41.7251 46.5008 41.6453 46.5008H40.0449V45.5137ZM44.4183 44.2493C44.4183 44.1568 44.3385 44.0896 44.2167 44.0392C44.0402 43.9594 43.8134 43.9006 43.5151 43.9006C42.7086 43.9006 42.0197 44.5601 42.0197 45.3666C42.0197 46.2614 42.6918 46.8411 43.5151 46.8411C43.8134 46.8411 44.0528 46.7781 44.2335 46.6941C44.3511 46.6394 44.4393 46.5806 44.4393 46.484C44.4393 46.3958 44.3679 46.3286 44.2839 46.3286C44.2167 46.3286 44.141 46.4042 43.9562 46.4672C43.847 46.505 43.7042 46.5386 43.5109 46.5386C42.8934 46.5386 42.3684 46.064 42.3684 45.3666C42.3684 44.7281 42.8892 44.203 43.5109 44.203C43.7042 44.203 43.8428 44.2325 43.952 44.2703C44.12 44.3291 44.1957 44.4047 44.2629 44.4047C44.3511 44.4047 44.4183 44.3417 44.4183 44.2493ZM44.9063 46.6773C44.9063 46.7655 44.9819 46.8411 45.0744 46.8411C45.1668 46.8411 45.2424 46.7655 45.2424 46.6773V45.5137H46.9605V46.6773C46.9605 46.7655 47.0319 46.8411 47.1285 46.8411C47.2167 46.8411 47.2965 46.7655 47.2965 46.6773V44.0644C47.2965 43.9762 47.2209 43.9006 47.1285 43.9006C47.0319 43.9006 46.9605 43.9762 46.9605 44.0644V45.2154H45.2424V44.0644C45.2424 43.9762 45.1668 43.9006 45.0744 43.9006C44.9819 43.9006 44.9063 43.9762 44.9063 44.0644V46.6773ZM50.3999 44.056C50.3999 43.972 50.3285 43.9006 50.2402 43.9006C50.1478 43.9006 50.0764 43.972 50.0764 44.056V46.253L48.2785 43.993C48.2323 43.9342 48.1777 43.9006 48.1105 43.9006C48.0055 43.9006 47.9215 43.9846 47.9215 44.0812V46.6899C47.9215 46.7739 47.9887 46.8411 48.0811 46.8411C48.1735 46.8411 48.2449 46.7739 48.2449 46.6899V44.4887L50.0386 46.7487C50.0848 46.8033 50.1394 46.8411 50.2066 46.8411C50.3159 46.8411 50.3999 46.7613 50.3999 46.6604V44.056ZM51.031 46.6773C51.031 46.7655 51.1066 46.8411 51.199 46.8411C51.2914 46.8411 51.367 46.7655 51.367 46.6773V44.0644C51.367 43.9762 51.2914 43.9006 51.199 43.9006C51.1066 43.9006 51.031 43.9762 51.031 44.0644V46.6773ZM54.2801 44.2493C54.2801 44.1568 54.2002 44.0896 54.0784 44.0392C53.902 43.9594 53.6752 43.9006 53.3769 43.9006C52.5704 43.9006 51.8815 44.5601 51.8815 45.3666C51.8815 46.2614 52.5536 46.8411 53.3769 46.8411C53.6752 46.8411 53.9146 46.7781 54.0952 46.6941C54.2128 46.6394 54.3011 46.5806 54.3011 46.484C54.3011 46.3958 54.2296 46.3286 54.1456 46.3286C54.0784 46.3286 54.0028 46.4042 53.818 46.4672C53.7088 46.505 53.5659 46.5386 53.3727 46.5386C52.7552 46.5386 52.2301 46.064 52.2301 45.3666C52.2301 44.7281 52.751 44.203 53.3727 44.203C53.5659 44.203 53.7046 44.2325 53.8138 44.2703C53.9818 44.3291 54.0574 44.4047 54.1246 44.4047C54.2128 44.4047 54.2801 44.3417 54.2801 44.2493ZM55.8371 44.3333L56.4294 45.8203H55.2448L55.8371 44.3333ZM56.7654 46.7193C56.7949 46.7991 56.8495 46.8411 56.9335 46.8411C57.0301 46.8411 57.1015 46.7823 57.1015 46.6857C57.1015 46.6647 57.0931 46.6226 57.0805 46.5974L56.0765 44.0728C56.0387 43.9762 55.9799 43.9006 55.8413 43.9006C55.7069 43.9006 55.6481 43.9762 55.6103 44.0728L54.6021 46.5974C54.5895 46.6268 54.5769 46.6647 54.5769 46.6857C54.5769 46.7697 54.6357 46.8411 54.7365 46.8411C54.8289 46.8411 54.8751 46.7949 54.9045 46.7193L55.1608 46.0934H56.5176L56.7654 46.7193ZM57.4509 46.6352C57.4509 46.7235 57.5224 46.7991 57.619 46.7991H59.1564C59.2362 46.7991 59.2992 46.7319 59.2992 46.652C59.2992 46.568 59.2362 46.5008 59.1564 46.5008H57.787V44.0644C57.787 43.9762 57.7114 43.9006 57.619 43.9006C57.5224 43.9006 57.4509 43.9762 57.4509 44.0644V46.6352ZM61.0934 45.5137H62.4754C62.5594 45.5137 62.6225 45.4465 62.6225 45.3666C62.6225 45.2868 62.5594 45.2154 62.4754 45.2154H61.0934V44.2367H62.6939C62.7737 44.2367 62.8367 44.1694 62.8367 44.0854C62.8367 44.0056 62.7737 43.9384 62.6939 43.9384H60.9254C60.8288 43.9384 60.7573 44.014 60.7573 44.1022V46.6352C60.7573 46.7235 60.8288 46.7991 60.9254 46.7991H62.6939C62.7737 46.7991 62.8367 46.7319 62.8367 46.652C62.8367 46.568 62.7737 46.5008 62.6939 46.5008H61.0934V45.5137ZM64.299 46.8789C64.299 46.9377 64.3327 46.9755 64.3957 46.9965C65.0762 47.2401 65.7357 47.488 65.9709 47.488C66.1011 47.488 66.1642 47.4292 66.1642 47.341C66.1642 47.2191 66.0675 47.2023 65.8953 47.1561C65.6223 47.0847 65.3996 47.0301 65.0258 46.9125C64.9418 46.8873 64.8367 46.8621 64.8115 46.8201C65.513 46.7067 66.0591 46.1228 66.0591 45.375C66.0591 44.5433 65.3786 43.9006 64.5637 43.9006C63.7446 43.9006 63.0682 44.5433 63.0682 45.375C63.0682 46.1228 63.6101 46.7067 64.3117 46.8201C64.3032 46.8369 64.299 46.8537 64.299 46.8789ZM65.7021 45.375C65.7021 46.0135 65.2064 46.5302 64.5637 46.5302C63.921 46.5302 63.4211 46.0135 63.4211 45.375C63.4211 44.7407 63.921 44.2157 64.5637 44.2157C65.2064 44.2157 65.7021 44.7407 65.7021 45.375ZM67.7674 46.5386C67.486 46.5386 67.2675 46.4546 67.1121 46.2824C66.9735 46.127 66.8979 45.9085 66.8979 45.6271V44.0644C66.8979 43.9762 66.8264 43.9006 66.7298 43.9006C66.6374 43.9006 66.5618 43.9762 66.5618 44.0644V45.6691C66.5618 46.0009 66.6584 46.2824 66.839 46.4798C67.0449 46.7109 67.3641 46.8411 67.7716 46.8411C68.1791 46.8411 68.4983 46.7109 68.7042 46.4798C68.8848 46.2824 68.9814 46.0009 68.9814 45.6691V44.0644C68.9814 43.9762 68.9058 43.9006 68.8134 43.9006C68.7168 43.9006 68.6453 43.9762 68.6453 44.0644V45.6271C68.6453 45.9085 68.5697 46.127 68.4311 46.2824C68.2757 46.4546 68.0572 46.5386 67.7674 46.5386ZM69.6018 46.6773C69.6018 46.7655 69.6774 46.8411 69.7698 46.8411C69.8622 46.8411 69.9378 46.7655 69.9378 46.6773V44.0644C69.9378 43.9762 69.8622 43.9006 69.7698 43.9006C69.6774 43.9006 69.6018 43.9762 69.6018 44.0644V46.6773ZM70.7379 43.9384C70.6455 43.9384 70.5699 44.014 70.5699 44.1022V46.6773C70.5699 46.7655 70.6455 46.8411 70.7379 46.8411C70.8303 46.8411 70.9059 46.7655 70.9059 46.6773V45.8203H71.6915C71.9309 45.8203 72.1661 45.7867 72.3678 45.6397C72.5904 45.4759 72.729 45.2028 72.729 44.8794C72.729 44.5559 72.5988 44.3039 72.393 44.14C72.1955 43.9888 71.9813 43.9384 71.7335 43.9384H70.7379ZM72.3888 44.8794C72.3888 45.1146 72.288 45.3036 72.1283 45.4128C71.9897 45.5053 71.8133 45.5263 71.6369 45.5263H70.9059V44.2325H71.6831C71.8637 44.2325 72.0149 44.2661 72.1451 44.3627C72.2964 44.4677 72.3888 44.6357 72.3888 44.8794ZM73.1994 44.1064V46.6815C73.1994 46.7697 73.2624 46.8411 73.3632 46.8411C73.4599 46.8411 73.5229 46.7697 73.5229 46.6815V44.5223L74.468 46.0514C74.5016 46.106 74.552 46.1564 74.6318 46.1564C74.7117 46.1564 74.7621 46.106 74.7957 46.0514L75.7408 44.5223V46.6815C75.7408 46.7697 75.8038 46.8411 75.9047 46.8411C76.0013 46.8411 76.0643 46.7697 76.0643 46.6815V44.1064C76.0643 43.993 75.9845 43.9006 75.8584 43.9006C75.7744 43.9006 75.7114 43.9468 75.6736 44.0098L74.6318 45.7279L73.5901 44.0098C73.5523 43.9468 73.4935 43.9006 73.4052 43.9006C73.2792 43.9006 73.1994 43.993 73.1994 44.1064ZM77.0306 45.5137H78.4126C78.4966 45.5137 78.5596 45.4465 78.5596 45.3666C78.5596 45.2868 78.4966 45.2154 78.4126 45.2154H77.0306V44.2367H78.631C78.7108 44.2367 78.7739 44.1694 78.7739 44.0854C78.7739 44.0056 78.7108 43.9384 78.631 43.9384H76.8625C76.7659 43.9384 76.6945 44.014 76.6945 44.1022V46.6352C76.6945 46.7235 76.7659 46.7991 76.8625 46.7991H78.631C78.7108 46.7991 78.7739 46.7319 78.7739 46.652C78.7739 46.568 78.7108 46.5008 78.631 46.5008H77.0306V45.5137ZM81.6999 44.056C81.6999 43.972 81.6285 43.9006 81.5403 43.9006C81.4478 43.9006 81.3764 43.972 81.3764 44.056V46.253L79.5785 43.993C79.5323 43.9342 79.4777 43.9006 79.4105 43.9006C79.3055 43.9006 79.2215 43.9846 79.2215 44.0812V46.6899C79.2215 46.7739 79.2887 46.8411 79.3811 46.8411C79.4735 46.8411 79.5449 46.7739 79.5449 46.6899V44.4887L81.3386 46.7487C81.3848 46.8033 81.4394 46.8411 81.5067 46.8411C81.6159 46.8411 81.6999 46.7613 81.6999 46.6604V44.056ZM84.2423 44.2367C84.3221 44.2367 84.3851 44.1694 84.3851 44.0854C84.3851 44.0056 84.3221 43.9384 84.2423 43.9384H82.1629C82.0789 43.9384 82.0159 44.0056 82.0159 44.0854C82.0159 44.1694 82.0789 44.2367 82.1629 44.2367H83.0325V46.6773C83.0325 46.7655 83.1081 46.8411 83.2005 46.8411C83.2929 46.8411 83.3685 46.7655 83.3685 46.6773V44.2367H84.2423Z" fill="#419A28"/>
</svg>
