<svg width="99" height="99" viewBox="0 0 99 99" fill="none" xmlns="http://www.w3.org/2000/svg">
<g clip-path="url(#clip0)">
<path d="M50.6064 52.1225C51.2884 52.1347 51.9705 52.1023 52.6483 52.0254C55.0352 51.7215 55.7306 49.7863 55.7595 49.7048L56.0418 48.8887L55.3677 49.4281C55.3529 49.4404 53.7998 50.6542 51.0261 50.38C48.538 50.133 47.6516 51.7281 47.524 52.6034L47.4187 53.352L47.9487 52.8134C48.6294 52.1225 49.4582 52.1225 50.6064 52.1225Z" fill="white"/>
<path d="M36.9068 50.38C34.1471 50.6526 32.58 49.4396 32.5652 49.4281L31.8911 48.8887L32.1734 49.7048C32.2014 49.7871 32.8977 51.7215 35.2854 52.0254C35.9629 52.1023 36.6447 52.1347 37.3265 52.1225C38.4747 52.1225 39.3018 52.1225 39.9841 52.8143L40.5142 53.3528L40.4088 52.6043C40.2854 51.7314 39.3948 50.1338 36.9068 50.38Z" fill="white"/>
<path d="M33.5693 2.52036C33.3771 2.26198 33.1346 2.04517 32.8565 1.88298C32.5757 1.7214 32.2653 1.6178 31.9437 1.57828C31.6011 1.53712 31.2538 1.56228 30.9207 1.6524L27.938 2.43142L29.8203 9.65096L31.0804 9.32156L30.4582 6.94332L32.1972 6.48958C32.5298 6.4061 32.8433 6.25962 33.1207 6.05807C33.3804 5.86938 33.5987 5.62949 33.7622 5.35318C33.9257 5.07687 34.0309 4.76998 34.0713 4.45144C34.1508 3.76736 33.9711 3.07832 33.5676 2.52036H33.5693ZM31.7034 2.79705C31.8642 2.82147 32.0186 2.87744 32.1577 2.96175C32.2988 3.04889 32.4217 3.1624 32.5199 3.29608C32.6239 3.43724 32.6996 3.59719 32.7429 3.76712C32.7884 3.93774 32.8016 4.1154 32.7816 4.29086C32.7621 4.45275 32.7115 4.60933 32.6326 4.75202C32.5537 4.89115 32.448 5.0132 32.3215 5.11106C32.1858 5.21469 32.0304 5.28951 31.8647 5.33093L30.1561 5.78055L29.4977 3.2722L31.1989 2.8267C31.3633 2.78234 31.535 2.77225 31.7034 2.79705Z" fill="white"/>
<path d="M41.3511 4.44897C41.5471 4.29131 41.7143 4.10071 41.8449 3.8857C41.9753 3.66856 42.0692 3.43156 42.1231 3.18409C42.1806 2.91717 42.1948 2.64273 42.1651 2.37131C42.1358 2.0339 42.0387 1.70589 41.8795 1.407C41.7298 1.12941 41.5227 0.886874 41.2721 0.695504C41.0183 0.503047 40.7287 0.363077 40.4203 0.283759C40.0892 0.1995 39.7458 0.175513 39.4063 0.21294L36.231 0.530806L36.9717 7.95292L38.2672 7.82364L38.0054 5.20576L39.6631 5.04106L41.4976 7.50083L43.0087 7.34931L40.984 4.69355C41.1137 4.6235 41.2365 4.54163 41.3511 4.44897ZM40.6104 3.40396C40.5085 3.52047 40.3846 3.61563 40.2458 3.68395C40.0911 3.7604 39.9237 3.80758 39.7519 3.82312L37.8877 4.01005L37.6466 1.60381L39.4935 1.41606C39.6662 1.3967 39.841 1.41011 40.0087 1.45559C40.1607 1.49608 40.3031 1.56633 40.4277 1.66228C40.5498 1.75791 40.6507 1.87794 40.724 2.01473C40.8039 2.16456 40.8529 2.32896 40.868 2.49813C40.8874 2.66811 40.8729 2.84026 40.8252 3.00457C40.7826 3.15138 40.7094 3.2875 40.6104 3.40396Z" fill="white"/>
<path d="M44.5447 -0.00154338L44.4172 7.45654L45.7191 7.47882L45.8466 0.0207383L44.5447 -0.00154338Z" fill="white"/>
<path d="M54.105 0.850367L51.0392 5.99389L49.4993 0.204751L48.1157 0.0112305L50.2351 7.84015L51.3058 7.99085L55.4943 1.04553L54.105 0.850367Z" fill="white"/>
<path d="M58.9931 2.03369L53.8582 8.30292L55.1981 8.6949L56.3182 7.32709L59.4573 8.2461L59.6631 10.0026L61.003 10.3946L60.0614 2.34662L58.9931 2.03369ZM59.3059 6.95157L57.1429 6.31831L58.9709 4.0883L59.3059 6.95157Z" fill="white"/>
<path d="M69.2161 5.97724L63.9404 3.60889L63.4474 4.70825L65.4861 5.62397L62.9272 11.3299L64.1198 11.8652L66.6787 6.15924L68.7231 7.07743L69.2161 5.97724Z" fill="white"/>
<path d="M73.0887 13.4214L73.7332 12.4028L70.9537 10.6438L71.9932 8.99847L75.1883 11.0193L75.8377 9.99242L71.543 7.2749L67.5579 13.5787L71.8912 16.3218L72.5381 15.2982L69.3044 13.2518L70.3093 11.6625L73.0887 13.4214Z" fill="white"/>
<path d="M83.4021 23.4598L81.9133 26.2128L82.5857 27.0593L90.4038 24.9117L89.5346 23.8172L83.8112 25.3934L86.6359 20.17L85.77 19.0805L84.2482 21.8919L81.6087 22.6207L84.4326 17.3981L83.5635 16.3037L79.71 23.4401L80.3832 24.2875L83.4021 23.4598Z" fill="white"/>
<path d="M89.0639 28.097C88.7183 28.1625 88.3834 28.2756 88.0688 28.433C87.7555 28.5876 87.4654 28.7855 87.2071 29.021C86.9579 29.2485 86.7389 29.507 86.5553 29.7901C86.3742 30.0719 86.2314 30.3766 86.1306 30.696C86.0302 31.0167 85.9697 31.3486 85.9503 31.6842C85.9316 32.0261 85.9568 32.369 86.0252 32.7045C86.1689 33.4034 86.4917 34.0529 86.9618 34.5895C87.1878 34.8466 87.4459 35.0735 87.7297 35.2647C88.0082 35.4511 88.3083 35.6026 88.6236 35.716C88.9393 35.827 89.2684 35.8957 89.6022 35.9202C89.7026 35.9284 89.8038 35.9326 89.9042 35.9326C90.1411 35.9322 90.3774 35.9104 90.6104 35.8675C90.9534 35.8047 91.2859 35.6938 91.598 35.5381C91.9132 35.3825 92.2052 35.1838 92.4655 34.9477C92.7164 34.7192 92.9361 34.4586 93.119 34.1728C93.2992 33.8907 93.4414 33.5861 93.5421 33.2669C93.7472 32.6184 93.7838 31.9283 93.6482 31.2617C93.5036 30.5631 93.181 29.9138 92.7116 29.3768C92.2623 28.8663 91.6904 28.4789 91.0499 28.251C90.7346 28.1377 90.4054 28.0676 90.0713 28.0427C89.7346 28.0175 89.396 28.0358 89.0639 28.097ZM90.696 29.45C91.0204 29.5609 91.3205 29.7331 91.5799 29.9573C91.9811 30.3031 92.2706 30.7603 92.4118 31.2709C92.5531 31.7815 92.5397 32.3226 92.3733 32.8255C92.263 33.1517 92.0914 33.4538 91.868 33.7157C91.6319 33.9878 91.3443 34.2104 91.0218 34.3708C90.6993 34.5313 90.3483 34.6263 89.989 34.6504C89.298 34.6933 88.618 34.4622 88.096 34.0072C87.5547 33.5346 87.2227 32.8665 87.1725 32.1494C87.1508 31.8073 87.1944 31.4641 87.3009 31.1382C87.4083 30.8128 87.5787 30.5118 87.8022 30.2521C88.1501 29.8457 88.6113 29.5523 89.1268 29.4094C89.6423 29.2665 90.1886 29.2807 90.696 29.45Z" fill="white"/>
<path d="M89.1973 40.1284L94.1496 38.7885L92.0023 41.5472L92.1298 42.0191L95.3801 43.3408L90.4278 44.6806L90.7661 45.9331L97.9628 43.9864L97.6829 42.9488L93.7183 41.3397L96.3323 37.9511L96.0549 36.9233L88.8574 38.8701L89.1973 40.1284Z" fill="white"/>
<path d="M91.5125 53.2075L92.7174 53.0964L92.3643 49.2844L94.2359 49.1107L94.5396 52.3873L95.7388 52.2762L95.4359 48.9995L97.3734 48.82L97.7224 52.5858L98.9322 52.4738L98.4631 47.4102L91.04 48.0986L91.5125 53.2075Z" fill="white"/>
<path d="M98.9998 55.4268L91.5636 54.8989L91.4714 56.1984L96.5299 56.5574L91.185 60.2351L91.1101 61.2826L98.5471 61.8105L98.6393 60.511L93.5652 60.1511L98.9266 56.4586L98.9998 55.4268Z" fill="white"/>
<path d="M94.7447 73.1311C94.6234 72.8188 94.4609 72.5241 94.2616 72.2549C94.0595 71.9836 93.8232 71.7395 93.5587 71.5286C93.283 71.3098 92.9783 71.1302 92.6533 70.995C92.3312 70.8599 91.9919 70.7704 91.6451 70.729C91.31 70.6893 90.9711 70.6929 90.6369 70.7397C90.3054 70.7866 89.9818 70.878 89.6747 71.0114C89.3675 71.1452 89.0778 71.3161 88.8122 71.5204C88.2585 71.9512 87.8265 72.5188 87.5587 73.1674C87.4488 73.4283 87.3679 73.7006 87.3175 73.9793C87.2699 74.2447 87.2498 74.5143 87.2574 74.7839C87.2652 75.0438 87.2975 75.3024 87.3537 75.5563C87.4088 75.8051 87.4876 76.0481 87.5891 76.2818L87.6846 76.5025L88.8278 76.0529L88.7126 75.8116C88.5525 75.4717 88.4659 75.1018 88.4587 74.7262C88.4515 74.3505 88.5237 73.9776 88.6706 73.6318C88.8056 73.3027 89.0058 73.0044 89.2591 72.7548C89.5031 72.5141 89.7908 72.3224 90.1068 72.1899C90.4234 72.0587 90.7625 71.9904 91.1052 71.9889C91.4644 71.9906 91.8198 72.0628 92.1513 72.2014C92.4778 72.3345 92.7745 72.5313 93.024 72.7805C93.2736 73.0296 93.471 73.326 93.6048 73.6524C93.733 73.9704 93.7995 74.31 93.8007 74.6529C93.7988 75.021 93.7224 75.3848 93.5761 75.7225C93.4299 76.0602 93.2168 76.3647 92.9496 76.6178C92.6796 76.8703 92.3593 77.0628 92.0097 77.1827L91.7529 77.2708L92.2517 78.4039L92.4739 78.3216C92.7143 78.2284 92.945 78.112 93.1628 77.9741C93.3828 77.8346 93.5889 77.6743 93.7784 77.4956C94.1775 77.12 94.4923 76.6639 94.7019 76.1574C95.1089 75.1955 95.1242 74.1125 94.7447 73.1393V73.1311Z" fill="white"/>
<path d="M82.9924 81.8395L84.0229 82.4745L85.8278 79.5412L91.1455 82.8178L91.8287 81.7086L85.4805 77.7979L82.9924 81.8395Z" fill="white"/>
<path d="M83.6639 83.802C83.2865 83.6823 82.8883 83.6424 82.4947 83.685C82.1011 83.7275 81.7206 83.8515 81.3774 84.0491C80.6479 84.4732 80.0947 85.1453 79.8186 85.9431C79.6905 86.3178 79.6418 86.715 79.6753 87.1095C79.7089 87.504 79.8241 87.8873 80.0137 88.2349C80.2174 88.6099 80.4925 88.9415 80.8235 89.2107L84.2976 92.0929L85.1322 91.0866L81.6515 88.1962C81.4572 88.0367 81.2923 87.8444 81.1643 87.628C81.0474 87.4292 80.971 87.2092 80.9396 86.9807C80.9113 86.7509 80.9303 86.5177 80.9956 86.2956C81.0718 86.0466 81.1987 85.8161 81.3684 85.6186C81.535 85.4096 81.7433 85.2374 81.9799 85.113C82.1858 85.0073 82.4121 84.9472 82.6433 84.9368C82.8748 84.9293 83.1055 84.9674 83.3223 85.0488C83.5574 85.1379 83.7758 85.2659 83.9684 85.4276L87.4383 88.3098L88.2672 87.3109L84.7923 84.4287C84.4618 84.1464 84.0781 83.9333 83.6639 83.802Z" fill="white"/>
<path d="M48.6378 63.8702L47.9522 63.9525C47.2294 63.9845 46.5186 63.7596 45.9456 63.3176C45.0254 62.6259 44.4937 62.9973 44.1423 63.2427C44.0648 63.3011 43.9821 63.3523 43.8954 63.3958C43.8086 63.3523 43.726 63.3011 43.6485 63.2427C43.297 62.9956 42.7653 62.6259 41.8452 63.3176C40.8526 64.0587 39.8485 63.9533 39.8386 63.9525L39.1604 63.8702L39.19 63.8965L40.3423 64.6212C40.4806 64.6846 40.6419 64.762 40.8279 64.8551C40.9258 64.9037 41.032 64.9588 41.1456 65.0198C41.6913 65.3039 42.3711 65.6571 43.0509 65.8095H43.069C43.6151 65.8849 44.169 65.8849 44.7151 65.8095H44.7332C45.4131 65.6571 46.0929 65.3039 46.6386 65.0198C46.7522 64.9605 46.8583 64.9053 46.9563 64.8551L47.0271 64.8196L48.5085 63.9764L48.6378 63.8702Z" fill="white"/>
<path d="M87.9314 45.9809V45.9693C87.8979 45.8372 87.8422 45.7116 87.7668 45.598C87.6632 45.4597 87.5187 45.3575 87.3538 45.306C87.1889 45.2545 87.012 45.2562 86.8481 45.3108C86.6842 45.3655 86.5417 45.4703 86.4407 45.6105C86.3397 45.7508 86.2854 45.9192 86.2854 46.092C86.2855 46.1736 86.2977 46.2546 86.3216 46.3325C86.87 49.0956 87.1457 51.906 87.1446 54.723C87.1446 66.1095 82.7125 76.8148 74.6656 84.8628C66.6187 92.9108 55.9216 97.3527 44.5405 97.3527C38.9188 97.3603 33.3516 96.251 28.1617 94.0893C22.9718 91.9277 18.2624 88.7565 14.3068 84.7599H14.3117L13.929 84.3761L13.4088 83.9421C13.2854 83.8879 13.1503 83.8655 13.016 83.8768C12.8817 83.888 12.7523 83.9327 12.6396 84.0068C12.5269 84.0808 12.4345 84.1819 12.3708 84.3007C12.307 84.4196 12.274 84.5525 12.2747 84.6874C12.2756 84.7608 12.2867 84.8336 12.3076 84.904L12.7948 85.5677L12.8664 85.6451C16.9844 89.8782 21.9096 93.2413 27.3503 95.5352C32.791 97.8292 38.6365 99.0072 44.5405 98.9997C56.3611 98.9997 67.4738 94.3939 75.8327 86.0313C84.1915 77.6688 88.794 66.5492 88.794 54.7222C88.7944 51.7872 88.5055 48.8592 87.9314 45.9809Z" fill="white"/>
<path d="M81.1214 29.9088L80.5609 28.9948C76.4616 23.262 71.0559 18.589 64.7918 15.3631C58.5277 12.1372 51.5855 10.4512 44.5404 10.4448C32.7198 10.4448 21.607 15.0506 13.249 23.4131C4.89098 31.7757 0.286865 42.8953 0.286865 54.7222C0.286739 57.4508 0.536616 60.1737 1.03337 62.8567L1.12555 63.1482L1.13296 63.1688C1.20091 63.3282 1.31801 63.4617 1.46717 63.5498C1.61634 63.638 1.78975 63.6761 1.96209 63.6586C2.13443 63.6411 2.29668 63.569 2.42514 63.4527C2.55361 63.3364 2.64156 63.1821 2.67617 63.0123L2.62349 62.3972C2.16361 59.8639 1.93196 57.2945 1.93131 54.7198C1.93131 43.3334 6.36259 32.628 14.4103 24.58C22.4581 16.5321 33.1568 12.0943 44.5338 12.0943C51.3593 12.1003 58.0838 13.7435 64.1437 16.8862C70.2035 20.0288 75.4221 24.5792 79.3618 30.1559L79.6539 30.5512C79.6655 30.5684 79.6778 30.5841 79.6877 30.5973L79.7 30.6137C79.8156 30.7577 79.9768 30.858 80.157 30.8981C80.3371 30.9381 80.5256 30.9155 80.6912 30.8339C80.8568 30.7524 80.9897 30.6167 81.0679 30.4495C81.1461 30.2822 81.165 30.0932 81.1214 29.9138V29.9088Z" fill="white"/>
<path d="M86.6409 40.2845C86.6409 35.6318 82.729 31.8471 77.9208 31.8471C77.6919 31.8471 77.4475 31.8586 77.18 31.8817C74.0045 27.2834 69.8942 23.4079 65.1183 20.5087C60.3425 17.6095 55.0085 15.752 49.4656 15.0577C49.2738 15.0195 49.0792 14.9967 48.8837 14.9894C47.4412 14.8333 45.9914 14.7556 44.5405 14.7564C33.9471 14.7564 23.9882 18.8837 16.4977 26.3791C9.00716 33.8745 4.88124 43.8371 4.88124 54.437C4.88001 57.6796 5.27442 60.9102 6.05572 64.0571C2.3693 65.5352 -0.000244141 68.8967 -0.000244141 72.6807C-0.000244141 77.8481 4.45902 82.0511 9.9405 82.0511C11.6729 82.0542 13.3785 81.6243 14.9026 80.8003C18.6243 84.9861 23.1892 88.3366 28.2973 90.6314C33.4054 92.9263 38.9411 94.1136 44.5405 94.1153C55.1339 94.1153 65.0936 89.988 72.5841 82.4934C80.0747 74.9988 84.1998 65.0354 84.1998 54.4346C84.1985 51.8696 83.9505 49.3108 83.459 46.7934C85.4837 45.1794 86.6409 42.8168 86.6409 40.2845ZM64.5668 22.1019C68.7532 24.6942 72.3938 28.0788 75.2845 32.0661C73.7314 32.3365 72.2593 32.9538 70.9775 33.872C70.7043 34.0697 70.4187 34.3035 70.0854 34.5761C67.566 36.6348 62.3907 40.8643 49.7282 36.9198C53.6854 36.205 56.9232 34.8685 59.3693 32.9365L59.5891 32.762C59.6417 32.7191 59.6936 32.6796 59.7446 32.6327C59.9356 32.468 60.1216 32.3033 60.3076 32.1295C60.8298 31.6684 61.2991 31.1506 61.7068 30.5855C62.5701 29.4515 62.9232 28.5498 63.0154 28.2797C63.7833 26.5463 64.3051 24.4686 64.5668 22.1019ZM63.0031 21.1821C62.715 24.5658 61.8747 27.3846 60.5677 29.3412L60.5216 29.4071L60.4919 29.4499C60.0477 30.0456 59.5453 30.5956 58.9923 31.0919C58.194 31.7277 57.3463 32.0859 56.4796 32.1567C56.2136 32.1782 55.9462 32.173 55.6812 32.1411C55.3936 32.0321 55.1246 31.8794 54.8837 31.6881L54.8014 31.6148L54.7068 31.5663C54.6854 31.5547 52.5784 30.3689 53.324 25.7656C53.8697 22.4016 53.4557 19.1925 52.2475 17.1873C56.0138 17.9634 59.6399 19.3096 63.0006 21.1796L63.0031 21.1821ZM44.5405 16.4033C46.0869 16.404 47.6318 16.498 49.1668 16.685C49.6607 16.7912 50.1059 17.0844 50.4961 17.557C51.7784 19.1134 52.2376 22.1579 51.6961 25.5021C51.531 26.4608 51.4802 27.4358 51.5446 28.4065C51.3227 27.866 51.1452 27.3083 51.0138 26.739C50.0738 22.7286 47.431 19.5804 43.371 17.6369C42.5068 17.2243 41.6133 16.8764 40.6977 16.596C41.9808 16.4676 43.2664 16.4033 44.5405 16.4033ZM36.1603 17.3256L37.2812 17.5381L37.357 17.5488C37.4565 17.5587 47.417 18.6103 49.4096 27.1153C50.2244 30.5929 52.3158 33.07 54.915 33.6752C52.259 34.8561 49.0195 35.5651 45.2714 35.7858C37.0796 29.2094 33.4327 22.8422 31.8129 18.5749C33.2357 18.0715 34.6874 17.654 36.1603 17.3248V17.3256ZM47.0936 45.5088C44.9849 48.0155 44.2203 51.3951 43.9504 53.7898C43.7747 55.311 43.7452 56.8456 43.8623 58.3725L43.8919 58.9975H41.0755L44.7923 60.4082C44.7923 60.3176 44.7866 60.2311 44.7825 60.1422C44.5841 58.8781 43.6302 51.4527 47.6673 47.066C48.0788 46.6271 50.4903 44.2027 54.3043 43.7399C55.7035 44.4909 57.0458 45.1464 58.3084 45.6891C57.9627 47.6144 56.8113 53.392 54.58 59C51.617 66.4435 48.0426 70.4786 43.9668 70.9908C35.4516 69.9006 31.2096 53.257 30.0656 47.9249C31.1898 46.9334 32.2391 45.86 33.2047 44.7133C33.4747 44.3921 33.7463 44.0545 34.0129 43.7144C36.3068 44.0001 38.1594 44.9801 39.5216 46.6287L39.929 47.1228L39.9627 46.4838C40.0286 45.2485 39.2886 44.1377 37.8228 43.2722C37.1624 42.8882 36.4583 42.585 35.7257 42.3688C35.5243 42.3139 35.318 42.2661 35.1068 42.2255C37.0659 39.406 38.6282 36.3303 39.7496 33.0848C41.8354 35.1354 44.0676 37.0315 46.4286 38.7578C48.2039 40.0622 50.0574 41.29 51.943 42.4116C50.0467 42.9206 48.3533 44.0021 47.0936 45.5088ZM60.1331 70.2456L59.6705 70.7932C59.6705 70.7932 57.9133 73.0809 56.4862 74.7913L56.3874 74.9271L56.3775 74.9214C56.1644 75.175 55.9611 75.4155 55.7726 75.6279C55.6376 75.7926 55.4631 75.9878 55.2475 76.2044C55.1326 76.3271 55.01 76.4423 54.8804 76.5494L54.8722 76.5552C54.3057 77.0562 53.6893 77.4977 53.0327 77.8728C52.3149 78.2803 51.5637 78.626 50.7874 78.9062C49.2376 76.6087 48.9117 72.1479 48.845 70.612C49.8755 69.8231 50.8697 68.8078 51.7998 67.5915C53.3998 65.5006 54.8755 62.7559 56.1891 59.4299C59.8524 62.4142 61.3002 65.9099 60.4903 69.8231L60.1364 70.2423L60.1331 70.2456ZM40.4244 75.4855C40.6668 74.2552 40.8317 73.0109 40.9183 71.76C41.8321 72.2137 42.8161 72.5094 43.8286 72.6345L44.059 72.6403L44.1109 72.6345C45.2085 72.4965 46.2718 72.1591 47.2483 71.6389C47.3998 73.7339 47.8467 77.1357 49.1619 79.4168C45.952 80.26 42.5397 80.2658 40.2138 80.1151C39.7948 80.088 39.3701 80.0748 38.9454 80.0748H38.7183C39.4565 78.9886 40.0294 77.4478 40.4244 75.4855ZM35.9726 80.3062C33.9006 80.6445 31.9117 81.3736 30.1117 82.4547C30.4228 79.9216 31.3866 77.8736 32.9792 76.3608C36.1956 73.3081 37.4837 71.0839 37.9825 69.6659C38.405 70.0697 38.8534 70.4454 39.3249 70.7907C39.2179 73.8368 38.3973 79.5551 35.9726 80.3062ZM56.7956 57.8101C58.4467 53.2142 59.4113 48.7014 59.7924 46.7152C61.3561 47.164 65.4195 48.6092 67.1858 51.8645C68.3759 54.0607 68.3496 56.7445 67.1035 59.8416C65.8821 62.8828 64.0582 65.4413 62.3479 67.5692C62.3239 65.9359 61.9252 64.33 61.1825 62.8754C60.2631 61.0538 58.7866 59.3508 56.7956 57.8125V57.8101ZM30.273 19.1637C31.9191 23.5043 34.6697 27.7362 38.4491 31.7466C37.9463 33.3878 36.2269 38.2958 32.4829 42.9938C32.8195 42.2082 33.1142 41.4292 33.3652 40.6592C35.171 35.1336 34.5512 30.5369 31.5734 27.3673C28.8574 24.4793 26.0763 23.6402 23.7545 23.6402C23.1677 23.6408 22.5822 23.6935 22.0047 23.7975C24.5548 21.9107 27.3329 20.3538 30.273 19.1637ZM14.2351 31.4732C14.2203 31.6708 14.2137 31.8677 14.2137 32.0645C14.2137 36.5385 17.8195 40.1783 22.2516 40.1783C23.5185 40.173 24.7663 39.8687 25.8936 39.29C27.0208 38.7114 27.9956 37.8747 28.7389 36.8481L28.7603 36.8127C29.9512 34.4246 29.3364 32.6302 29.115 32.1378L28.6664 31.1224L28.6376 32.2325C28.5496 35.7051 25.6845 38.5297 22.2516 38.5297C18.7273 38.5297 15.8607 35.6294 15.8607 32.0645C15.8552 30.3809 16.5063 28.7616 17.6755 27.5509C18.8773 26.6008 20.2658 25.9148 21.7504 25.5375C24.9035 24.7683 27.8047 25.7648 30.3734 28.5021C32.2508 30.5007 33.0187 33.1449 32.6566 36.3614C32.0664 38.6096 30.743 40.3068 28.7224 41.4045C22.6055 44.7297 11.6714 41.8928 8.92568 41.0965C10.2156 37.6462 12.0045 34.4039 14.2351 31.4732ZM8.38 42.6513C10.7343 43.3385 13.1335 43.8614 15.5603 44.2159C17.3648 44.4872 19.1865 44.6292 21.0113 44.6408C24.4557 44.6408 27.3142 44.0364 29.5076 42.8448C30.1293 42.5085 30.7141 42.108 31.2524 41.6499C30.5066 43.517 29.5757 45.3046 28.4738 46.9861L28.1265 47.3979C26.2598 48.9137 24.1798 50.1457 21.9537 51.0542C17.422 52.8889 12.2524 53.3328 6.58412 52.3717C6.75744 49.0672 7.36117 45.7994 8.38 42.6513ZM26.0961 63.4345C26.4886 66.1034 26.8952 68.8638 26.8467 71.8745C26.8137 73.9389 26.1619 75.4838 24.9109 76.4638C23.0598 77.9139 20.2796 77.9263 18.538 77.7517C19.8549 75.9845 21.3775 72.9129 21.7479 67.9258C21.9199 65.5888 21.9207 63.7746 21.9216 62.1729C21.9216 57.5811 21.9216 55.706 26.2014 51.204C24.9043 55.3421 25.4854 59.2825 26.0961 63.4345ZM14.7232 79.0034L14.6771 79.0224L14.5948 79.0685C13.2003 79.9457 11.5852 80.4078 9.93803 80.4009C5.36519 80.4009 1.64503 76.9364 1.64503 72.6782C1.64503 68.4199 5.36519 64.9547 9.93803 64.9547C12.5199 64.9547 14.9923 66.101 16.552 68.0213L17.6039 69.315L16.9767 67.7702C16.6475 66.9656 15.6524 64.9785 13.4376 63.9105L13.4121 63.8998C11.5537 63.247 9.54918 63.1306 7.62774 63.5638C6.89426 60.5762 6.52395 57.511 6.52486 54.4346C6.52486 54.3053 6.52486 54.1752 6.52486 54.0459C8.40193 54.358 10.3011 54.5183 12.2039 54.5252C15.9026 54.5252 19.3874 53.873 22.5611 52.5883C22.6971 52.5334 22.8343 52.4763 22.9726 52.417C20.264 55.9531 20.2631 58.2416 20.2607 62.1729C20.2607 63.7458 20.2607 65.5295 20.0919 67.8056C19.7059 73.0578 17.9965 75.9581 16.6351 77.4709C15.6129 78.6073 14.729 79.0009 14.7232 79.0034ZM16.3479 79.9397C16.6487 79.7232 16.9357 79.488 17.2072 79.2356C18.1311 79.3981 19.0674 79.4807 20.0055 79.4827C21.7051 79.4827 24.1117 79.1854 25.9249 77.7665C27.5899 76.4638 28.4549 74.4915 28.4969 71.9025C28.5471 68.7584 28.1306 65.9305 27.7282 63.1957C27.0031 58.2753 26.3751 54.0113 28.7043 49.3965C29.4854 52.8131 30.8022 57.5778 32.8055 61.9135C33.9775 64.4507 35.264 66.5712 36.631 68.2198C36.5841 68.8226 36.1068 71.1251 31.8442 75.1717C29.6952 77.2107 28.4919 80.1448 28.3586 83.6627C27.1003 84.6506 25.9654 85.7864 24.9784 87.0456C21.7671 85.1157 18.8588 82.7212 16.3479 79.9397ZM26.4253 87.8691C27.0289 87.1226 27.6893 86.4238 28.4006 85.7791C28.4862 86.8961 28.6554 88.0052 28.9068 89.0969C28.059 88.7157 27.2277 88.3039 26.4253 87.8691ZM46.715 92.4057C47.25 90.5471 47.3183 88.7609 46.9166 87.0851C46.7483 86.4551 46.4184 85.88 45.9597 85.4168C45.5009 84.9536 44.9291 84.6183 44.301 84.4442L43.5298 84.2457L44.05 84.8494C44.1759 84.9951 44.8228 85.7914 45.2113 87.128C45.6895 88.7749 45.6088 90.5685 44.9718 92.4625C44.8277 92.4625 44.6837 92.4667 44.5397 92.4667C39.8476 92.4703 35.1957 91.601 30.8212 89.9031C30.3091 88.1462 30.0323 86.3291 29.9981 84.4994C32.9323 82.4407 36.3356 81.5167 40.1084 81.7596C46.9677 82.2027 51.2722 80.7813 53.8096 79.3369C53.7981 79.3633 53.7874 79.3888 53.7759 79.4135C52.1347 83.1102 51.701 87.114 52.4508 91.6456C50.5609 92.0427 48.6438 92.2968 46.7158 92.4057H46.715ZM54.0582 91.2718C52.7216 83.008 55.7767 78.119 59.7742 73.2373C59.0985 77.5376 59.4615 81.2614 60.8541 84.3182C61.5742 85.8977 62.4261 86.9748 63.0829 87.6484C60.2446 89.2424 57.2112 90.4604 54.059 91.2718H54.0582ZM71.4187 81.3273C69.3462 83.4021 67.0428 85.2323 64.5537 86.7821C64.0598 86.3284 63.0928 85.2908 62.3199 83.5639C60.4203 79.3196 61.0804 74.2428 61.9693 70.7306C61.98 70.6878 61.9899 70.6483 61.9998 70.6005V70.5832C64.5882 67.5083 67.0409 64.4169 68.6302 60.4543C70.0656 56.8779 70.0648 53.7206 68.6302 51.0714C68.1946 50.2776 67.6505 49.5484 67.0138 48.9048C67.6962 49.3609 68.3223 49.8964 68.8788 50.4999C71.1125 52.9268 72.0886 56.3813 71.7858 60.7656C71.5166 64.6459 72.0952 68.0321 73.5068 70.8286C74.571 72.9384 75.8623 74.2049 76.6343 74.8267C75.1366 77.1762 73.3881 79.3559 71.4195 81.3273H71.4187ZM71.1874 45.6372L71.208 45.6652C72.04 46.6295 73.0708 47.4021 74.2295 47.9299C75.3883 48.4577 76.6476 48.7282 77.9208 48.7229C79.327 48.7231 80.7135 48.3916 81.9677 47.7552C82.3565 49.9604 82.5523 52.1953 82.5528 54.4346C82.561 61.0896 80.8206 67.6298 77.5059 73.3996C76.7476 72.7311 76.0922 71.9541 75.5611 71.0938C74.3948 69.2401 73.0779 65.9634 73.4302 60.8825C74.2664 48.8348 66.008 46.0152 62.4187 45.3622C60.3059 44.9784 54.6137 42.4899 48.6195 38.2934C52.5249 39.5665 56.0878 40.2104 59.2286 40.2104C65.7932 40.2104 69.1323 37.4806 71.1273 35.8459C71.4393 35.5915 71.7035 35.3708 71.9421 35.202C73.365 34.1908 75.0538 33.6209 76.7981 33.5632H76.864L76.929 33.5542C77.2564 33.511 77.5863 33.4893 77.9166 33.4891C81.8162 33.4891 84.9891 36.536 84.9891 40.278C84.9891 44.0199 81.8162 47.0668 77.9166 47.0668C74.1693 47.0668 71.0681 44.2554 70.8565 40.6666L70.7389 38.6787L70.3627 40.6337C70.1611 41.7092 69.994 43.777 71.1874 45.6372Z" fill="white"/>
</g>
<defs>
<clipPath id="clip0">
<rect width="99" height="99" fill="white" transform="translate(-0.000244141 -0.000488281)"/>
</clipPath>
</defs>
</svg>
