<svg width="587" height="586" viewBox="0 0 587 586" fill="none" xmlns="http://www.w3.org/2000/svg">
<path d="M299.765 308.911C303.27 308.911 307.311 308.911 311.838 308.327C325.955 306.526 330.093 295.086 330.239 294.599L331.894 289.78L327.902 292.944C327.805 292.992 318.653 300.197 302.199 298.591C287.498 297.13 282.192 306.574 281.51 311.734L280.877 316.164L283.993 313C288.082 308.911 292.999 308.911 299.765 308.911Z" fill="white"/>
<path d="M218.761 298.591C202.453 300.197 193.155 293.041 193.057 292.944L189.065 289.78L190.721 294.599C190.867 295.086 195.004 306.526 209.122 308.327C213.649 308.911 217.69 308.911 221.195 308.911C227.961 308.911 232.878 308.911 236.918 313L240.034 316.164L239.401 311.734C238.719 306.574 233.462 297.13 218.761 298.591Z" fill="white"/>
<path d="M198.994 15.6604C197.825 14.1026 196.414 12.8369 194.759 11.912C193.152 10.9871 191.302 10.3542 189.355 10.1108C187.408 9.86743 185.363 10.0135 183.319 10.549L165.696 15.1736L176.844 57.8177L184.292 55.8705L180.641 41.8019L190.913 39.1244C193.006 38.5889 194.807 37.7127 196.365 36.593C197.923 35.4247 199.188 34.013 200.162 32.4065C201.136 30.8 201.72 28.9989 201.963 27.1003C202.207 25.2018 202.061 23.1572 201.525 21.1126C201.038 19.0681 200.162 17.2182 198.994 15.6604ZM187.943 17.3155C188.917 17.4616 189.842 17.8023 190.621 18.2892C191.448 18.776 192.179 19.4575 192.763 20.2851C193.347 21.1126 193.834 22.0376 194.077 23.0599C194.369 24.1308 194.418 25.1531 194.32 26.1754C194.174 27.149 193.882 28.0739 193.444 28.9015C193.006 29.7291 192.373 30.4106 191.594 31.0435C190.815 31.6276 189.939 32.0658 188.917 32.3578L178.791 34.9866L174.897 20.139L184.925 17.5103C185.996 17.2182 186.97 17.1695 187.943 17.3155Z" fill="white"/>
<path d="M245.048 27.0514C246.217 26.1265 247.19 25.0068 247.969 23.7411C248.748 22.4755 249.284 21.1124 249.624 19.6033C249.965 18.0942 250.063 16.4878 249.868 14.784C249.673 12.6907 249.089 10.7435 248.164 9.08836C247.239 7.43323 246.022 6.0215 244.562 4.90185C243.101 3.7822 241.397 3.00331 239.499 2.46783C237.649 1.98103 235.604 1.83499 233.511 2.02971L214.721 3.92824L219.102 47.7892L226.745 47.0103L225.187 31.53L234.972 30.5564L245.827 45.1118L254.785 44.2356L242.809 28.5118C243.637 28.0737 244.367 27.6356 245.048 27.0514ZM240.619 20.869C240.034 21.5505 239.304 22.086 238.477 22.5241C237.6 22.9623 236.627 23.2543 235.556 23.3517L224.554 24.4713L223.142 10.2567L234.095 9.13704C235.166 9.03968 236.189 9.08836 237.162 9.38044C238.087 9.62385 238.915 10.062 239.645 10.5975C240.326 11.1329 240.959 11.8631 241.397 12.6907C241.836 13.5183 242.128 14.4919 242.274 15.5629C242.371 16.6338 242.274 17.6561 242.03 18.581C241.641 19.4573 241.203 20.2362 240.619 20.869Z" fill="white"/>
<path d="M263.937 0.7544L263.18 44.8543L270.871 44.9862L271.628 0.886306L263.937 0.7544Z" fill="white"/>
<path d="M320.451 5.78004L302.342 36.2053L293.239 1.98296L285.012 0.814636L297.571 47.1097L303.9 47.986L328.678 6.94837L320.451 5.78004Z" fill="white"/>
<path d="M349.365 12.7868L318.988 49.8326L326.923 52.1692L333.544 44.0883L352.091 49.5405L353.308 59.9094L361.243 62.2461L355.693 14.6853L349.365 12.7868ZM351.215 41.849L338.412 38.1006L349.219 24.9082L351.215 41.849Z" fill="white"/>
<path d="M409.829 36.1074L378.625 22.0874L375.704 28.6106L387.776 34.0141L372.637 67.7497L379.696 70.914L394.835 37.1784L406.908 42.5819L409.829 36.1074Z" fill="white"/>
<path d="M432.756 80.113L436.553 74.0767L420.099 63.7077L426.281 53.9716L445.169 65.8983L449.015 59.8619L423.604 43.7487L400.043 81.038L425.648 97.2486L429.494 91.2122L410.363 79.0907L416.302 69.6954L432.756 80.113Z" fill="white"/>
<path d="M493.752 139.456L484.941 155.715L488.933 160.729L535.13 148.024L530.019 141.549L496.137 150.896L512.883 119.984L507.723 113.558L498.766 130.158L483.14 134.49L499.837 103.627L494.677 97.1525L471.894 139.358L475.886 144.324L493.752 139.456Z" fill="white"/>
<path d="M527.247 166.864C525.251 167.253 523.255 167.886 521.356 168.86C519.458 169.785 517.754 170.953 516.245 172.316C514.736 173.679 513.47 175.188 512.399 176.843C511.328 178.499 510.501 180.3 509.868 182.198C509.284 184.097 508.894 186.044 508.797 188.04C508.699 190.036 508.846 192.032 509.235 194.076C509.624 196.121 510.355 198.117 511.28 200.015C512.204 201.914 513.421 203.666 514.785 205.224C516.148 206.782 517.657 208.096 519.312 209.216C520.967 210.336 522.719 211.212 524.618 211.893C526.468 212.575 528.415 212.964 530.411 213.159C530.995 213.208 531.579 213.208 532.212 213.208C533.624 213.208 534.987 213.062 536.399 212.818C538.395 212.429 540.342 211.796 542.24 210.871C544.139 209.946 545.891 208.729 547.352 207.366C548.861 206.003 550.127 204.445 551.197 202.79C552.268 201.135 553.096 199.334 553.68 197.435C554.264 195.537 554.654 193.59 554.751 191.594C554.848 189.598 554.702 187.602 554.313 185.557C553.924 183.513 553.193 181.517 552.268 179.618C551.295 177.72 550.127 175.967 548.763 174.409C547.4 172.852 545.891 171.537 544.236 170.418C542.581 169.298 540.829 168.422 538.93 167.74C537.08 167.059 535.133 166.669 533.137 166.523C531.238 166.377 529.243 166.475 527.247 166.864ZM536.885 174.848C538.784 175.48 540.536 176.503 542.094 177.866C543.652 179.229 544.966 180.884 545.891 182.831C546.865 184.778 547.4 186.823 547.546 188.868C547.692 190.961 547.4 192.957 546.768 194.855C546.135 196.754 545.112 198.506 543.798 200.113C542.484 201.719 540.78 202.985 538.784 204.007C536.788 204.981 534.744 205.565 532.699 205.662C530.606 205.76 528.61 205.516 526.711 204.883C524.813 204.251 523.06 203.228 521.502 201.865C519.945 200.502 518.63 198.847 517.657 196.9C516.683 194.953 516.148 192.908 516.002 190.863C515.855 188.77 516.148 186.774 516.78 184.876C517.413 182.977 518.387 181.225 519.75 179.618C521.113 178.061 522.768 176.746 524.764 175.773C526.76 174.799 528.804 174.215 530.898 174.117C532.991 173.971 534.987 174.215 536.885 174.848Z" fill="white"/>
<path d="M528.028 237.984L557.334 230.049L544.628 246.357L545.358 249.181L564.587 256.97L535.282 264.905L537.277 272.304L579.873 260.767L578.218 254.633L554.754 245.14L570.234 225.133L568.579 219.048L526.032 230.536L528.028 237.984Z" fill="white"/>
<path d="M541.707 315.289L548.863 314.656L546.769 292.117L557.82 291.094L559.621 310.469L566.728 309.788L564.927 290.413L576.367 289.342L578.46 311.638L585.616 310.956L582.842 281.018L538.932 285.107L541.707 315.289Z" fill="white"/>
<path d="M586.002 328.432L541.995 325.316L541.46 332.959L571.398 335.101L539.756 356.861L539.318 363.044L583.325 366.159L583.86 358.468L553.873 356.326L585.564 334.517L586.002 328.432Z" fill="white"/>
<path d="M560.834 433.095C560.103 431.246 559.178 429.493 557.961 427.935C556.793 426.378 555.381 424.917 553.823 423.651C552.217 422.386 550.416 421.315 548.469 420.487C546.521 419.66 544.525 419.124 542.53 418.929C540.534 418.686 538.538 418.735 536.59 418.978C534.643 419.27 532.696 419.806 530.895 420.585C529.094 421.363 527.341 422.386 525.783 423.603C524.226 424.82 522.765 426.28 521.499 427.887C520.234 429.542 519.163 431.343 518.335 433.339C517.654 434.897 517.215 436.552 516.923 438.158C516.631 439.765 516.534 441.371 516.583 442.929C516.631 444.487 516.826 445.996 517.167 447.505C517.508 449.014 517.946 450.426 518.579 451.789L519.163 453.103L525.929 450.426L525.248 449.014C524.323 447.067 523.836 444.925 523.739 442.685C523.69 440.446 524.079 438.256 525.004 436.114C525.832 434.118 527 432.365 528.461 430.953C529.921 429.493 531.625 428.373 533.475 427.595C535.325 426.816 537.321 426.426 539.365 426.426C541.459 426.426 543.503 426.816 545.548 427.692C547.592 428.568 549.394 429.736 550.805 431.246C552.266 432.755 553.385 434.458 554.116 436.308C554.895 438.158 555.284 440.154 555.284 442.247C555.284 444.292 554.894 446.385 554.018 448.381C553.142 450.523 551.828 452.373 550.221 453.882C548.615 455.391 546.716 456.511 544.672 457.241L543.162 457.776L546.132 464.494L547.446 464.008C548.858 463.472 550.221 462.791 551.536 461.963C552.801 461.135 554.067 460.21 555.187 459.14C556.306 458.069 557.377 456.851 558.253 455.586C559.178 454.271 559.957 452.811 560.639 451.253C561.466 449.257 562.002 447.261 562.294 445.217C562.586 443.172 562.586 441.128 562.343 439.181C562.002 436.844 561.564 434.945 560.834 433.095Z" fill="white"/>
<path d="M491.319 484.552L497.404 488.3L508.065 470.97L539.561 490.345L543.601 483.773L506.02 460.65L491.319 484.552Z" fill="white"/>
<path d="M495.312 496.136C492.976 495.406 490.639 495.211 488.351 495.454C486.063 495.698 483.872 496.428 481.779 497.596C479.735 498.765 477.836 500.322 476.23 502.318C474.574 504.314 473.357 506.505 472.579 508.793C471.8 511.081 471.556 513.417 471.751 515.705C471.946 517.993 472.627 520.233 473.747 522.375C474.867 524.517 476.473 526.464 478.518 528.168L499.061 545.206L503.978 539.267L483.386 522.18C482.169 521.206 481.244 520.038 480.514 518.821C479.783 517.604 479.345 516.338 479.199 514.975C479.004 513.661 479.15 512.298 479.54 510.935C479.929 509.572 480.66 508.209 481.731 506.943C482.85 505.58 484.067 504.606 485.333 503.973C486.599 503.341 487.913 503 489.276 502.951C490.639 502.903 491.954 503.146 493.268 503.633C494.631 504.12 495.897 504.898 497.065 505.872L517.608 522.91L522.525 517.02L501.982 499.982C499.84 498.083 497.6 496.866 495.312 496.136Z" fill="white"/>
<path d="M440.886 538.925C439.572 540.045 438.453 541.408 437.576 542.917C436.7 544.426 436.165 546.032 435.921 547.688C435.678 549.343 435.775 551.095 436.262 552.799C436.749 554.551 437.674 556.207 438.988 557.716C439.913 558.738 440.935 559.614 442.152 560.247C443.321 560.88 444.538 561.318 445.803 561.561C447.069 561.805 448.383 561.854 449.698 561.659C449.99 561.61 450.33 561.561 450.622 561.513C450.476 562.535 450.476 563.557 450.622 564.58C450.769 565.602 451.061 566.624 451.45 567.598C451.888 568.571 452.472 569.496 453.154 570.324C454.322 571.687 455.685 572.709 457.146 573.439C458.606 574.17 460.164 574.559 461.77 574.608C461.916 574.608 462.062 574.608 462.208 574.608C463.669 574.608 465.129 574.316 466.541 573.78C468.099 573.196 469.608 572.271 471.019 571.103L485.38 558.738L456.61 525.343L440.886 538.925ZM455.296 535.81L463.328 545.107L453.787 553.334C453.154 553.919 452.424 554.308 451.645 554.551C450.866 554.795 450.087 554.892 449.308 554.844C448.529 554.795 447.799 554.6 447.069 554.211C446.339 553.87 445.706 553.334 445.122 552.702C444.538 552.02 444.099 551.29 443.905 550.511C443.661 549.732 443.613 548.905 443.661 548.126C443.759 547.347 443.953 546.568 444.343 545.886C444.732 545.156 445.219 544.572 445.803 544.037L455.296 535.81ZM474.914 558.592L466.59 565.748C466.054 566.235 465.421 566.576 464.74 566.77C464.058 566.965 463.377 567.062 462.647 567.014C461.965 566.965 461.235 566.77 460.553 566.43C459.872 566.089 459.336 565.651 458.801 565.066C458.265 564.482 457.925 563.849 457.73 563.168C457.535 562.486 457.438 561.756 457.486 561.075C457.535 560.393 457.73 559.712 458.022 559.079C458.314 558.446 458.752 557.91 459.288 557.424L467.612 550.268L474.914 558.592Z" fill="white"/>
<path d="M288.126 378.331L284.085 378.817C284.037 378.817 278.098 379.45 272.207 375.069C266.755 370.98 263.64 373.171 261.546 374.631C261.011 374.972 260.524 375.312 260.086 375.556C259.648 375.361 259.161 375.02 258.625 374.631C256.532 373.171 253.417 370.98 247.965 375.069C242.074 379.499 236.135 378.817 236.086 378.817L232.095 378.331L232.289 378.477L239.105 382.761C239.932 383.15 240.857 383.588 241.977 384.124C242.561 384.416 243.194 384.757 243.875 385.097C247.088 386.752 251.129 388.846 255.121 389.771H255.218C256.873 390.014 258.528 390.111 260.086 390.111C261.692 390.111 263.299 390.014 264.954 389.771H265.051C269.092 388.894 273.084 386.801 276.296 385.097C276.978 384.757 277.611 384.416 278.195 384.124C278.341 384.075 278.487 383.978 278.633 383.929L287.396 378.963L288.126 378.331Z" fill="white"/>
<path d="M520.526 272.596V272.547C520.38 272.011 520.136 271.184 519.552 270.356C518.627 269.091 517.216 268.409 515.658 268.409C512.98 268.409 510.79 270.6 510.79 273.277C510.79 273.764 510.838 274.251 510.984 274.689C514.246 290.899 515.853 307.597 515.853 324.294C515.853 391.619 489.663 454.904 442.053 502.464C394.444 550.074 331.159 576.264 263.883 576.264C228.687 576.264 194.659 569.157 162.676 555.137C133.565 542.382 107.473 524.419 85.031 501.832H85.0797L82.8404 499.544L79.7736 496.964C79.1894 496.72 78.5565 496.574 77.875 496.574C75.2463 496.574 73.0556 498.716 73.0556 501.393C73.0556 501.832 73.153 502.27 73.2504 502.659L76.1225 506.602L76.5606 507.04C100.219 531.283 127.87 550.463 158.782 564.045C191.982 578.601 227.372 586 263.883 586C333.788 586 399.506 558.788 448.966 509.328C498.425 459.869 525.637 394.151 525.637 324.245C525.637 306.867 523.934 289.488 520.526 272.596Z" fill="white"/>
<path d="M480.267 177.571L476.957 172.168C427.839 103.48 348.344 62.4908 263.932 62.4908C194.027 62.4908 128.308 89.7032 78.8489 139.162C29.3896 188.622 2.17725 254.34 2.17725 324.245C2.17725 340.358 3.68634 356.569 6.60717 372.341L7.14265 374.045L7.19132 374.191C7.97021 375.992 9.67403 377.112 11.6212 377.112C13.9579 377.112 15.9051 375.457 16.3432 373.266L16.0512 369.615C13.3251 354.719 11.962 339.482 11.962 324.245C11.962 256.92 38.1521 193.636 85.7615 146.075C133.371 98.4656 196.655 72.2756 263.932 72.2756C345.666 72.2756 422.63 112.194 469.899 179.032L471.602 181.368C471.651 181.466 471.748 181.563 471.797 181.66L471.894 181.758C472.819 182.877 474.182 183.559 475.643 183.559C478.272 183.559 480.462 181.417 480.462 178.74C480.365 178.301 480.316 177.961 480.267 177.571Z" fill="white"/>
<path d="M512.886 238.911C512.886 211.407 489.762 189.014 461.333 189.014C459.97 189.014 458.51 189.063 456.952 189.209C418.932 134.2 359.202 97.9815 293.045 89.7545C291.925 89.5111 290.757 89.4137 289.589 89.365C281.118 88.4401 272.453 87.9533 263.934 87.9533C201.282 87.9533 142.379 112.342 98.0799 156.641C53.7808 200.941 29.3919 259.844 29.3919 322.495C29.3919 341.724 31.7286 360.856 36.3532 379.354C14.5444 388.068 0.524414 407.978 0.524414 430.323C0.524414 460.845 26.9092 485.721 59.3303 485.721C69.6506 485.721 79.7761 483.19 88.6846 478.322C133.227 528.365 197.047 557.038 263.983 557.038C326.634 557.038 385.538 532.649 429.837 488.35C474.136 444.05 498.525 385.147 498.525 322.495C498.525 307.356 497.065 292.168 494.144 277.32C506.07 267.827 512.886 253.856 512.886 238.911ZM382.325 131.425C407.152 146.808 428.474 166.621 445.707 190.328C438.745 191.545 429.35 194.417 420.247 200.989C418.64 202.158 416.937 203.521 414.989 205.127C400.093 217.297 369.473 242.319 294.603 219.001C318.018 214.766 337.149 206.88 351.608 195.44L352.922 194.417C353.214 194.174 353.555 193.931 353.847 193.638C354.966 192.665 356.086 191.691 357.157 190.669C360.127 188.04 362.95 184.973 365.433 181.566C370.544 174.848 372.637 169.542 373.173 167.984C377.7 157.712 380.767 145.396 382.325 131.425ZM373.076 125.973C371.372 145.98 366.406 162.629 358.666 174.215C358.569 174.361 358.471 174.458 358.374 174.604L358.179 174.848C355.648 178.255 352.678 181.517 349.319 184.535C344.597 188.284 339.583 190.426 334.472 190.815C332.914 190.961 331.308 190.912 329.75 190.718C326.878 189.647 325.028 188.04 325.028 188.04L324.541 187.602L323.957 187.31C323.811 187.261 311.349 180.251 315.779 153.039C318.992 133.177 316.558 114.192 309.402 102.314C331.746 106.939 353.117 114.874 373.076 125.973ZM263.885 97.7381C272.989 97.7381 282.189 98.3223 291.244 99.3932C294.165 100.026 296.793 101.73 299.081 104.553C306.675 113.754 309.402 131.766 306.189 151.53C305.166 157.712 304.874 163.457 305.312 168.714C304.047 165.647 302.976 162.386 302.148 158.881C296.599 135.173 280.972 116.577 256.924 105.089C251.91 102.655 246.604 100.61 241.103 98.9551C248.746 98.1275 256.34 97.7381 263.885 97.7381ZM214.329 103.19L220.949 104.456L221.387 104.505C221.972 104.553 280.875 110.784 292.655 161.071C297.475 181.614 309.84 196.267 325.223 199.87C309.499 206.831 290.368 211.017 268.169 212.332C219.732 173.436 198.167 135.806 188.577 110.59C196.999 107.62 205.664 105.138 214.329 103.19ZM278.976 269.775C266.514 284.573 261.987 304.581 260.38 318.747C258.774 333.157 259.748 344.45 259.845 345.862L260.04 349.562H243.391L265.394 357.886C265.346 357.351 265.346 356.864 265.346 356.328C264.177 348.88 258.531 304.971 282.384 279.024C284.818 276.444 299.081 262.083 321.62 259.357C329.896 263.787 337.831 267.681 345.328 270.894C343.283 282.286 336.468 316.41 323.275 349.562C305.751 393.569 284.623 417.422 260.526 420.441C210.142 414.015 185.072 315.583 178.305 284.087C184.877 278.342 191.108 271.965 196.852 265.101C198.459 263.203 200.065 261.207 201.623 259.211C215.205 260.915 226.158 266.708 234.19 276.444L236.576 279.365L236.77 275.568C237.16 268.266 232.779 261.694 224.114 256.582C218.807 253.418 213.452 251.763 211.7 251.276C210.532 250.984 209.266 250.692 208.049 250.449C223.14 228.786 231.513 208.145 235.505 196.413C247.383 208.145 260.672 219.39 275.033 229.954C285.548 237.646 296.501 244.899 307.649 251.568C296.209 254.635 286.57 260.817 278.976 269.775ZM356.135 416.011C355.21 417.082 354.285 418.153 353.409 419.272C353.409 419.272 343.04 432.805 334.569 442.931C334.375 443.174 334.18 443.466 333.985 443.71L333.936 443.661C332.671 445.17 331.454 446.582 330.334 447.848C329.555 448.821 328.484 449.989 327.219 451.255C326.342 452.18 325.612 452.862 325.028 453.3C325.028 453.3 324.979 453.3 324.979 453.348C322.253 455.782 318.651 458.509 314.075 461.137C310.034 463.474 305.556 465.519 300.785 467.271C291.633 453.689 289.686 427.304 289.297 418.25C295.382 413.577 301.272 407.589 306.773 400.384C316.217 388.019 324.979 371.809 332.719 352.142C354.382 369.764 362.95 390.453 358.179 413.577L356.135 416.011ZM239.545 447.02C241.2 438.744 242.028 430.809 242.466 425.016C248.016 427.743 253.809 429.495 259.699 430.177L261.062 430.225L261.354 430.177C267.682 429.398 273.914 427.45 279.95 424.286C280.826 436.651 283.504 456.805 291.292 470.289C272.307 475.255 252.105 475.303 238.377 474.427C235.894 474.281 233.411 474.184 230.88 474.184C230.442 474.184 230.004 474.184 229.517 474.184C233.801 467.709 237.209 458.606 239.545 447.02ZM213.209 475.498C200.893 477.543 189.21 481.778 178.549 488.204C180.398 473.21 186.094 461.137 195.489 452.18C214.523 434.12 222.118 420.976 225.087 412.603C227.667 415.086 230.345 417.276 233.022 419.272C232.389 437.235 227.57 471.068 213.209 475.498ZM336.371 342.552C346.155 315.388 351.851 288.711 354.09 276.979C363.339 279.608 387.388 288.176 397.805 307.405C404.864 320.402 404.669 336.272 397.318 354.576C390.114 372.539 379.307 387.679 369.181 400.238C369.035 390.551 366.698 381.253 362.268 372.49C356.865 361.683 348.151 351.606 336.371 342.552ZM179.474 114.046C189.21 139.701 205.469 164.722 227.813 188.43C224.844 198.117 214.669 227.131 192.52 254.927C194.516 250.302 196.268 245.678 197.729 241.151C208.39 208.486 204.739 181.322 187.116 162.58C171.052 145.494 154.598 140.528 140.87 140.528C137.219 140.528 133.714 140.869 130.501 141.453C145.738 130.257 162.143 121.105 179.474 114.046ZM84.6442 186.823C84.5468 187.992 84.4981 189.16 84.4981 190.328C84.4981 216.762 105.82 238.278 132.059 238.278C147.15 238.278 161.462 230.928 170.419 218.612L170.565 218.417C177.624 204.299 173.973 193.687 172.658 190.766L169.981 184.779L169.835 191.35C169.299 211.894 152.359 228.591 132.059 228.591C111.224 228.591 94.2829 211.455 94.2829 190.377C94.2829 180.349 98.0799 170.856 104.993 163.7C106.307 162.629 115.8 155.035 129.089 151.822C147.734 147.295 164.918 153.185 180.106 169.347C191.206 181.176 195.733 196.803 193.591 215.788C190.086 229.078 182.297 239.106 170.322 245.58C134.152 265.247 69.4559 248.453 53.2453 243.779C60.8394 223.334 71.4031 204.202 84.6442 186.823ZM49.9837 252.883C57.1884 255.024 73.3016 259.406 92.433 262.132C103.97 263.787 114.777 264.663 124.659 264.663C145.057 264.663 161.949 261.11 174.898 254.051C178.646 252.006 182.102 249.67 185.218 246.992C178.451 264.03 169.981 276.736 168.764 278.537L166.719 280.971C155.425 290.074 143.158 297.328 130.209 302.585C103.386 313.441 72.8148 316.07 39.3227 310.374C40.4423 290.756 43.996 271.43 49.9837 252.883ZM154.793 375.752C157.129 391.524 159.515 407.832 159.223 425.649C159.028 437.868 155.182 446.971 147.783 452.764C136.83 461.332 120.376 461.429 110.104 460.358C117.893 449.892 126.899 431.734 129.089 402.283C130.112 388.457 130.112 377.748 130.112 368.255C130.112 341.091 130.112 330.041 155.425 303.413C147.734 327.899 151.19 351.217 154.793 375.752ZM87.5163 467.807L87.2242 467.904L86.7374 468.196C78.6078 473.356 69.0664 476.082 59.1843 476.082C32.118 476.082 10.1144 455.588 10.1144 430.42C10.1144 405.252 32.118 384.758 59.1843 384.758C74.4699 384.758 89.0741 391.524 98.3233 402.867L104.554 410.51L100.855 401.358C98.9075 396.587 93.0172 384.855 79.9221 378.527L79.7761 378.478C73.1556 376.141 66.243 374.973 59.233 374.973C54.657 374.973 50.0324 375.46 45.5538 376.482C41.2212 358.908 39.0306 340.751 39.0306 322.495C39.0306 321.717 39.0306 320.986 39.0306 320.208C50.5679 322.106 61.8617 323.031 72.6201 323.031C94.4776 323.031 115.118 319.185 133.86 311.591C134.639 311.25 135.466 310.91 136.294 310.569C120.278 331.453 120.278 344.986 120.23 368.255C120.23 377.553 120.23 388.117 119.207 401.552C116.919 432.611 106.794 449.746 98.7128 458.703C92.7738 465.47 87.565 467.758 87.5163 467.807ZM97.155 473.356C98.8588 472.139 100.563 470.727 102.266 469.218C105.625 469.802 111.662 470.679 118.818 470.679C128.895 470.679 143.109 468.926 153.819 460.553C163.652 452.862 168.764 441.178 169.007 425.893C169.299 407.297 166.865 390.599 164.48 374.438C160.196 345.327 156.496 320.159 170.273 292.849C174.898 313.052 182.686 341.189 194.516 366.843C201.428 381.837 209.071 394.396 217.152 404.133C216.86 407.686 214.037 421.317 188.82 445.219C176.115 457.292 169.007 474.622 168.228 495.408C160.975 501.055 154.257 507.773 148.221 515.416C129.187 503.927 112.051 489.81 97.155 473.356ZM156.74 520.187C160.391 515.708 164.285 511.57 168.423 507.822C169.007 515.513 170.224 522.329 171.441 527.44C166.379 525.201 161.51 522.767 156.74 520.187ZM276.737 547.01C279.901 536.008 280.291 525.444 277.905 515.562C274.595 503.635 264.421 500.471 262.425 499.936L257.849 498.767L260.916 502.321C261.646 503.197 265.492 507.871 267.78 515.805C270.603 525.542 270.116 536.154 266.368 547.35C265.54 547.35 264.664 547.399 263.837 547.399C235.992 547.399 208.682 542.288 182.686 532.259C181.323 527.732 177.964 515.027 177.818 500.325C195.149 488.155 215.302 482.703 237.598 484.114C278.149 486.743 303.609 478.322 318.651 469.802C318.602 469.949 318.505 470.094 318.456 470.241C308.769 492.098 306.189 515.757 310.619 542.531C299.519 544.868 288.128 546.377 276.737 547.01ZM320.16 540.34C312.274 491.514 330.334 462.598 353.944 433.779C349.952 459.19 352.094 481.194 360.321 499.303C364.556 508.649 369.619 515.027 373.514 518.97C356.768 528.365 338.805 535.521 320.16 540.34ZM422.876 481.534C410.608 493.802 396.929 504.658 382.276 513.761C379.355 511.083 373.611 504.95 369.084 494.727C357.839 469.656 361.733 439.621 366.991 418.883C367.039 418.639 367.137 418.347 367.185 418.104V418.006C382.52 399.849 397.026 381.545 406.422 358.13C414.892 337.002 414.892 318.309 406.373 302.683C403.89 298.107 400.677 293.823 396.832 289.88C400.921 292.606 404.62 295.77 407.882 299.324C421.074 313.684 426.867 334.081 425.066 360.028C423.46 382.957 426.916 402.964 435.24 419.516C441.52 431.978 449.163 439.426 453.739 443.174C444.928 456.951 434.559 469.851 422.876 481.534ZM421.513 270.554L421.659 270.7C431.492 282.188 445.999 288.76 461.382 288.76C469.706 288.76 477.933 286.764 485.333 283.064C487.621 296.062 488.789 309.303 488.789 322.544C488.789 362.073 478.469 400.822 458.948 434.655C455.784 431.88 451.548 427.499 447.459 421.025C440.547 410.072 432.758 390.697 434.851 360.661C439.816 289.441 390.941 272.793 369.717 268.898C357.206 266.61 323.568 251.909 288.08 227.131C311.203 234.676 332.233 238.473 350.829 238.473C389.676 238.473 409.391 222.36 421.22 212.721C423.07 211.212 424.677 209.898 426.04 208.924C439.135 199.48 453.203 199.237 454.81 199.237H455.199L455.589 199.188C457.487 198.945 459.483 198.799 461.43 198.799C484.505 198.799 503.247 216.81 503.247 238.911C503.247 261.061 484.505 279.024 461.43 279.024C439.281 279.024 420.928 262.424 419.663 241.199L418.981 229.467L416.742 241.005C415.427 247.333 414.454 259.552 421.513 270.554Z" fill="white"/>
</svg>
