<svg width="17" height="19" viewBox="0 0 17 19" fill="none" xmlns="http://www.w3.org/2000/svg">
<path d="M15.5615 10.6647C15.1009 14.5214 12.4436 14.7785 11.9476 14.9254C11.735 14.9989 9.78631 15.5131 7.34157 15.3295L4.68425 18.3782V14.8887H4.64882C1.14116 13.8602 1.28288 9.93004 1.31831 7.83638C1.35375 5.77944 1.70805 4.08982 2.80641 2.95116C4.75511 1.07788 8.75881 1.37173 8.75881 1.37173C12.1602 1.37173 13.79 2.47366 14.1443 2.84097C15.4198 3.97963 16.0576 6.69772 15.5615 10.6647ZM15.0655 1.84923C14.6049 1.40846 12.8334 0.0126876 8.82967 0.0126876C8.82967 0.0126876 4.11736 -0.28116 1.81435 1.95943C0.503403 3.31847 0.0782324 5.30194 0.00737058 7.79964C-0.0280603 10.2606 -0.098922 14.8887 4.11736 16.1376V18.0476C4.11736 18.0476 4.08193 18.8189 4.57796 18.9658C5.14485 19.1495 5.49916 18.5618 6.06606 17.9374C6.38494 17.6068 6.77468 17.0926 7.09355 16.6885C9.96346 16.9456 12.1956 16.358 12.4436 16.2845C13.0105 16.1008 16.3056 15.6601 16.8371 11.032C17.3685 6.25695 16.5536 3.24501 15.0655 1.84923Z" fill="#834995"/>
<path d="M12.5145 11.2523C12.5145 11.2523 11.9831 10.7748 11.6996 10.5544C11.4516 10.3708 11.0619 10.1137 10.8493 9.96675C10.4595 9.74636 10.0344 9.89328 9.89263 10.1137L9.53832 10.5912C9.36117 10.8116 9.07772 10.7748 9.00686 10.7748C8.51082 10.6279 7.94393 10.2973 7.37703 9.74636C6.81014 9.1954 6.45583 8.6077 6.34954 7.98328V7.94654C6.31411 7.68943 6.34954 7.57924 6.45583 7.39558H6.49126C6.73928 7.1752 7.16445 6.88135 7.23531 6.62423C7.41246 6.18346 6.66842 5.22846 6.56212 5.0448C6.56212 5.0448 6.03066 4.31018 5.81807 4.16326C5.60549 3.97961 5.28661 3.86941 4.96773 4.0898C4.04653 4.75095 3.69222 5.11826 3.79851 5.66923L3.83394 5.88961C4.29454 7.43231 5.21575 9.0852 6.56212 10.5177C7.9085 11.9502 9.36117 12.8318 10.7784 13.4195C11.1327 13.5296 11.5225 13.4195 11.9476 13.0889C12.2665 12.795 12.4791 12.4644 12.6562 12.1339C12.8334 11.8033 12.7625 11.4727 12.5145 11.2523Z" fill="#834995"/>
<path d="M10.2819 7.87313C10.2111 7.87313 10.1756 7.8364 10.1756 7.76294C10.1402 7.3589 10.0693 7.06505 9.85675 6.84467C9.6796 6.62428 9.39615 6.51409 9.04184 6.51409C8.97098 6.51409 8.93555 6.44062 8.93555 6.40389C8.93555 6.33043 9.00641 6.2937 9.04184 6.2937C9.46701 6.33043 9.78589 6.44063 9.99847 6.69774C10.2111 6.95486 10.3528 7.28544 10.3528 7.76294C10.3882 7.8364 10.3528 7.87313 10.2819 7.87313Z" fill="#834995"/>
<path d="M11.3451 8.24043C11.2742 8.24043 11.2388 8.2037 11.2388 8.13023C11.2388 7.35889 11.0262 6.73446 10.601 6.22023C10.3885 5.96311 10.105 5.77946 9.82156 5.63253C9.50269 5.48561 9.14838 5.41215 8.75864 5.37542C8.68778 5.37542 8.65234 5.30195 8.65234 5.26522C8.65234 5.19176 8.72321 5.15503 8.75864 5.15503C9.60898 5.22849 10.2822 5.52234 10.7782 6.0733C11.2742 6.62427 11.4868 7.32215 11.4868 8.16697C11.4514 8.2037 11.416 8.24043 11.3451 8.24043Z" fill="#834995"/>
<path d="M12.4435 8.7179C12.3727 8.7179 12.3372 8.68117 12.3372 8.60771C12.3372 7.94655 12.231 7.32213 12.0538 6.77116C11.8766 6.25693 11.5932 5.77943 11.2035 5.37539C10.8137 4.97135 10.3885 4.6775 9.92795 4.49385C9.46735 4.31019 8.93588 4.2 8.36899 4.2C8.29813 4.2 8.2627 4.16327 8.2627 4.08981C8.2627 4.01635 8.29813 3.97961 8.36899 3.97961C9.53821 3.97961 10.5303 4.42039 11.3098 5.22847C11.6995 5.63251 12.0184 6.14674 12.1955 6.6977C12.4081 7.24867 12.5144 7.90982 12.5144 8.60771C12.5498 8.64444 12.479 8.7179 12.4435 8.7179Z" fill="#834995"/>
</svg>
