<svg width="18" height="18" viewBox="0 0 18 18" fill="none" xmlns="http://www.w3.org/2000/svg">
<path fill-rule="evenodd" clip-rule="evenodd" d="M9 18C13.9706 18 18 13.9706 18 9C18 4.02944 13.9706 0 9 0C4.02944 0 0 4.02944 0 9C0 13.9706 4.02944 18 9 18ZM7.3494 13.1248C7.5683 13.1248 7.66833 13.0274 7.78923 12.9097L7.7994 12.8998L8.88072 11.8483L11.1305 13.5105C11.5444 13.7389 11.8431 13.6207 11.9462 13.1263L13.4226 6.16904C13.5738 5.56303 13.1916 5.28817 12.7956 5.46793L4.1264 8.81075C3.53464 9.04811 3.53809 9.37825 4.01853 9.52535L6.24326 10.2197L11.3937 6.97035C11.6369 6.82291 11.86 6.90218 11.6769 7.06473L7.50353 10.8309L7.50385 10.8311L7.50255 10.8303L7.3494 13.1248Z" fill="#2CADE0"/>
</svg>
